<svg width="1908" height="1738" fill="none" xmlns="http://www.w3.org/2000/svg"><path fill="#D4EDE9" d="M89.294 1305.5L1283.661 111.133l431.588 431.588L520.882 1737.088z"/><path fill="#D4EDE9" d="M-126 1090.21L815.11 149.1l478.997 478.997-941.11 941.11z"/><mask id="a" maskUnits="userSpaceOnUse" x="493" y="13" width="1152" height="593"><path fill="#fff" d="M493.741 13.095h1151v592h-1151z"/></mask><g mask="url(#a)"><path d="M1049.69 51.814l595.24 595.238-852.065 852.068-595.238-595.243L1049.69 51.814z" fill="#00947E"/></g><path d="M1249.04 60.387c.3-10.604-8.09-19.093-18.68-19.153.77-8.159-7.63-14.157-14.96-10.605 3.11-13.97-7.44-27.33-21.42-30.031-15.78-3.058-30.67 5.972-38.84 18.924-5.05 7.997-7.64 17.222-8.68 26.539-5.39-3.99-12.8-5.048-18.96-2.09-6.52 3.118-10.71 10.452-9.72 17.56.04.222.2.313.4.313l.02.23c-.72.078-1.43.17-2.14.287-.06.008-.06.117 0 .126 5.06.828 10.41.507 15.51.533 5.57.034 11.13.06 16.68.086 11.13.044 22.24.044 33.37.061 22.24.035 44.53.382 66.74-.472.35-.018.35-.525 0-.534-.11 0-.21-.009-.32-.009l.04-.872c.46-.004.94-.299.96-.893z" fill="#CCE4F3" fill-opacity=".6"/></svg>