<svg width="1908" height="1738" fill="none" xmlns="http://www.w3.org/2000/svg"><path fill="#D4EDE9" d="M89.294 1305.5L1283.661 111.133l431.588 431.588L520.882 1737.088z"/><path fill="#D4EDE9" d="M-126 1090.21L815.11 149.1l478.997 478.997-941.11 941.11z"/><mask id="a" maskUnits="userSpaceOnUse" x="493" y="13" width="1152" height="593"><path fill="#fff" d="M493.741 13.095h1151v592h-1151z"/></mask><g mask="url(#a)"><path d="M1049.69 51.814l595.24 595.238-852.065 852.068-595.238-595.243L1049.69 51.814z" fill="#00947E"/></g><path d="M1249.04 60.387c.3-10.604-8.09-19.093-18.68-19.153.77-8.159-7.63-14.157-14.96-10.605 3.11-13.97-7.44-27.33-21.42-30.031-15.78-3.058-30.67 5.972-38.84 18.924-5.05 7.997-7.64 17.222-8.68 26.539-5.39-3.99-12.8-5.048-18.96-2.09-6.52 3.118-10.71 10.452-9.72 17.56.04.222.2.313.4.313l.02.23c-.72.078-1.43.17-2.14.287-.06.008-.06.117 0 .126 5.06.828 10.41.507 15.51.533 5.57.034 11.13.06 16.68.086 11.13.044 22.24.044 33.37.061 22.24.035 44.53.382 66.74-.472.35-.018.35-.525 0-.534-.11 0-.21-.009-.32-.009l.04-.872c.46-.004.94-.299.96-.893z" fill="#CCE4F3" fill-opacity=".6"/><path d="M1084.74 670.12c6.01 2.004 7.16-7.792 8.84-13.048-1.06 1.368-2.55 2.997-2.98.651-.62-3.435 1.16-10.654 3.79-12.578-1.72-.994-4.19-1.447-5.91-1.598-2.21-.183-5.55 25.969-3.74 26.573z" fill="#30193B"/><path d="M1090.61 657.732c.43 2.346 1.95 3.196 2.85-.215.82-3.061 2.16-4.349 2.47-4.89.44-.763 4.89-4.134 5.62-4.38.7-.231-.67-5.702-1.28-5.05-2.95 3.03-5.55 2.131-5.87 1.956-2.63 1.924-4.41 9.144-3.79 12.579z" fill="#F9879A"/><path opacity=".1" d="M1674.02 679.996c0 8.491-143.67 15.412-320.93 15.412-177.29 0-321.09-6.921-321.09-15.412 0-8.522 143.8-15.428 321.09-15.428 177.26-.008 320.93 6.906 320.93 15.428z" fill="#2E2D42"/><path d="M1189.87 389.869c-20.28 22.335.59 133.106.59 133.106s-92.46 121.337-92.2 122.005l1.74 13.016c.4 1.041 98.83-80.277 129.24-109.904 18.99-18.526 36.88-129.502 50.63-165.204 6.38-16.53-76.62-7.737-90 6.981z" fill="#201F2A"/><path d="M1408.32 675.328c-1.55-5.606-10.48-1.494-15.75.096 1.71.111 3.91.405 2.21 2.083-2.48 2.457-9.44 5.081-12.52 4.008.16 1.988 1.19 4.269 2.04 5.78 1.09 1.916 24.51-10.138 24.02-11.967z" fill="#30193B"/><path d="M1394.79 677.499c1.69-1.678 1.53-3.42-1.82-2.219-2.97 1.058-5.76 1.288-6.37 1.352-1.61.127-3.23-1.662-3.23-1.662l-2.58 1.845s1.42 4.119 1.47 4.692c3.07 1.073 10.04-1.551 12.53-4.008z" fill="#FF97A6"/><path d="M1183.94 435.486c7.27 29.277 83.58 93.261 83.58 93.261s111.99 150.749 114.02 149.882l6.95-4.285c.62-.263-54.25-122.093-71.61-166.437-12.86-32.863-54.28-104.178-52.59-100.926 0 0-1.1-32.243-4.62-35.94-7.86-.111-29.39-17.628-53 .063-22.95 17.199-26.06 50.992-22.73 64.382z" fill="#2E2D42"/><path d="M1209.26 281.533c15.55-18.479 76.08-13.079 87.86 5.018 12.66 19.489-16.9 94.811-16.9 94.811s-7.46 2.313-20.64.342c-17.71-2.672-50.4-12.254-50.4-12.254s-4.19-82.852.08-87.917z" fill="#FFE5B0"/><path d="M1235.67 271.815c-7.28.525-25.86 1.892-39.2 17.859-12.07 14.455-31.18 41.251-29.72 63.562 1.07 16.491 24.19-11.147 24.19-11.147l26.31-39.916s26.48-30.922 18.42-30.358z" fill="#FFD599"/><path d="M1252.02 270.179s-10.44 23.091-3.87 68.413c1.06 7.252 15.17 43.573 15.17 43.573s-19.94-2.17-31.5-5.391c-17.57-4.89-24.5-5.422-23.6-8.372l-.67-65.534s-2.18-20.921 3.58-24.014c2.3-1.24 8.94-5.478 15.98-7.037 10.63-2.313 22.56-1.789 24.91-1.638z" fill="#FFD599"/><path d="M1273.53 251.595s-8.47 17.859-7.85 20.348c.63 2.488 4.47 6.678 8.65 2.822 4.17-3.832 6.54-20.984 6.54-20.984l-7.34-2.186z" fill="#FF97A6"/><path d="M1275.27 245.553s-7.39 17.889-8.02 20.235c-.48 1.789 8.53 5.821 9.8 3.698 2.81-4.675 5.54-21.723 5.54-21.723l-7.32-2.21z" fill="#C95D77"/><path d="M1291.93 261.328c1.23-1.336 2.93-7.3 4.19-12.349 1.05-4.175-1.56-8.389-5.77-9.335-6.51-1.463-13.81-2.688-16.08-1.972-3.55 1.121-4.84 5.423-5.87 8.603-1.04 3.165-1.74 9.224-.57 12.468 1.06 2.966 5.58 6.616 8.53 7.411 8.81 2.361 11.97.811 15.57-4.826z" fill="#FF97A6"/><path d="M1405.94 317.56c-11.08-2.918-54.4-21.635-54.4-21.635s-50.14 6.258-62.88 6.432c-5.88.08-12.24-.588-12.24-.588-6.25-.572 9.02.08 1.1-12.61 12.86-4.596 8.23-6.353 6.87-5.248 11.54-2.131 34.89 1.845 59.35-1.288 14.32-1.829 37.61-9.828 58.62-8.818 29.31 1.399 20.97 27.702 21.71 36.481a4.63 4.63 0 0 1-1.84 4.07c-2.86 2.123-8.65 5.24-16.29 3.204z" fill="#FFE5B0"/><path d="M1424.79 291.145s9.13-5.344 12.28-3.261c3.15 2.1 8.76 4.549 8.24 6.123-.52 1.582-3.81-.914-3.81-.914s3.48 2.218 3.48 2.997c0 .795-1.26.668-1.26.668s.58-.454-.34.588c-.91 1.057-8.01-2.409-9.59-3.061-1.6-.652-5.97.064-9.23-1.105-1.22-.421-2.11 0 .23-2.035z" fill="#FFA9BA"/><path fill="#2E338B" d="M1387.07 213.102l186.976 186.976-186.976 186.976-186.976-186.976z"/><path d="M1222.02 426.741c-.31.668 1.63 2.814 2.06 3.291 1.1 1.241 2.95 4.318 5.01 6.68 0 0 1.13 2.003 4.5 3.259 1.16.422 6.02.16 6.89-.85.87-.994-3.7-2.934-4.65-3.976-1.46-1.55-2.39-3.665-2.81-6.178 0 0 2.55.867 2.61-.159.06-1.026-4.87-3.03-6.57-2.545 0 0-1.95-.158-2.87-.524-.63-.27-3.6-.191-4.17 1.002z" fill="#FFA9BA"/><path d="M1166.84 347.081c-6.43 15.235 26.55 84.936 51.39 82.495 9.23-.914 11.74-7.967 11.74-7.967l-38.6-83.671c-.01 0-17.28-8.031-24.53 9.143z" fill="#FFD599"/><path d="M1279.36 238.11s17.46 12.238 31.77-.182c14.29-12.428 7.87-25.564 7.87-25.564s-4.77 9.986-10.51 11.68c0 0 1.55-6.679.26-8.746 0 0-4.27 7.188-9.94 7.919-5.68.732-21.81-12.84-28.66-3.927-6.87 8.897 9.21 18.82 9.21 18.82z" fill="#6B4300"/><path d="M1271.06 221.556c-.36-.279-9.38-.326-10.44 6.416-1.07 6.727 6.61 26.447 6.61 26.447s6.38-16.07 12.13-16.308c5.75-.239-8.3-16.555-8.3-16.555z" fill="#A76A02"/><path fill="#F8991D" d="M1582.04 187l102.6 102.6-102.6 102.6-102.6-102.6z"/><path fill="#007AC1" d="M1726.59 263.856L1907.634 444.9 1726.59 625.944 1545.546 444.9z"/><path fill="#CF1E63" d="M1536.52 457.695l115.408 115.408-115.408 115.409-115.408-115.409z"/><path d="M1341.91 377.039h-6.32l.02 10.792h-3.06v-13.3h9.38l-.02 2.508zm.65.57h2.95v6.08l4.97-6.08h2.72v10.222h-2.94v-6.08l-4.96 6.08h-2.74v-10.222zm19.4.703c.98 0 1.83.202 2.56.608.74.392 1.3.95 1.7 1.672.4.722.6 1.558.6 2.508 0 .975-.24 1.843-.72 2.603-.47.747-1.13 1.33-1.97 1.748-.85.405-1.82.608-2.89.608-1.79 0-3.19-.57-4.22-1.71-1.01-1.153-1.52-2.838-1.52-5.054 0-2.052.44-3.686 1.33-4.902.9-1.229 2.27-2.033 4.12-2.413l4.87-.969.4 2.546-4.3.855c-1.16.228-2.03.608-2.6 1.14-.56.532-.89 1.285-.99 2.261.44-.482.98-.849 1.6-1.102.62-.266 1.3-.399 2.03-.399zm-.7 7.448c.76 0 1.36-.247 1.82-.741.47-.494.7-1.121.7-1.881 0-.773-.23-1.387-.7-1.843-.46-.456-1.06-.684-1.82-.684-.78 0-1.4.228-1.87.684-.46.456-.7 1.07-.7 1.843 0 .772.24 1.406.72 1.9.49.481 1.1.722 1.85.722zm12.08-1.805h-1.54v3.876h-2.96v-10.222h2.96v3.971h1.6l2.77-3.971h3.15l-3.57 4.902 3.82 5.32h-3.5l-2.73-3.876zm12.16 4.028c-1.08 0-2.05-.222-2.91-.665a5.066 5.066 0 0 1-1.99-1.881c-.49-.798-.73-1.704-.73-2.717 0-1.014.24-1.919.73-2.717a4.931 4.931 0 0 1 1.99-1.862c.86-.456 1.83-.684 2.91-.684 1.07 0 2.04.228 2.89.684a4.995 4.995 0 0 1 1.99 1.862c.48.798.72 1.703.72 2.717 0 1.013-.24 1.919-.72 2.717a5.134 5.134 0 0 1-1.99 1.881c-.85.443-1.82.665-2.89.665zm0-2.432c.76 0 1.38-.254 1.86-.76.49-.52.74-1.21.74-2.071 0-.862-.25-1.546-.74-2.052-.48-.52-1.1-.779-1.86-.779s-1.39.259-1.88.779c-.5.506-.74 1.19-.74 2.052 0 .861.24 1.551.74 2.071.49.506 1.12.76 1.88.76zm12.51 2.432c-1.09 0-2.08-.222-2.95-.665a5.176 5.176 0 0 1-2.03-1.881c-.48-.798-.72-1.704-.72-2.717 0-1.014.24-1.919.72-2.717a5.038 5.038 0 0 1 2.03-1.862c.87-.456 1.86-.684 2.95-.684 1.07 0 2.01.228 2.81.684.81.443 1.4 1.083 1.76 1.919l-2.29 1.235c-.54-.938-1.3-1.406-2.3-1.406-.78 0-1.42.253-1.92.76-.51.506-.76 1.197-.76 2.071 0 .874.25 1.564.76 2.071.5.506 1.14.76 1.92.76 1.01 0 1.78-.469 2.3-1.406l2.29 1.254c-.36.81-.95 1.444-1.76 1.9-.8.456-1.74.684-2.81.684zm14.93-7.942h-3.46v7.79h-2.95v-7.79h-3.45v-2.432h9.86v2.432zm7.11.836c1.33.012 2.35.316 3.05.912.71.582 1.07 1.412 1.07 2.489 0 1.127-.4 2.007-1.2 2.641-.78.62-1.89.931-3.32.931l-5.13-.019v-10.222h2.94v3.268h2.59zm-.67 4.864c.57.012 1.01-.108 1.31-.361.31-.254.46-.634.46-1.14 0-.494-.15-.855-.46-1.083-.29-.228-.73-.349-1.31-.361l-1.92-.019v2.964h1.92zm12.02-8.132h2.95v6.08l4.97-6.08h2.72v10.222h-2.94v-6.08l-4.96 6.08h-2.74v-10.222zm-133.76 34.222v-6.118l-3.06 5.13h-1.25l-2.98-5.149v6.137h-2.68v-10.222h3.09l3.27 5.909 3.48-5.909h2.77l.04 10.222h-2.68zm9.49-10.374c1.59 0 2.8.38 3.65 1.14.85.747 1.27 1.881 1.27 3.401v5.833h-2.77v-1.273c-.56.95-1.6 1.425-3.12 1.425-.78 0-1.47-.133-2.05-.399-.57-.266-1.01-.634-1.31-1.102a2.905 2.905 0 0 1-.46-1.596c0-.95.36-1.698 1.07-2.242.72-.545 1.83-.817 3.32-.817h2.36c0-.646-.2-1.14-.59-1.482-.39-.355-.98-.532-1.77-.532-.54 0-1.08.088-1.61.266-.52.164-.96.392-1.33.684l-1.07-2.071c.56-.393 1.23-.697 2-.912a9.024 9.024 0 0 1 2.41-.323zm-.23 8.531c.51 0 .96-.114 1.35-.342.4-.241.67-.589.84-1.045v-1.045h-2.03c-1.22 0-1.83.399-1.83 1.197 0 .38.15.684.44.912.3.215.71.323 1.23.323zm12.59 1.995c-1.09 0-2.07-.222-2.94-.665a5.273 5.273 0 0 1-2.04-1.881c-.48-.798-.72-1.704-.72-2.717 0-1.014.24-1.919.72-2.717a5.13 5.13 0 0 1 2.04-1.862c.87-.456 1.85-.684 2.94-.684 1.08 0 2.02.228 2.81.684.81.443 1.4 1.083 1.77 1.919l-2.3 1.235c-.53-.938-1.3-1.406-2.3-1.406-.77 0-1.41.253-1.92.76-.5.506-.76 1.197-.76 2.071 0 .874.26 1.564.76 2.071.51.506 1.15.76 1.92.76 1.02 0 1.78-.469 2.3-1.406l2.3 1.254c-.37.81-.96 1.444-1.77 1.9-.79.456-1.73.684-2.81.684zm21.98-10.374v10.222h-15.6v-10.222h2.95v7.79h3.4v-7.79h2.94v7.79h3.37v-7.79h2.94zm11.43 2.432h-3.45v7.79h-2.95v-7.79h-3.46v-2.432h9.86v2.432zm5.55-2.584c1.59 0 2.8.38 3.65 1.14.85.747 1.28 1.881 1.28 3.401v5.833h-2.78v-1.273c-.56.95-1.59 1.425-3.11 1.425-.79 0-1.47-.133-2.06-.399-.57-.266-1-.634-1.31-1.102a2.898 2.898 0 0 1-.45-1.596c0-.95.35-1.698 1.06-2.242.72-.545 1.83-.817 3.33-.817h2.35c0-.646-.2-1.14-.59-1.482-.39-.355-.98-.532-1.76-.532-.55 0-1.09.088-1.62.266-.52.164-.96.392-1.33.684l-1.06-2.071c.55-.393 1.22-.697 1.99-.912a9.078 9.078 0 0 1 2.41-.323zm-.22 8.531c.5 0 .95-.114 1.35-.342.39-.241.67-.589.83-1.045v-1.045h-2.03c-1.22 0-1.83.399-1.83 1.197 0 .38.15.684.44.912.31.215.72.323 1.24.323zm13.63-7.676c.97 0 1.83.202 2.56.608.74.392 1.3.95 1.69 1.672.41.722.61 1.558.61 2.508 0 .975-.24 1.843-.72 2.603-.47.747-1.13 1.33-1.98 1.748-.84.405-1.81.608-2.88.608-1.79 0-3.2-.57-4.22-1.71-1.01-1.153-1.52-2.838-1.52-5.054 0-2.052.44-3.686 1.33-4.902.9-1.229 2.27-2.033 4.12-2.413l4.87-.969.39 2.546-4.29.855c-1.16.228-2.03.608-2.6 1.14-.56.532-.89 1.285-.99 2.261.44-.482.98-.849 1.6-1.102a5.071 5.071 0 0 1 2.03-.399zm-.7 7.448c.76 0 1.36-.247 1.82-.741.47-.494.7-1.121.7-1.881 0-.773-.23-1.387-.7-1.843-.46-.456-1.06-.684-1.82-.684-.78 0-1.4.228-1.87.684-.46.456-.7 1.07-.7 1.843 0 .772.24 1.406.72 1.9.48.481 1.1.722 1.85.722zm7.57-8.151h2.95v6.08l4.98-6.08h2.71v10.222h-2.94v-6.08l-4.96 6.08h-2.74v-10.222zm19.52-.152c.95 0 1.81.221 2.58.665.79.43 1.4 1.045 1.84 1.843.45.785.67 1.703.67 2.755 0 1.051-.22 1.976-.67 2.774a4.718 4.718 0 0 1-1.84 1.843c-.77.43-1.63.646-2.58.646-1.31 0-2.33-.412-3.08-1.235v4.769h-2.97v-13.908h2.84v1.178c.73-.887 1.8-1.33 3.21-1.33zm-.52 8.094c.76 0 1.38-.254 1.87-.76.49-.52.74-1.21.74-2.071 0-.862-.25-1.546-.74-2.052-.49-.52-1.11-.779-1.87-.779s-1.38.259-1.88.779c-.48.506-.72 1.19-.72 2.052 0 .861.24 1.551.72 2.071.5.506 1.12.76 1.88.76zm17.65-7.942l-4.62 10.849c-.47 1.178-1.05 2.007-1.75 2.489-.68.481-1.51.722-2.49.722-.53 0-1.05-.083-1.57-.247-.52-.165-.95-.393-1.28-.684l1.09-2.109c.23.202.49.361.78.475.3.114.6.171.89.171.4 0 .73-.102.99-.304.25-.19.48-.513.68-.969l.04-.095-4.43-10.298h3.06l2.87 6.935 2.89-6.935h2.85zm11.09 5.149c0 .038-.02.304-.06.798h-7.73c.14.633.47 1.133.98 1.501.52.367 1.17.551 1.94.551.53 0 1-.076 1.41-.228.42-.165.8-.418 1.16-.76l1.57 1.71c-.96 1.102-2.36 1.653-4.21 1.653-1.16 0-2.18-.222-3.06-.665-.89-.456-1.57-1.083-2.05-1.881-.49-.798-.73-1.704-.73-2.717 0-1.001.24-1.9.71-2.698a4.979 4.979 0 0 1 1.95-1.881c.84-.456 1.77-.684 2.8-.684 1 0 1.9.215 2.71.646a4.6 4.6 0 0 1 1.9 1.862c.47.798.71 1.729.71 2.793zm-5.3-3.059c-.68 0-1.24.19-1.7.57-.45.38-.73.899-.83 1.558h5.03c-.1-.646-.38-1.159-.83-1.539-.46-.393-1.02-.589-1.67-.589zm17.54 8.132v-6.118l-3.06 5.13h-1.25l-2.98-5.149v6.137h-2.68v-10.222h3.1l3.26 5.909 3.48-5.909h2.77l.04 10.222h-2.68zm10.31.152c-1.08 0-2.05-.222-2.91-.665a5.066 5.066 0 0 1-1.99-1.881c-.48-.798-.72-1.704-.72-2.717 0-1.014.24-1.919.72-2.717a4.931 4.931 0 0 1 1.99-1.862c.86-.456 1.83-.684 2.91-.684s2.04.228 2.89.684a4.931 4.931 0 0 1 1.99 1.862c.48.798.73 1.703.73 2.717 0 1.013-.25 1.919-.73 2.717a5.066 5.066 0 0 1-1.99 1.881c-.85.443-1.81.665-2.89.665zm0-2.432c.76 0 1.38-.254 1.86-.76.5-.52.74-1.21.74-2.071 0-.862-.24-1.546-.74-2.052-.48-.52-1.1-.779-1.86-.779s-1.39.259-1.88.779c-.49.506-.74 1.19-.74 2.052 0 .861.25 1.551.74 2.071.49.506 1.12.76 1.88.76zm12.51 2.432c-1.09 0-2.07-.222-2.95-.665a5.176 5.176 0 0 1-2.03-1.881c-.48-.798-.72-1.704-.72-2.717 0-1.014.24-1.919.72-2.717a5.038 5.038 0 0 1 2.03-1.862c.88-.456 1.86-.684 2.95-.684 1.07 0 2.01.228 2.81.684.81.443 1.4 1.083 1.77 1.919l-2.3 1.235c-.53-.938-1.3-1.406-2.3-1.406-.77 0-1.41.253-1.92.76-.51.506-.76 1.197-.76 2.071 0 .874.25 1.564.76 2.071.51.506 1.15.76 1.92.76 1.01 0 1.78-.469 2.3-1.406l2.3 1.254c-.37.81-.96 1.444-1.77 1.9-.8.456-1.74.684-2.81.684zm14.93-7.942H1473v7.79h-2.94v-7.79h-3.46v-2.432h9.86v2.432zm7.11.836c1.33.012 2.35.316 3.06.912.71.582 1.06 1.412 1.06 2.489 0 1.127-.4 2.007-1.2 2.641-.78.62-1.89.931-3.32.931l-5.13-.019v-10.222h2.94v3.268h2.59zm-.67 4.864c.57.012 1.01-.108 1.31-.361.31-.254.46-.634.46-1.14 0-.494-.15-.855-.46-1.083-.29-.228-.72-.349-1.31-.361l-1.92-.019v2.964h1.92zm183.03 8.49c1.73 0 3.24.289 4.51.868 1.28.578 2.27 1.4 2.96 2.464.7 1.064 1.04 2.324 1.04 3.78 0 1.437-.34 2.697-1.04 3.78-.69 1.064-1.68 1.885-2.96 2.464-1.27.56-2.78.84-4.51.84h-3.95v5.404h-4.54v-19.6h8.49zm-.25 10.5c1.36 0 2.4-.29 3.1-.868.71-.598 1.07-1.438 1.07-2.52 0-1.102-.36-1.942-1.07-2.52-.7-.598-1.74-.896-3.1-.896h-3.7v6.804h3.7zm17.13-6.188c2.34 0 4.13.56 5.38 1.68 1.25 1.101 1.87 2.772 1.87 5.012v8.596h-4.08v-1.876c-.83 1.4-2.36 2.1-4.6 2.1-1.15 0-2.16-.196-3.02-.588-.84-.392-1.48-.934-1.93-1.624-.45-.691-.67-1.475-.67-2.352 0-1.4.52-2.502 1.56-3.304 1.07-.803 2.7-1.204 4.9-1.204h3.48c0-.952-.29-1.68-.87-2.184-.58-.523-1.45-.784-2.61-.784-.8 0-1.59.13-2.38.392-.76.242-1.41.578-1.96 1.008l-1.56-3.052c.82-.579 1.8-1.027 2.94-1.344 1.15-.318 2.34-.476 3.55-.476zm-.33 12.572c.74 0 1.41-.168 1.98-.504.58-.355.99-.868 1.24-1.54v-1.54h-3c-1.79 0-2.69.588-2.69 1.764 0 .56.22 1.008.65 1.344.44.317 1.05.476 1.82.476zm21.01-5.124c.9.28 1.59.709 2.08 1.288.5.578.75 1.269.75 2.072 0 .952-.32 1.792-.98 2.52-.65.709-1.55 1.26-2.69 1.652-1.13.392-2.42.588-3.86.588-1.18 0-2.33-.122-3.47-.364-1.14-.243-2.2-.607-3.17-1.092l1.18-3.052c1.59.765 3.34 1.148 5.26 1.148 1.03 0 1.83-.15 2.41-.448.6-.318.9-.756.9-1.316 0-.486-.21-.85-.62-1.092-.41-.262-1.01-.392-1.79-.392h-3.08v-2.716h2.69c.76 0 1.35-.122 1.76-.364.41-.243.62-.598.62-1.064 0-.486-.26-.859-.79-1.12-.5-.262-1.23-.392-2.18-.392-1.46 0-3.04.345-4.76 1.036l-1.06-3.024c2.09-.915 4.12-1.372 6.1-1.372 1.36 0 2.58.168 3.64.504 1.08.336 1.93.83 2.55 1.484.61.634.92 1.381.92 2.24 0 .709-.21 1.353-.64 1.932-.43.56-1.02 1.008-1.77 1.344zm17.52-.028c1.77.597 2.66 1.792 2.66 3.584 0 1.362-.52 2.417-1.54 3.164-1.03.746-2.56 1.12-4.59 1.12h-8.04v-15.064h7.7c1.88 0 3.36.345 4.42 1.036 1.07.672 1.6 1.624 1.6 2.856 0 .746-.2 1.409-.59 1.988-.37.56-.91.998-1.62 1.316zm-7.51-1.008h3.31c1.53 0 2.29-.542 2.29-1.624 0-1.064-.76-1.596-2.29-1.596h-3.31v3.22zm3.67 5.908c1.61 0 2.41-.551 2.41-1.652 0-.579-.19-.999-.56-1.26-.37-.28-.96-.42-1.76-.42h-3.76v3.332h3.67zm9.75-12.096h4.34v8.96l7.33-8.96h4.01v15.064h-4.34v-8.96l-7.31 8.96h-4.03v-15.064zm32.53 3.584h-5.09v11.48h-4.34v-11.48h-5.1v-3.584h14.53v3.584zm2.33-3.584h4.34v8.96l7.34-8.96h4v15.064h-4.34v-8.96l-7.31 8.96h-4.03v-15.064zm34.52 7.588c0 .056-.02.448-.08 1.176h-11.4c.21.933.69 1.67 1.46 2.212.76.541 1.72.812 2.86.812.78 0 1.47-.112 2.07-.336a5.358 5.358 0 0 0 1.71-1.12l2.32 2.52c-1.42 1.624-3.49 2.436-6.22 2.436-1.7 0-3.2-.327-4.5-.98-1.31-.672-2.32-1.596-3.03-2.772-.71-1.176-1.06-2.511-1.06-4.004 0-1.475.34-2.8 1.03-3.976a7.322 7.322 0 0 1 2.89-2.772c1.23-.672 2.6-1.008 4.11-1.008 1.48 0 2.81.317 4.01.952a6.843 6.843 0 0 1 2.8 2.744c.69 1.176 1.03 2.548 1.03 4.116zm-7.81-4.508c-.99 0-1.82.28-2.49.84-.67.56-1.08 1.325-1.23 2.296h7.42c-.15-.952-.56-1.708-1.23-2.268-.68-.579-1.5-.868-2.47-.868zm-114.03 31.956c1.43 0 2.69.298 3.78.896 1.08.578 1.91 1.4 2.49 2.464.6 1.064.9 2.296.9 3.696 0 1.437-.36 2.716-1.07 3.836-.69 1.101-1.66 1.96-2.91 2.576-1.25.597-2.67.896-4.26.896-2.63 0-4.7-.84-6.21-2.52-1.5-1.699-2.24-4.182-2.24-7.448 0-3.024.65-5.432 1.96-7.224 1.32-1.811 3.35-2.996 6.07-3.556l7.17-1.428.59 3.752-6.33 1.26c-1.72.336-2.99.896-3.83 1.68-.83.784-1.31 1.894-1.46 3.332a6.479 6.479 0 0 1 2.35-1.624c.92-.392 1.91-.588 3-.588zm-1.04 10.976c1.12 0 2.02-.364 2.69-1.092.69-.728 1.04-1.652 1.04-2.772 0-1.139-.35-2.044-1.04-2.716-.67-.672-1.57-1.008-2.69-1.008-1.14 0-2.05.336-2.74 1.008-.69.672-1.04 1.577-1.04 2.716 0 1.138.36 2.072 1.07 2.8.7.709 1.61 1.064 2.71 1.064zm11.17-12.012h4.34v8.96l7.34-8.96h4v15.064h-4.34v-8.96l-7.31 8.96h-4.03v-15.064zm29.51 7.224c.9.28 1.59.709 2.08 1.288.5.578.75 1.269.75 2.072 0 .952-.33 1.792-.98 2.52-.65.709-1.55 1.26-2.69 1.652-1.14.392-2.42.588-3.86.588-1.18 0-2.33-.122-3.47-.364-1.14-.243-2.2-.607-3.17-1.092l1.18-3.052c1.59.765 3.34 1.148 5.26 1.148 1.03 0 1.83-.15 2.41-.448.6-.318.9-.756.9-1.316 0-.486-.21-.85-.62-1.092-.41-.262-1.01-.392-1.79-.392h-3.08v-2.716h2.69c.76 0 1.35-.122 1.76-.364.41-.243.62-.598.62-1.064 0-.486-.26-.859-.79-1.12-.5-.262-1.23-.392-2.18-.392-1.46 0-3.04.345-4.76 1.036l-1.06-3.024c2.09-.915 4.12-1.372 6.1-1.372 1.36 0 2.58.168 3.64.504 1.08.336 1.93.83 2.55 1.484.61.634.92 1.381.92 2.24 0 .709-.21 1.353-.64 1.932-.43.56-1.02 1.008-1.77 1.344zm6.01-7.224h4.34v5.88h6.55v-5.88h4.37v15.064H1731v-5.628h-6.55v5.628h-4.34v-15.064zm34.08 7.588c0 .056-.02.448-.08 1.176h-11.4c.21.933.69 1.67 1.46 2.212.77.541 1.72.812 2.86.812.78 0 1.47-.112 2.07-.336a5.358 5.358 0 0 0 1.71-1.12l2.32 2.52c-1.42 1.624-3.49 2.436-6.22 2.436-1.69 0-3.2-.327-4.5-.98-1.31-.672-2.32-1.596-3.03-2.772-.71-1.176-1.06-2.511-1.06-4.004 0-1.475.34-2.8 1.03-3.976a7.322 7.322 0 0 1 2.89-2.772c1.23-.672 2.6-1.008 4.11-1.008 1.48 0 2.81.317 4.01.952a6.843 6.843 0 0 1 2.8 2.744c.69 1.176 1.03 2.548 1.03 4.116zm-7.81-4.508c-.99 0-1.82.28-2.49.84-.67.56-1.08 1.325-1.23 2.296h7.42c-.15-.952-.56-1.708-1.23-2.268-.68-.579-1.5-.868-2.47-.868zm18.33 12.208c-1.61 0-3.05-.327-4.34-.98-1.27-.672-2.27-1.596-3-2.772-.71-1.176-1.06-2.511-1.06-4.004 0-1.494.35-2.828 1.06-4.004.73-1.176 1.73-2.091 3-2.744 1.29-.672 2.73-1.008 4.34-1.008 1.59 0 2.97.336 4.14 1.008 1.2.653 2.07 1.596 2.61 2.828l-3.39 1.82c-.78-1.382-1.91-2.072-3.39-2.072-1.14 0-2.08.373-2.83 1.12-.74.746-1.12 1.764-1.12 3.052s.38 2.305 1.12 3.052c.75.746 1.69 1.12 2.83 1.12 1.5 0 2.62-.691 3.39-2.072l3.39 1.848c-.54 1.194-1.41 2.128-2.61 2.8-1.17.672-2.55 1.008-4.14 1.008zm15.25-15.512c2.34 0 4.13.56 5.38 1.68 1.25 1.101 1.88 2.772 1.88 5.012v8.596h-4.09v-1.876c-.82 1.4-2.35 2.1-4.59 2.1-1.16 0-2.17-.196-3.03-.588-.84-.392-1.48-.934-1.93-1.624-.45-.691-.67-1.475-.67-2.352 0-1.4.52-2.502 1.57-3.304 1.06-.803 2.69-1.204 4.9-1.204h3.47c0-.952-.29-1.68-.87-2.184-.58-.523-1.45-.784-2.6-.784-.81 0-1.6.13-2.38.392-.77.242-1.42.578-1.96 1.008l-1.57-3.052c.82-.579 1.8-1.027 2.94-1.344 1.16-.318 2.34-.476 3.55-.476zm-.33 12.572c.75 0 1.41-.168 1.99-.504.58-.355.99-.868 1.23-1.54v-1.54h-3c-1.79 0-2.69.588-2.69 1.764 0 .56.22 1.008.65 1.344.45.317 1.05.476 1.82.476zm-253.88-186.79h1.78v9.72l7.45-9.72h1.66v12.6h-1.76v-9.702l-7.47 9.702h-1.66v-12.6zm14.53 3.06h1.73v4.05h5.43v-4.05h1.73v9.54h-1.73v-3.996h-5.43v3.996h-1.73v-9.54zm19.36 1.512h-3.49v8.028h-1.73v-8.028h-3.49v-1.512h8.71v1.512zm9.97 3.312c0 .132-.01.306-.04.522h-7.74c.11.84.48 1.518 1.1 2.034.64.504 1.42.756 2.36.756 1.14 0 2.06-.384 2.75-1.152l.96 1.116c-.44.504-.98.888-1.62 1.152-.64.264-1.35.396-2.15.396-1 0-1.9-.204-2.68-.612a4.607 4.607 0 0 1-1.82-1.746c-.42-.744-.63-1.584-.63-2.52 0-.924.21-1.758.62-2.502.42-.744.99-1.32 1.71-1.728.73-.42 1.55-.63 2.46-.63.91 0 1.72.21 2.43.63.72.408 1.28.984 1.68 1.728.4.744.61 1.596.61 2.556zm-4.72-3.456c-.83 0-1.52.252-2.09.756-.55.504-.87 1.164-.97 1.98h6.12c-.09-.804-.42-1.458-.99-1.962-.55-.516-1.24-.774-2.07-.774zm14.42.144h-5.29v8.028h-1.73v-9.54h7.02v1.512zm6.83-1.602c.92 0 1.75.204 2.48.612.73.408 1.3.978 1.71 1.71.42.732.63 1.578.63 2.538 0 .96-.21 1.812-.63 2.556a4.366 4.366 0 0 1-1.71 1.71c-.73.408-1.56.612-2.48.612-.69 0-1.32-.132-1.89-.396a3.837 3.837 0 0 1-1.44-1.152v4.932h-1.73v-13.032h1.65v1.512a3.63 3.63 0 0 1 1.46-1.188 4.545 4.545 0 0 1 1.95-.414zm-.15 8.226c.61 0 1.16-.138 1.64-.414.49-.288.88-.684 1.15-1.188.29-.516.43-1.104.43-1.764 0-.66-.14-1.242-.43-1.746a2.865 2.865 0 0 0-1.15-1.188c-.48-.276-1.03-.414-1.64-.414-.6 0-1.14.144-1.64.432-.48.276-.86.666-1.15 1.17-.27.504-.41 1.086-.41 1.746 0 .66.14 1.248.41 1.764.28.504.66.9 1.15 1.188.5.276 1.04.414 1.64.414zm10.79-8.226c1.32 0 2.33.324 3.03.972.71.648 1.06 1.614 1.06 2.898v5.76h-1.64v-1.26c-.29.444-.7.786-1.24 1.026-.53.228-1.16.342-1.89.342-1.07 0-1.93-.258-2.57-.774-.64-.516-.96-1.194-.96-2.034 0-.84.31-1.512.92-2.016.61-.516 1.58-.774 2.92-.774h2.73v-.342c0-.744-.21-1.314-.65-1.71-.43-.396-1.06-.594-1.9-.594-.57 0-1.12.096-1.66.288-.54.18-1 .426-1.37.738l-.72-1.296c.49-.396 1.08-.696 1.77-.9a7.158 7.158 0 0 1 2.17-.324zm-.39 8.406c.66 0 1.23-.144 1.71-.432.48-.3.83-.72 1.04-1.26v-1.332h-2.66c-1.47 0-2.2.492-2.2 1.476 0 .48.19.858.56 1.134.37.276.89.414 1.55.414zm17.78-.288v3.798h-1.64v-2.286h-8.55v-9.54h1.73v8.028h5.22v-8.028h1.73v8.028h1.51zm2.24-8.028h1.73v6.948l5.85-6.948h1.56v9.54h-1.72v-6.948l-5.84 6.948h-1.58v-9.54zm20.15 0v9.54h-1.55v-3.024h-2.97l-2.09 3.024h-1.85l2.32-3.258c-.72-.216-1.27-.57-1.66-1.062-.38-.504-.57-1.128-.57-1.872 0-1.092.37-1.92 1.11-2.484.75-.576 1.77-.864 3.08-.864h4.18zm-6.61 3.402c0 .636.2 1.11.6 1.422.4.3 1.01.45 1.81.45h2.65v-3.762h-2.57c-1.66 0-2.49.63-2.49 1.89zm-147.28 279.444v12.6h-1.77v-11.034h-7.31v11.034h-1.78v-12.6h10.86zm8.7 2.97c.92 0 1.75.204 2.48.612.73.408 1.3.978 1.71 1.71.42.732.63 1.578.63 2.538 0 .96-.21 1.812-.63 2.556a4.366 4.366 0 0 1-1.71 1.71c-.73.408-1.56.612-2.48.612-.69 0-1.32-.132-1.89-.396a3.837 3.837 0 0 1-1.44-1.152v4.932h-1.73v-13.032h1.65v1.512a3.63 3.63 0 0 1 1.46-1.188 4.545 4.545 0 0 1 1.95-.414zm-.15 8.226c.61 0 1.16-.138 1.64-.414.49-.288.88-.684 1.15-1.188.29-.516.43-1.104.43-1.764 0-.66-.14-1.242-.43-1.746a2.865 2.865 0 0 0-1.15-1.188c-.48-.276-1.03-.414-1.64-.414-.6 0-1.14.144-1.64.432-.48.276-.86.666-1.15 1.17-.27.504-.41 1.086-.41 1.746 0 .66.14 1.248.41 1.764.28.504.66.9 1.15 1.188.5.276 1.04.414 1.64.414zm11.57 1.512c-.95 0-1.8-.21-2.56-.63a4.606 4.606 0 0 1-1.78-1.728c-.42-.744-.63-1.584-.63-2.52 0-.936.21-1.77.63-2.502a4.444 4.444 0 0 1 1.78-1.728c.76-.42 1.61-.63 2.56-.63.94 0 1.79.21 2.53.63.76.408 1.35.984 1.77 1.728.43.732.65 1.566.65 2.502 0 .936-.22 1.776-.65 2.52a4.513 4.513 0 0 1-1.77 1.728c-.74.42-1.59.63-2.53.63zm0-1.512c.61 0 1.15-.138 1.63-.414.5-.288.88-.684 1.16-1.188.27-.516.41-1.104.41-1.764 0-.66-.14-1.242-.41-1.746a2.888 2.888 0 0 0-1.16-1.188 3.202 3.202 0 0 0-1.63-.414c-.62 0-1.17.138-1.66.414a3.06 3.06 0 0 0-1.15 1.188c-.28.504-.42 1.086-.42 1.746 0 .66.14 1.248.42 1.764.29.504.67.9 1.15 1.188.49.276 1.04.414 1.66.414zm17.07-.108v3.726h-1.62v-2.214h-7.97v2.214h-1.64v-3.726h.5c.62-.036 1.04-.468 1.26-1.296.23-.828.39-1.998.47-3.51l.15-3.222h7.39v8.028h1.46zm-7.41-4.68c-.05 1.2-.15 2.196-.31 2.988-.14.78-.41 1.344-.81 1.692h5.35v-6.516h-4.14l-.09 1.836zm16.16 1.242c1.24.312 1.86 1.086 1.86 2.322 0 .84-.32 1.488-.96 1.944-.62.456-1.56.684-2.81.684h-4.59v-9.54h4.43c1.13 0 2.01.216 2.65.648.63.42.95 1.02.95 1.8 0 .504-.14.942-.41 1.314-.27.36-.64.636-1.12.828zm-4.8-.486h2.59c.66 0 1.16-.12 1.49-.36.35-.24.52-.588.52-1.044 0-.912-.67-1.368-2.01-1.368h-2.59v2.772zm2.77 4.104c.72 0 1.26-.114 1.62-.342.36-.228.54-.582.54-1.062 0-.492-.17-.858-.51-1.098-.32-.24-.84-.36-1.54-.36h-2.88v2.862h2.77zm6.59-8.208h1.73v6.948l5.85-6.948h1.56v9.54h-1.72v-6.948l-5.84 6.948h-1.58v-9.54zm21.17 5.508h-1.85v4.032h-1.73v-4.032h-1.85l-2.63 4.032h-2.05l3.27-4.932-3.02-4.608h1.84l2.57 4.032h1.87v-4.032h1.73v4.032h1.87l2.58-4.032h1.85l-3.02 4.626 3.27 4.914h-2.05l-2.65-4.032zm14.91-.684c0 .132-.01.306-.04.522h-7.74c.11.84.48 1.518 1.1 2.034.64.504 1.42.756 2.36.756 1.14 0 2.06-.384 2.75-1.152l.96 1.116c-.43.504-.97.888-1.62 1.152-.64.264-1.35.396-2.14.396-1.01 0-1.91-.204-2.69-.612a4.516 4.516 0 0 1-1.81-1.746c-.42-.744-.63-1.584-.63-2.52 0-.924.2-1.758.61-2.502.42-.744.99-1.32 1.71-1.728.73-.42 1.55-.63 2.46-.63.92 0 1.73.21 2.43.63.72.408 1.28.984 1.68 1.728.41.744.61 1.596.61 2.556zm-4.72-3.456c-.82 0-1.52.252-2.08.756s-.88 1.164-.98 1.98h6.12c-.09-.804-.42-1.458-.99-1.962-.55-.516-1.24-.774-2.07-.774zm7.4-1.368h1.73v4.05h5.43v-4.05h1.73v9.54h-1.73v-3.996h-5.43v3.996h-1.73v-9.54zm12.25 0h1.73v6.948l5.85-6.948h1.57v9.54h-1.73v-6.948l-5.83 6.948h-1.59v-9.54zm21.12 4.824c0 .132-.01.306-.03.522h-7.74c.1.84.47 1.518 1.09 2.034.64.504 1.43.756 2.36.756 1.14 0 2.06-.384 2.76-1.152l.95 1.116c-.43.504-.97.888-1.62 1.152-.64.264-1.35.396-2.14.396-1.01 0-1.9-.204-2.68-.612a4.542 4.542 0 0 1-1.82-1.746c-.42-.744-.63-1.584-.63-2.52 0-.924.2-1.758.61-2.502.42-.744.99-1.32 1.71-1.728.73-.42 1.55-.63 2.47-.63.91 0 1.72.21 2.43.63.72.408 1.27.984 1.67 1.728.41.744.61 1.596.61 2.556zm-4.71-3.456c-.83 0-1.53.252-2.09.756-.55.504-.88 1.164-.97 1.98h6.12c-.1-.804-.43-1.458-.99-1.962-.56-.516-1.25-.774-2.07-.774z" fill="#fff"/></svg>