<svg width="1634" height="1738" fill="none" xmlns="http://www.w3.org/2000/svg"><path fill="#D4EDE9" d="M-184.447 1306.4L1009.92 112.033l431.588 431.588L247.141 1737.988z"/><path fill="#D4EDE9" d="M-399.741 1091.11L541.369 150l478.997 478.997-941.11 941.11z"/><mask id="a" maskUnits="userSpaceOnUse" x="220" y="14" width="1151" height="593"><path fill="#fff" d="M220 14.001h1151v592H220z"/></mask><g mask="url(#a)"><path d="M775.95 52.72l595.24 595.237-852.065 852.063-595.238-595.237L775.95 52.719z" fill="#00947E"/></g><path d="M975.302 61.293c.299-10.605-8.092-19.093-18.68-19.154.765-8.158-7.635-14.157-14.962-10.604 3.105-13.97-7.438-27.33-21.425-30.031-15.771-3.058-30.664 5.972-38.835 18.923-5.052 7.998-7.644 17.223-8.685 26.54-5.382-3.99-12.793-5.049-18.952-2.09-6.528 3.118-10.714 10.452-9.721 17.56.035.222.197.313.395.313l.026.23c-.72.078-1.432.17-2.143.286-.062.009-.062.118 0 .126 5.06.829 10.407.507 15.512.533 5.57.035 11.127.061 16.68.087 11.128.044 22.242.044 33.369.061 22.243.035 44.524.382 66.736-.473.351-.017.351-.525 0-.533-.11 0-.207-.009-.317-.009l.044-.872c.457-.004.932-.299.958-.893z" fill="#CCE4F3" fill-opacity=".6"/><path d="M810.714 672.195c6.012 2.004 7.165-7.792 8.843-13.048-1.066 1.368-2.553 2.997-2.982.651-.62-3.435 1.16-10.654 3.792-12.578-1.717-.994-4.19-1.447-5.907-1.598-2.21-.183-5.551 25.969-3.746 26.573z" fill="#30193B"/><path d="M816.581 659.807c.43 2.346 1.957 3.196 2.855-.215.819-3.061 2.163-4.349 2.473-4.89.438-.763 4.89-4.134 5.621-4.381.692-.23-.676-5.701-1.288-5.049-2.95 3.03-5.55 2.131-5.868 1.956-2.632 1.924-4.413 9.144-3.793 12.579z" fill="#F9879A"/><path opacity=".1" d="M1400 682.071c0 8.491-143.68 15.412-320.94 15.412-177.284 0-321.084-6.921-321.084-15.412 0-8.522 143.8-15.428 321.084-15.428 177.26-.008 320.94 6.906 320.94 15.428z" fill="#2E2D42"/><path d="M915.845 391.944c-20.283 22.335.589 133.106.589 133.106s-92.458 121.337-92.203 122.005l1.741 13.015c.405 1.042 98.834-80.276 129.24-109.903 18.995-18.526 36.886-129.502 50.638-165.204 6.37-16.53-76.623-7.737-90.005 6.981z" fill="#201F2A"/><path d="M1134.29 677.403c-1.54-5.606-10.48-1.494-15.75.096 1.72.111 3.91.405 2.22 2.083-2.48 2.457-9.45 5.081-12.52 4.008.15 1.988 1.18 4.269 2.03 5.78 1.1 1.916 24.52-10.138 24.02-11.967z" fill="#30193B"/><path d="M1120.76 679.574c1.69-1.678 1.53-3.42-1.81-2.219-2.98 1.058-5.77 1.288-6.37 1.352-1.62.127-3.23-1.662-3.23-1.662l-2.58 1.845s1.42 4.119 1.47 4.692c3.07 1.073 10.04-1.551 12.52-4.008z" fill="#FF97A6"/><path d="M909.914 437.561c7.268 29.277 83.584 93.261 83.584 93.261s111.982 150.749 114.022 149.882l6.94-4.285c.62-.263-54.24-122.093-71.6-166.437-12.87-32.863-54.284-104.178-52.59-100.926 0 0-1.106-32.243-4.62-35.94-7.864-.111-29.395-17.629-53.003.063-22.955 17.199-26.064 50.992-22.733 64.382z" fill="#2E2D42"/><path d="M935.239 283.608c15.545-18.479 76.081-13.079 87.851 5.018 12.66 19.488-16.89 94.811-16.89 94.811s-7.462 2.313-20.645.341c-17.708-2.671-50.396-12.253-50.396-12.253s-4.19-82.852.08-87.917z" fill="#FFE5B0"/><path d="M961.646 273.89c-7.283.525-25.858 1.892-39.2 17.858-12.07 14.456-31.178 41.252-29.723 63.563 1.074 16.491 24.197-11.147 24.197-11.147l26.31-39.916c-.007 0 26.471-30.922 18.416-30.358z" fill="#FFD599"/><path d="M977.992 272.254s-10.44 23.091-3.864 68.413c1.058 7.252 15.172 43.573 15.172 43.573s-19.942-2.17-31.504-5.391c-17.572-4.89-24.498-5.422-23.599-8.372l-.676-65.535s-2.179-20.92 3.586-24.013c2.298-1.24 8.937-5.478 15.974-7.037 10.639-2.313 22.565-1.789 24.911-1.638z" fill="#FFD599"/><path d="M999.509 253.67s-8.476 17.859-7.856 20.347c.628 2.489 4.477 6.679 8.647 2.823 4.18-3.832 6.54-20.984 6.54-20.984l-7.331-2.186z" fill="#FF97A6"/><path d="M1001.24 247.628s-7.384 17.889-8.012 20.235c-.485 1.789 8.522 5.821 9.792 3.698 2.82-4.675 5.55-21.723 5.55-21.723l-7.33-2.21z" fill="#C95D77"/><path d="M1017.91 263.403c1.22-1.336 2.93-7.3 4.19-12.349 1.05-4.175-1.57-8.389-5.77-9.335-6.52-1.463-13.81-2.688-16.08-1.972-3.555 1.121-4.843 5.423-5.877 8.603-1.033 3.165-1.741 9.224-.572 12.468 1.065 2.966 5.59 6.615 8.529 7.411 8.82 2.361 11.98.811 15.58-4.826z" fill="#FF97A6"/><path d="M1131.91 319.635c-11.07-2.918-54.4-21.635-54.4-21.635s-50.13 6.258-62.88 6.432c-5.87.08-12.23-.588-12.23-.588-6.255-.572 9.01.08 1.1-12.61 12.86-4.596 8.22-6.353 6.86-5.248 11.55-2.131 34.9 1.845 59.36-1.288 14.32-1.829 37.6-9.828 58.62-8.818 29.3 1.399 20.96 27.702 21.7 36.48.14 1.583-.56 3.109-1.83 4.071-2.87 2.123-8.66 5.24-16.3 3.204z" fill="#FFE5B0"/><path d="M1150.77 293.22s9.13-5.344 12.27-3.261c3.15 2.099 8.77 4.549 8.24 6.123-.51 1.582-3.81-.914-3.81-.914s3.49 2.218 3.49 2.997c0 .795-1.26.668-1.26.668s.57-.454-.34.588c-.92 1.057-8.02-2.409-9.6-3.061-1.6-.652-5.96.064-9.22-1.105-1.22-.421-2.11 0 .23-2.035z" fill="#FFA9BA"/><path fill="#2E338B" d="M1113.05 215.176l186.976 186.976-186.976 186.976-186.976-186.976z"/><path d="M947.992 428.816c-.31.668 1.63 2.814 2.068 3.291 1.097 1.24 2.95 4.318 5.001 6.68 0 0 1.137 2.003 4.5 3.259 1.161.422 6.028.16 6.894-.85.875-.994-3.697-2.934-4.651-3.976-1.455-1.55-2.385-3.665-2.807-6.178 0 0 2.545.867 2.608-.159.064-1.026-4.866-3.03-6.568-2.545 0 0-1.956-.158-2.87-.524-.636-.27-3.602-.191-4.175 1.002z" fill="#FFA9BA"/><path d="M892.819 349.156c-6.433 15.235 26.549 84.936 51.389 82.495 9.232-.914 11.736-7.967 11.736-7.967l-38.596-83.671c-.008 0-17.286-8.031-24.529 9.143z" fill="#FFD599"/><path d="M1005.34 240.185s17.46 12.238 31.76-.182c14.3-12.428 7.88-25.564 7.88-25.564s-4.78 9.986-10.52 11.68c0 0 1.55-6.679.27-8.746 0 0-4.27 7.188-9.94 7.919-5.68.732-21.81-12.84-28.668-3.927-6.87 8.897 9.218 18.82 9.218 18.82z" fill="#6B4300"/><path d="M997.035 223.631c-.357-.279-9.382-.326-10.44 6.416-1.065 6.727 6.608 26.447 6.608 26.447s6.385-16.07 12.137-16.308c5.75-.239-8.305-16.555-8.305-16.555z" fill="#A76A02"/><path fill="#F8991D" d="M1308.02 189.075l102.6 102.6-102.6 102.6-102.6-102.6z"/><path fill="#007AC1" d="M1452.56 265.931l181.044 181.044L1452.56 628.02l-181.044-181.044z"/><path fill="#CF1E63" d="M1262.5 459.77l115.408 115.408L1262.5 690.587l-115.408-115.409z"/><path d="M1025.18 446.926h-2.47v4.945h-1.1v-10.784h1.1v4.838h2.47l3.65-4.838h1.23l-4 5.238 4.23 5.546h-1.31l-3.8-4.945zm9.86 5.022c-.78 0-1.49-.175-2.11-.524a3.907 3.907 0 0 1-1.48-1.479c-.36-.626-.54-1.335-.54-2.126 0-.79.18-1.499.54-2.126.36-.626.85-1.114 1.48-1.463.62-.349 1.33-.524 2.11-.524.78 0 1.48.175 2.11.524.62.349 1.11.837 1.46 1.463.36.627.54 1.336.54 2.126 0 .791-.18 1.5-.54 2.126-.35.627-.84 1.12-1.46 1.479-.63.349-1.33.524-2.11.524zm0-.971c.57 0 1.09-.128 1.54-.385.46-.267.82-.642 1.08-1.124.25-.483.38-1.032.38-1.649 0-.616-.13-1.165-.38-1.648a2.71 2.71 0 0 0-1.08-1.109 2.977 2.977 0 0 0-1.54-.401c-.58 0-1.1.134-1.56.401a2.84 2.84 0 0 0-1.08 1.109 3.534 3.534 0 0 0-.38 1.648c0 .617.13 1.166.38 1.649.27.482.63.857 1.08 1.124.46.257.98.385 1.56.385zm15.51-7.209v8.103h-1.01v-6.409l-3.28 5.423h-.49l-3.28-5.438v6.424h-1v-8.103h1.11l3.43 5.838 3.5-5.838h1.02zm10.38 0v8.103h-1.09v-7.133h-5.09v7.133h-1.09v-8.103h7.27zm5.9-.062c1.06 0 1.87.267 2.43.801.57.524.85 1.305.85 2.342v5.022h-1.05v-1.263a2.53 2.53 0 0 1-1.09.986c-.47.236-1.04.354-1.7.354-.9 0-1.62-.216-2.15-.647-.54-.431-.8-1.001-.8-1.71 0-.688.24-1.243.73-1.664.51-.421 1.3-.631 2.39-.631h2.58v-.493c0-.699-.2-1.228-.59-1.587-.39-.37-.96-.555-1.71-.555-.51 0-1.01.088-1.48.262-.47.165-.88.396-1.22.693l-.49-.816c.41-.349.9-.616 1.48-.801a5.6 5.6 0 0 1 1.82-.293zm-.39 7.379c.62 0 1.15-.138 1.59-.416.44-.287.77-.698.99-1.232v-1.325h-2.55c-1.38 0-2.08.483-2.08 1.448 0 .473.18.847.54 1.125.36.267.87.4 1.51.4zm6.58-7.317h1.09v3.589h5.1v-3.589h1.1v8.103h-1.1v-3.574h-5.1v3.574h-1.09v-8.103zm10.4 0h1.09v6.439l5.41-6.439h.97v8.103h-1.1v-6.439l-5.39 6.439h-.98v-8.103zm10.6 0h1.1v6.439l5.4-6.439h.97v8.103h-1.09v-6.439l-5.39 6.439h-.99v-8.103zm3.68-1.171c-.69 0-1.25-.175-1.66-.524-.41-.349-.62-.842-.63-1.479h.78c.01.401.16.724.44.971.27.236.63.354 1.07.354.45 0 .81-.118 1.08-.354.29-.247.44-.57.45-.971h.78c-.01.637-.22 1.13-.64 1.479-.41.349-.97.524-1.67.524zm18.23 1.171v8.103h-1.09v-7.133h-5.09v7.133h-1.09v-8.103h7.27zm5.9-.062c1.06 0 1.87.267 2.43.801.57.524.85 1.305.85 2.342v5.022h-1.05v-1.263c-.24.421-.61.749-1.09.986-.47.236-1.04.354-1.7.354-.9 0-1.62-.216-2.15-.647-.54-.431-.8-1.001-.8-1.71 0-.688.24-1.243.74-1.664.5-.421 1.3-.631 2.38-.631h2.58v-.493c0-.699-.2-1.228-.59-1.587-.39-.37-.96-.555-1.71-.555-.51 0-1.01.088-1.48.262-.47.165-.88.396-1.21.693l-.5-.816c.41-.349.91-.616 1.48-.801a5.643 5.643 0 0 1 1.82-.293zm-.39 7.379c.62 0 1.15-.138 1.59-.416.44-.287.77-.698.99-1.232v-1.325h-2.55c-1.38 0-2.07.483-2.07 1.448 0 .473.17.847.53 1.125.36.267.87.4 1.51.4zm10.76-7.379c.76 0 1.45.175 2.06.524.62.339 1.1.822 1.45 1.448.35.627.52 1.34.52 2.141 0 .812-.17 1.531-.52 2.157a3.732 3.732 0 0 1-1.45 1.464c-.6.339-1.29.508-2.06.508-.66 0-1.26-.134-1.79-.401a3.395 3.395 0 0 1-1.29-1.201v4.514h-1.1v-11.092h1.05v1.602c.33-.534.76-.945 1.29-1.232a3.896 3.896 0 0 1 1.84-.432zm-.08 7.271c.56 0 1.08-.128 1.54-.385.46-.267.82-.642 1.08-1.124.27-.483.4-1.032.4-1.649 0-.616-.13-1.16-.4-1.633a2.817 2.817 0 0 0-1.08-1.124 3.03 3.03 0 0 0-1.54-.401c-.58 0-1.09.134-1.56.401-.45.267-.81.642-1.07 1.124-.26.473-.39 1.017-.39 1.633 0 .617.13 1.166.39 1.649.26.482.62.857 1.07 1.124.47.257.98.385 1.56.385zm11.86-6.239h-3.06v7.133h-1.1v-7.133h-3.06v-.97h7.22v.97zm1.58-.97h1.1v3.589h5.1v-3.589h1.09v8.103h-1.09v-3.574h-5.1v3.574h-1.1v-8.103zm17.49 4.39h-6.78c.06.842.38 1.525.97 2.049.58.514 1.32.77 2.22.77.5 0 .96-.087 1.38-.261.42-.185.79-.452 1.1-.801l.61.708c-.36.431-.81.76-1.35.986a4.54 4.54 0 0 1-1.77.339c-.84 0-1.58-.175-2.22-.524a3.89 3.89 0 0 1-1.5-1.479c-.36-.626-.54-1.335-.54-2.126 0-.79.17-1.499.51-2.126.35-.626.82-1.114 1.42-1.463a3.998 3.998 0 0 1 2.03-.524c.75 0 1.43.175 2.02.524.6.349 1.06.837 1.4 1.463.34.617.51 1.325.51 2.126l-.01.339zm-3.92-3.512c-.78 0-1.44.252-1.97.755-.52.493-.82 1.14-.89 1.941h5.74c-.07-.801-.37-1.448-.91-1.941-.52-.503-1.18-.755-1.97-.755zm10.53-.94c.76 0 1.45.175 2.06.524.62.339 1.1.822 1.45 1.448.35.627.52 1.34.52 2.141 0 .812-.17 1.531-.52 2.157a3.732 3.732 0 0 1-1.45 1.464c-.6.339-1.29.508-2.06.508-.66 0-1.26-.134-1.79-.401a3.395 3.395 0 0 1-1.29-1.201v4.514h-1.1v-11.092h1.05v1.602c.33-.534.76-.945 1.29-1.232a3.896 3.896 0 0 1 1.84-.432zm-.08 7.271c.56 0 1.08-.128 1.54-.385.46-.267.82-.642 1.08-1.124.27-.483.4-1.032.4-1.649 0-.616-.13-1.16-.4-1.633a2.817 2.817 0 0 0-1.08-1.124 3.03 3.03 0 0 0-1.54-.401c-.58 0-1.09.134-1.56.401-.45.267-.81.642-1.07 1.124-.26.473-.39 1.017-.39 1.633 0 .617.13 1.166.39 1.649.26.482.62.857 1.07 1.124.47.257.98.385 1.56.385zm9.81.971c-.78 0-1.49-.175-2.11-.524a3.907 3.907 0 0 1-1.48-1.479c-.36-.626-.54-1.335-.54-2.126 0-.79.18-1.499.54-2.126.36-.626.85-1.114 1.48-1.463.62-.349 1.33-.524 2.11-.524.78 0 1.48.175 2.11.524.62.349 1.11.837 1.46 1.463.36.627.54 1.336.54 2.126 0 .791-.18 1.5-.54 2.126-.35.627-.84 1.12-1.46 1.479-.63.349-1.33.524-2.11.524zm0-.971c.57 0 1.08-.128 1.54-.385a2.73 2.73 0 0 0 1.07-1.124c.26-.483.39-1.032.39-1.649 0-.616-.13-1.165-.39-1.648a2.627 2.627 0 0 0-1.07-1.109 3.003 3.003 0 0 0-1.54-.401c-.58 0-1.1.134-1.56.401a2.84 2.84 0 0 0-1.08 1.109 3.534 3.534 0 0 0-.38 1.648c0 .617.13 1.166.38 1.649.27.482.63.857 1.08 1.124.46.257.98.385 1.56.385zm11.61-3.296c1.1.257 1.65.919 1.65 1.987 0 .709-.27 1.253-.79 1.633-.52.38-1.3.57-2.34.57h-3.68v-8.103h3.57c.93 0 1.65.18 2.17.539.53.359.79.873.79 1.541 0 .441-.12.821-.37 1.14-.24.308-.57.539-1 .693zm-4.1-.308h2.43c.63 0 1.11-.118 1.44-.355.34-.236.5-.58.5-1.032 0-.452-.16-.791-.5-1.017-.33-.226-.81-.338-1.44-.338h-2.43v2.742zm2.57 3.635c.7 0 1.22-.113 1.57-.339.35-.226.53-.58.53-1.063 0-.482-.16-.837-.48-1.063-.32-.236-.82-.354-1.51-.354h-2.68v2.819h2.57zm-126.81-74.781v35.945h-8.32v-29.27h-7.19v-6.675h15.51zm34.65 0v35.945h-8.32v-29.27h-7.18v-6.675h15.5zm39.16 28.397h-5.85v7.548h-8.11v-7.548h-19.36v-5.597l16.94-22.8h8.73l-15.71 21.618h9.65v-6.726h7.86v6.726h5.85v6.779zm28.48-28.397v5.392l-13.36 30.553h-9.03l12.89-29.167h-11.92v5.854h-7.39v-12.632h28.81zm198.69 90.06v10.784h-1.12v-9.798h-6.83v9.798h-1.12v-10.784h9.07zm7.56 2.619c.76 0 1.44.174 2.06.524.62.339 1.1.821 1.45 1.448.35.626.52 1.34.52 2.141 0 .811-.17 1.53-.52 2.157a3.73 3.73 0 0 1-1.45 1.463c-.61.339-1.29.509-2.06.509-.66 0-1.26-.134-1.79-.401a3.43 3.43 0 0 1-1.3-1.201v4.513h-1.09v-11.091h1.05v1.602c.33-.534.76-.945 1.29-1.233a3.907 3.907 0 0 1 1.84-.431zm-.08 7.271c.56 0 1.08-.128 1.54-.385.46-.267.82-.642 1.08-1.125.26-.482.4-1.032.4-1.648 0-.616-.14-1.16-.4-1.633a2.811 2.811 0 0 0-1.08-1.124 3.03 3.03 0 0 0-1.54-.401c-.58 0-1.1.134-1.56.401a2.95 2.95 0 0 0-1.08 1.124c-.25.473-.38 1.017-.38 1.633 0 .616.13 1.166.38 1.648.27.483.63.858 1.08 1.125.46.257.98.385 1.56.385zm13.55-2.819h-6.78c.06.842.38 1.525.97 2.049.59.513 1.32.77 2.22.77.5 0 .96-.087 1.38-.262.43-.185.79-.452 1.1-.801l.61.709c-.35.431-.81.76-1.35.986-.53.226-1.13.339-1.77.339-.83 0-1.57-.175-2.22-.524a3.897 3.897 0 0 1-1.5-1.479c-.35-.626-.53-1.335-.53-2.126 0-.791.17-1.499.5-2.126.35-.626.83-1.114 1.42-1.463.61-.35 1.29-.524 2.03-.524.75 0 1.43.174 2.02.524.6.349 1.07.837 1.4 1.463.34.616.51 1.325.51 2.126l-.01.339zm-3.92-3.512c-.78 0-1.43.251-1.97.754-.52.493-.82 1.14-.89 1.942h5.75c-.08-.802-.38-1.449-.91-1.942-.53-.503-1.18-.754-1.98-.754zm14.09 6.27v2.911h-1.03v-1.956h-7.26v1.956h-1.03v-2.911h.46c.55-.031.92-.432 1.11-1.202.2-.77.33-1.849.4-3.235l.11-2.711h5.98v7.148h1.26zm-6.35-4.376c-.05 1.151-.14 2.101-.29 2.85-.14.74-.4 1.248-.77 1.526h5.05v-6.178h-3.89l-.1 1.802zm15.11-2.772v8.103h-1.1v-7.133h-3.88l-.11 2.003c-.08 1.684-.27 2.978-.58 3.882-.31.904-.86 1.356-1.65 1.356-.22 0-.48-.042-.79-.124l.08-.939c.19.041.31.061.39.061.42 0 .74-.195.95-.585.22-.39.36-.873.43-1.448s.14-1.335.19-2.28l.14-2.896h5.93zm5.9-.062c1.05 0 1.86.267 2.43.801.56.524.85 1.304.85 2.342v5.022h-1.05v-1.264c-.25.422-.61.75-1.09.986-.48.237-1.04.355-1.7.355-.9 0-1.62-.216-2.16-.647-.53-.432-.8-1.002-.8-1.71 0-.688.25-1.243.74-1.664.51-.421 1.3-.632 2.39-.632h2.57v-.493c0-.698-.19-1.227-.58-1.586-.39-.37-.96-.555-1.71-.555-.52 0-1.01.087-1.48.262-.47.164-.88.395-1.22.693l-.49-.816c.41-.35.9-.617 1.48-.801a5.573 5.573 0 0 1 1.82-.293zm-.39 7.379c.62 0 1.15-.139 1.59-.416.44-.287.77-.698.98-1.232v-1.325h-2.54c-1.39 0-2.08.482-2.08 1.448 0 .472.18.847.54 1.124.36.267.86.401 1.51.401zm12.31-6.347h-4.64v7.133h-1.09v-8.103h5.73v.97zm4.37-1.032c1.06 0 1.87.267 2.43.801.57.524.85 1.304.85 2.342v5.022h-1.05v-1.264c-.24.422-.61.75-1.09.986-.47.237-1.04.355-1.7.355-.9 0-1.62-.216-2.15-.647-.54-.432-.8-1.002-.8-1.71 0-.688.24-1.243.74-1.664.5-.421 1.29-.632 2.38-.632h2.58v-.493c0-.698-.2-1.227-.59-1.586-.39-.37-.96-.555-1.71-.555-.51 0-1.01.087-1.48.262-.47.164-.88.395-1.22.693l-.49-.816c.41-.35.91-.617 1.48-.801a5.616 5.616 0 0 1 1.82-.293zm-.39 7.379c.62 0 1.15-.139 1.59-.416.44-.287.77-.698.99-1.232v-1.325h-2.55c-1.38 0-2.08.482-2.08 1.448 0 .472.18.847.54 1.124.36.267.87.401 1.51.401zm13.67-2.927h-6.78c.06.842.38 1.525.97 2.049.59.513 1.32.77 2.22.77.5 0 .96-.087 1.38-.262.43-.185.79-.452 1.1-.801l.61.709c-.35.431-.81.76-1.35.986a4.54 4.54 0 0 1-1.77.339c-.83 0-1.57-.175-2.22-.524a3.897 3.897 0 0 1-1.5-1.479c-.35-.626-.53-1.335-.53-2.126 0-.791.16-1.499.5-2.126.35-.626.83-1.114 1.42-1.463.61-.35 1.28-.524 2.03-.524.75 0 1.43.174 2.02.524.6.349 1.07.837 1.4 1.463.34.616.51 1.325.51 2.126l-.01.339zm-3.92-3.512c-.78 0-1.43.251-1.97.754-.52.493-.82 1.14-.89 1.942h5.75c-.08-.802-.38-1.449-.91-1.942-.53-.503-1.18-.754-1.98-.754zm15.41-.878v8.103h-1v-6.409l-3.28 5.423h-.49l-3.28-5.438v6.424h-1.01v-8.103h1.11l3.44 5.838 3.5-5.838h1.01zm6.52 2.865c1.02.01 1.79.236 2.33.678.53.441.8 1.078.8 1.91 0 .863-.29 1.525-.87 1.987-.57.462-1.39.688-2.46.678l-3.21-.015v-8.103h1.1v2.834l2.31.031zm4.48-2.865h1.1v8.103h-1.1v-8.103zm-4.74 7.286c.75.01 1.31-.138 1.69-.447.39-.318.59-.78.59-1.386 0-.596-.19-1.037-.57-1.325-.38-.287-.95-.436-1.71-.447l-2.05-.03v3.604l2.05.031zm14.02.817l-2.57-3.389-2.59 3.389h-1.23l3.2-4.16-3.05-3.943h1.23l2.44 3.173 2.43-3.173h1.2l-3.05 3.943 3.24 4.16h-1.25zm11.25-8.165c.76 0 1.44.174 2.06.524.62.339 1.1.821 1.45 1.448.35.626.52 1.34.52 2.141 0 .811-.17 1.53-.52 2.157a3.73 3.73 0 0 1-1.45 1.463c-.61.339-1.29.509-2.06.509-.66 0-1.26-.134-1.79-.401a3.43 3.43 0 0 1-1.3-1.201v4.513h-1.09v-11.091h1.05v1.602c.33-.534.76-.945 1.29-1.233a3.907 3.907 0 0 1 1.84-.431zm-.08 7.271c.56 0 1.08-.128 1.54-.385.46-.267.82-.642 1.08-1.125.26-.482.4-1.032.4-1.648 0-.616-.14-1.16-.4-1.633a2.811 2.811 0 0 0-1.08-1.124 3.03 3.03 0 0 0-1.54-.401c-.58 0-1.1.134-1.56.401a2.95 2.95 0 0 0-1.08 1.124c-.25.473-.38 1.017-.38 1.633 0 .616.13 1.166.38 1.648.27.483.63.858 1.08 1.125.46.257.98.385 1.56.385zm13.55-2.819h-6.78c.06.842.39 1.525.97 2.049.59.513 1.33.77 2.22.77.5 0 .96-.087 1.39-.262.42-.185.78-.452 1.09-.801l.62.709c-.36.431-.82.76-1.36.986-.53.226-1.12.339-1.77.339-.83 0-1.57-.175-2.22-.524a3.805 3.805 0 0 1-1.49-1.479c-.36-.626-.54-1.335-.54-2.126 0-.791.17-1.499.5-2.126.35-.626.83-1.114 1.42-1.463.61-.35 1.29-.524 2.04-.524s1.42.174 2.01.524c.6.349 1.07.837 1.41 1.463.33.616.5 1.325.5 2.126l-.01.339zm-3.91-3.512c-.79 0-1.44.251-1.98.754-.52.493-.82 1.14-.89 1.942h5.75c-.08-.802-.38-1.449-.91-1.942-.53-.503-1.18-.754-1.97-.754zm17.53-.878v8.103h-11.19v-8.103h1.1v7.148h3.97v-7.148h1.1v7.148h3.93v-7.148h1.09zm10.21 4.39h-6.78c.06.842.39 1.525.97 2.049.59.513 1.33.77 2.22.77.5 0 .96-.087 1.39-.262.42-.185.78-.452 1.09-.801l.62.709c-.36.431-.82.76-1.36.986-.53.226-1.12.339-1.77.339-.83 0-1.57-.175-2.22-.524a3.805 3.805 0 0 1-1.49-1.479c-.36-.626-.54-1.335-.54-2.126 0-.791.17-1.499.5-2.126.35-.626.83-1.114 1.42-1.463.61-.35 1.29-.524 2.04-.524s1.42.174 2.01.524c.6.349 1.07.837 1.41 1.463.33.616.5 1.325.5 2.126l-.01.339zm-3.91-3.512c-.79 0-1.44.251-1.98.754-.52.493-.82 1.14-.89 1.942h5.75c-.08-.802-.38-1.449-.91-1.942-.53-.503-1.18-.754-1.97-.754zm6.34-.878h1.1v3.589h5.1v-3.589h1.09v8.103h-1.09v-3.574h-5.1v3.574h-1.1v-8.103zm10.4 0h1.09v6.439l5.41-6.439h.97v8.103h-1.09v-6.44l-5.39 6.44h-.99v-8.103zm10.61 0h1.09v6.439l5.41-6.439h.97v8.103h-1.1v-6.44l-5.39 6.44h-.98v-8.103zm3.68-1.171c-.7 0-1.25-.175-1.67-.524-.41-.349-.62-.842-.63-1.479h.79c.01.401.15.724.43.971.28.236.64.354 1.08.354.44 0 .8-.118 1.08-.354.28-.247.43-.57.44-.971h.79c-.01.637-.23 1.13-.65 1.479-.41.349-.96.524-1.66.524zm-137.87-37.203v6.778h-27.17v-5.392l13.87-13.094c1.47-1.404 2.46-2.602 2.97-3.595.52-1.027.77-2.037.77-3.029 0-1.438-.49-2.534-1.48-3.287-.96-.787-2.38-1.181-4.27-1.181-1.57 0-2.99.308-4.26.924-1.27.582-2.33 1.472-3.18 2.671l-6.06-3.903c1.4-2.088 3.34-3.714 5.8-4.878 2.47-1.199 5.29-1.798 8.47-1.798 2.67 0 5 .445 6.99 1.335 2.02.856 3.57 2.089 4.67 3.698 1.13 1.574 1.69 3.44 1.69 5.597 0 1.951-.41 3.783-1.23 5.494-.82 1.712-2.41 3.663-4.77 5.854l-8.27 7.806h15.46zm30.3-15.662c5.06 0 8.79 1.01 11.19 3.029 2.43 2.02 3.65 4.725 3.65 8.114 0 2.191-.55 4.194-1.65 6.008-1.09 1.78-2.77 3.218-5.03 4.313-2.23 1.062-4.98 1.592-8.27 1.592-2.53 0-5.03-.325-7.49-.975-2.44-.685-4.51-1.644-6.22-2.876l3.29-6.368c1.37 1.027 2.94 1.832 4.72 2.414 1.78.548 3.61.822 5.5.822 2.09 0 3.73-.411 4.93-1.233 1.19-.821 1.79-1.968 1.79-3.44 0-1.541-.63-2.705-1.9-3.492-1.23-.788-3.39-1.181-6.47-1.181h-9.19l1.85-20.232h21.93v6.675h-15l-.56 6.83h2.93zm33.62 23.056c-2.98 0-5.64-.736-7.96-2.208-2.33-1.472-4.16-3.594-5.5-6.367-1.3-2.807-1.95-6.145-1.95-10.014 0-3.868.65-7.189 1.95-9.962 1.34-2.807 3.17-4.947 5.5-6.419 2.32-1.472 4.98-2.208 7.96-2.208 2.97 0 5.63.736 7.96 2.208 2.32 1.472 4.14 3.612 5.44 6.419 1.33 2.773 2 6.094 2 9.962 0 3.869-.67 7.207-2 10.014-1.3 2.773-3.12 4.895-5.44 6.367-2.33 1.472-4.99 2.208-7.96 2.208zm0-7.035c2.19 0 3.9-.941 5.13-2.824 1.27-1.883 1.9-4.793 1.9-8.73 0-3.937-.63-6.846-1.9-8.729-1.23-1.883-2.94-2.825-5.13-2.825-2.16 0-3.87.942-5.14 2.825-1.23 1.883-1.85 4.792-1.85 8.729 0 3.937.62 6.847 1.85 8.73 1.27 1.883 2.98 2.824 5.14 2.824zm34.85 7.035c-2.98 0-5.63-.736-7.96-2.208-2.33-1.472-4.16-3.594-5.5-6.367-1.3-2.807-1.95-6.145-1.95-10.014 0-3.868.65-7.189 1.95-9.962 1.34-2.807 3.17-4.947 5.5-6.419 2.33-1.472 4.98-2.208 7.96-2.208 2.98 0 5.63.736 7.96 2.208 2.33 1.472 4.14 3.612 5.44 6.419 1.34 2.773 2 6.094 2 9.962 0 3.869-.66 7.207-2 10.014-1.3 2.773-3.11 4.895-5.44 6.367-2.33 1.472-4.98 2.208-7.96 2.208zm0-7.035c2.19 0 3.9-.941 5.13-2.824 1.27-1.883 1.9-4.793 1.9-8.73 0-3.937-.63-6.846-1.9-8.729-1.23-1.883-2.94-2.825-5.13-2.825-2.16 0-3.87.942-5.14 2.825-1.23 1.883-1.85 4.792-1.85 8.729 0 3.937.62 6.847 1.85 8.73 1.27 1.883 2.98 2.824 5.14 2.824zm-205.1-132.063v10.784h-1.13v-9.798h-5.2l-.13 3.605c-.05 1.489-.17 2.691-.37 3.605-.18.903-.47 1.581-.86 2.033-.39.442-.91.663-1.56.663-.27 0-.56-.036-.86-.108l.09-1.017c.18.041.35.062.51.062.45 0 .82-.18 1.1-.54.28-.359.5-.914.64-1.663.15-.76.24-1.762.3-3.004l.15-4.622h7.32zm10.46 7.071h-6.78c.06.842.39 1.525.97 2.049.59.513 1.33.77 2.22.77.5 0 .97-.087 1.39-.262.42-.185.78-.452 1.09-.801l.62.709c-.36.431-.81.76-1.36.986-.53.226-1.12.339-1.77.339-.83 0-1.57-.175-2.22-.524a3.871 3.871 0 0 1-1.49-1.479c-.36-.626-.54-1.335-.54-2.126 0-.791.17-1.499.51-2.126.34-.626.82-1.114 1.41-1.463a4.035 4.035 0 0 1 2.04-.524c.75 0 1.42.175 2.01.524.6.349 1.07.837 1.41 1.463.34.616.5 1.325.5 2.126l-.01.339zm-3.91-3.512c-.78 0-1.44.251-1.98.755-.52.492-.82 1.139-.89 1.941h5.75c-.07-.802-.38-1.449-.91-1.941-.53-.504-1.18-.755-1.97-.755zm11.68.092h-3.06v7.133h-1.09v-7.133h-3.07v-.97h7.22v.97zm-47.99 18.03h1.09v3.589h5.1v-3.589h1.09v8.103h-1.09V325.1h-5.1v3.574h-1.09v-8.103zm13.18-.062c1.06 0 1.87.267 2.44.801.56.524.84 1.304.84 2.342v5.022h-1.04v-1.264c-.25.422-.62.75-1.1.986-.47.237-1.04.355-1.69.355-.91 0-1.63-.216-2.16-.647-.53-.432-.8-1.002-.8-1.71 0-.688.25-1.243.74-1.664.5-.421 1.3-.632 2.39-.632h2.57v-.493c0-.698-.2-1.227-.59-1.586-.39-.37-.96-.555-1.71-.555-.51 0-1 .087-1.47.262-.48.164-.88.395-1.22.693l-.49-.816c.41-.349.9-.617 1.47-.801a5.66 5.66 0 0 1 1.82-.293zm-.38 7.379c.61 0 1.14-.139 1.58-.416.45-.287.77-.698.99-1.232v-1.325h-2.54c-1.39 0-2.08.483-2.08 1.448 0 .472.18.847.54 1.125.36.267.86.4 1.51.4zm14.78-7.379c.76 0 1.45.175 2.07.524a3.66 3.66 0 0 1 1.44 1.448c.35.626.53 1.34.53 2.141 0 .811-.18 1.53-.53 2.157a3.771 3.771 0 0 1-1.44 1.463c-.61.339-1.3.509-2.07.509-.66 0-1.25-.134-1.79-.401a3.477 3.477 0 0 1-1.29-1.201v4.513h-1.09v-11.091h1.04v1.602c.33-.534.76-.945 1.3-1.233.54-.287 1.15-.431 1.83-.431zm-.08 7.271c.57 0 1.08-.128 1.55-.385.46-.267.82-.642 1.07-1.125.27-.482.4-1.032.4-1.648 0-.616-.13-1.16-.4-1.633a2.723 2.723 0 0 0-1.07-1.124 3.066 3.066 0 0 0-1.55-.401c-.57 0-1.09.134-1.55.401a2.95 2.95 0 0 0-1.08 1.124c-.26.473-.38 1.017-.38 1.633 0 .616.12 1.166.38 1.648.27.483.63.858 1.08 1.125.46.257.98.385 1.55.385zm9.87-4.344c1.02.01 1.79.236 2.33.678.53.441.8 1.078.8 1.91 0 .863-.29 1.525-.86 1.987-.58.462-1.4.688-2.47.678l-3.2-.015v-8.103h1.09v2.834l2.31.031zm4.49-2.865h1.09v8.103h-1.09v-8.103zm-4.75 7.286c.75.01 1.32-.138 1.7-.447.39-.318.58-.78.58-1.386 0-.596-.19-1.037-.57-1.325-.38-.287-.95-.436-1.71-.447l-2.05-.03v3.604l2.05.031zm8.95-7.286h1.1v3.589h5.1v-3.589h1.09v8.103h-1.09V325.1h-5.1v3.574h-1.1v-8.103zm13.34 4.498h-1.85v3.605h-1.09v-8.103h1.09v3.558h1.87l2.85-3.558h1.18l-3.19 3.928 3.42 4.175h-1.29l-2.99-3.605zm12.81-.108h-6.78c.06.842.39 1.525.97 2.049.59.513 1.33.77 2.22.77.5 0 .97-.087 1.39-.262.42-.185.78-.452 1.09-.801l.62.709c-.36.431-.81.76-1.36.986-.53.226-1.12.339-1.77.339-.83 0-1.57-.175-2.22-.524a3.94 3.94 0 0 1-1.49-1.479c-.36-.626-.54-1.335-.54-2.126 0-.791.17-1.499.51-2.126.35-.626.82-1.114 1.41-1.463a4.035 4.035 0 0 1 2.04-.524c.75 0 1.42.175 2.02.524.59.349 1.06.837 1.4 1.463.34.616.51 1.325.51 2.126l-.02.339zm-3.91-3.512c-.78 0-1.44.251-1.97.755-.53.492-.83 1.139-.9 1.941h5.75c-.07-.802-.38-1.449-.91-1.941-.52-.504-1.18-.755-1.97-.755zm-43.94-76.62v35.946h-8.32v-29.27h-7.19v-6.676h15.51zm21.65 36.562c-2.98 0-5.63-.736-7.96-2.208-2.33-1.472-4.16-3.594-5.5-6.367-1.3-2.808-1.95-6.145-1.95-10.014 0-3.868.65-7.189 1.95-9.962 1.34-2.807 3.17-4.947 5.5-6.419 2.33-1.472 4.98-2.208 7.96-2.208 2.98 0 5.63.736 7.96 2.208 2.32 1.472 4.14 3.612 5.44 6.419 1.34 2.773 2 6.094 2 9.962 0 3.869-.66 7.206-2 10.014-1.3 2.773-3.12 4.895-5.44 6.367-2.33 1.472-4.98 2.208-7.96 2.208zm0-7.035c2.19 0 3.9-.941 5.13-2.824 1.27-1.883 1.9-4.793 1.9-8.73 0-3.937-.63-6.847-1.9-8.729-1.23-1.883-2.94-2.825-5.13-2.825-2.16 0-3.87.942-5.14 2.825-1.23 1.882-1.85 4.792-1.85 8.729 0 3.937.62 6.847 1.85 8.73 1.27 1.883 2.98 2.824 5.14 2.824zm-88.7 326.826v3.405h-1.06v-2.419h-9.42l-.01 2.419h-1.07l.02-3.405h.54c.71-.041 1.2-.601 1.48-1.679.28-1.089.44-2.629.51-4.622l.12-3.497h7.27v9.798h1.62zm-8-6.193c-.05 1.643-.18 2.999-.38 4.067-.2 1.058-.53 1.767-1 2.126h6.64v-8.812h-5.16l-.1 2.619zm13.18 7.256c-.78 0-1.48-.175-2.11-.524a3.907 3.907 0 0 1-1.48-1.479c-.36-.626-.54-1.335-.54-2.126 0-.79.18-1.499.54-2.126.36-.626.85-1.114 1.48-1.463s1.33-.524 2.11-.524c.78 0 1.48.175 2.11.524a3.69 3.69 0 0 1 1.46 1.463c.36.627.54 1.336.54 2.126 0 .791-.18 1.5-.54 2.126-.35.627-.83 1.12-1.46 1.479-.63.349-1.33.524-2.11.524zm0-.971c.57 0 1.09-.128 1.54-.385.46-.267.82-.642 1.08-1.124.25-.483.38-1.032.38-1.649 0-.616-.13-1.165-.38-1.648a2.71 2.71 0 0 0-1.08-1.109 2.977 2.977 0 0 0-1.54-.401c-.58 0-1.09.134-1.56.401a2.84 2.84 0 0 0-1.08 1.109 3.534 3.534 0 0 0-.38 1.648c0 .617.13 1.166.38 1.649.27.482.63.857 1.08 1.124.47.257.98.385 1.56.385zm11.61-3.296c1.1.256 1.65.919 1.65 1.987 0 .709-.26 1.253-.79 1.633-.52.38-1.3.57-2.34.57h-3.68v-8.103h3.57c.93 0 1.65.18 2.18.539.52.359.78.873.78 1.541 0 .441-.12.821-.37 1.14-.23.308-.57.539-1 .693zm-4.1-.308h2.44c.62 0 1.1-.118 1.43-.355.34-.236.51-.58.51-1.032 0-.452-.17-.791-.51-1.017-.33-.226-.81-.338-1.43-.338h-2.44v2.742zm2.58 3.635c.69 0 1.22-.113 1.57-.339.35-.226.52-.58.52-1.063 0-.482-.16-.837-.48-1.063-.32-.236-.82-.354-1.51-.354h-2.68v2.819h2.58zm9.08.94c-.79 0-1.49-.175-2.12-.524a3.952 3.952 0 0 1-1.47-1.479c-.36-.626-.54-1.335-.54-2.126 0-.79.18-1.499.54-2.126.36-.626.85-1.114 1.47-1.463.63-.349 1.33-.524 2.12-.524.78 0 1.48.175 2.11.524.62.349 1.11.837 1.46 1.463.36.627.54 1.336.54 2.126 0 .791-.18 1.5-.54 2.126-.35.627-.84 1.12-1.46 1.479-.63.349-1.33.524-2.11.524zm0-.971c.57 0 1.08-.128 1.54-.385a2.73 2.73 0 0 0 1.07-1.124c.26-.483.39-1.032.39-1.649 0-.616-.13-1.165-.39-1.648a2.627 2.627 0 0 0-1.07-1.109 3.003 3.003 0 0 0-1.54-.401c-.58 0-1.1.134-1.56.401a2.84 2.84 0 0 0-1.08 1.109c-.26.483-.38 1.032-.38 1.648 0 .617.12 1.166.38 1.649.27.482.63.857 1.08 1.124.46.257.98.385 1.56.385zm13.03-7.209v8.103h-1.1v-7.133h-3.88l-.11 2.003c-.08 1.684-.28 2.978-.58 3.882-.31.904-.86 1.356-1.65 1.356-.22 0-.48-.041-.79-.123l.08-.94c.18.041.31.061.38.061.43 0 .74-.195.96-.585.22-.39.36-.873.43-1.448s.13-1.335.19-2.28l.13-2.896h5.94zm6.59 2.865c1.01.01 1.78.236 2.31.678.53.442.8 1.078.8 1.91 0 .863-.29 1.525-.86 1.988-.57.462-1.39.688-2.47.677l-3.27-.015v-8.103h1.1v2.834l2.39.031zm-.28 4.421c.75.011 1.31-.138 1.69-.446.39-.319.59-.781.59-1.387 0-.595-.19-1.037-.57-1.325-.38-.287-.95-.436-1.71-.446l-2.11-.031v3.605l2.11.03zm5.48-7.286h1.09v3.589h5.1v-3.589h1.09v8.103h-1.09v-3.574h-5.1v3.574h-1.09v-8.103zm13.8 2.865c1.01.01 1.79.236 2.32.678.54.442.8 1.078.8 1.91 0 .863-.28 1.525-.86 1.988-.58.462-1.4.688-2.46.677l-3.21-.015v-8.103h1.09v2.834l2.32.031zm4.48-2.865h1.09v8.103h-1.09v-8.103zm-4.75 7.286c.75.011 1.32-.138 1.7-.446.39-.319.58-.781.58-1.387 0-.595-.19-1.037-.57-1.325-.38-.287-.95-.436-1.71-.446l-2.05-.031v3.605l2.05.03zm14.02.817l-2.57-3.389-2.59 3.389h-1.23l3.21-4.159-3.05-3.944h1.23l2.43 3.173 2.44-3.173h1.2l-3.05 3.944 3.23 4.159h-1.25zm-74.6 15.395h-1.85v3.605h-1.1v-8.103h1.1v3.558h1.86l2.85-3.558h1.19l-3.19 3.928 3.42 4.175h-1.3l-2.98-3.605zm12.63-4.498v8.103h-1.09v-7.133h-3.89l-.1 2.003c-.09 1.684-.28 2.978-.59 3.882-.31.904-.86 1.356-1.65 1.356-.21 0-.48-.041-.78-.123l.07-.94c.19.041.32.061.39.061.42 0 .74-.195.95-.585.22-.39.36-.873.43-1.448.08-.575.14-1.335.19-2.28l.14-2.896h5.93zm3.11 0h1.09v6.439l5.41-6.439h.97v8.103h-1.09v-6.439l-5.4 6.439h-.98v-8.103zm17.69 4.39h-6.78c.06.842.39 1.525.97 2.049.59.514 1.33.77 2.22.77.5 0 .97-.087 1.39-.261.42-.185.78-.452 1.09-.801l.62.708c-.36.431-.81.76-1.36.986-.53.226-1.12.339-1.77.339-.83 0-1.57-.175-2.22-.524a3.933 3.933 0 0 1-1.49-1.479c-.36-.626-.54-1.335-.54-2.126 0-.79.17-1.499.51-2.126.35-.626.82-1.114 1.41-1.463a4.035 4.035 0 0 1 2.04-.524c.75 0 1.42.175 2.02.524.59.349 1.06.837 1.4 1.463.34.617.51 1.325.51 2.126l-.02.339zm-3.91-3.512c-.78 0-1.44.252-1.97.755-.53.493-.83 1.14-.9 1.941h5.75c-.07-.801-.38-1.448-.91-1.941-.52-.503-1.18-.755-1.97-.755zm6.35-.878h1.09v3.589h5.1v-3.589h1.09v8.103h-1.09v-3.574h-5.1v3.574h-1.09v-8.103zm16.09.97h-3.06v7.133h-1.1v-7.133h-3.06v-.97h7.22v.97zm4.55 7.21c-.78 0-1.48-.175-2.11-.524a3.907 3.907 0 0 1-1.48-1.479c-.36-.626-.54-1.335-.54-2.126 0-.79.18-1.499.54-2.126.36-.626.85-1.114 1.48-1.463s1.33-.524 2.11-.524c.78 0 1.49.175 2.11.524.63.349 1.12.837 1.47 1.463.35.627.53 1.336.53 2.126 0 .791-.18 1.5-.53 2.126-.35.627-.84 1.12-1.47 1.479-.62.349-1.33.524-2.11.524zm0-.971c.58 0 1.09-.128 1.54-.385.46-.267.82-.642 1.08-1.124.26-.483.39-1.032.39-1.649 0-.616-.13-1.165-.39-1.648a2.71 2.71 0 0 0-1.08-1.109c-.45-.267-.96-.401-1.54-.401-.57 0-1.09.134-1.55.401a2.71 2.71 0 0 0-1.08 1.109c-.26.483-.39 1.032-.39 1.648 0 .617.13 1.166.39 1.649.26.482.62.857 1.08 1.124.46.257.98.385 1.55.385zm11.61-3.296c1.1.256 1.65.919 1.65 1.987 0 .709-.26 1.253-.78 1.633-.53.38-1.31.57-2.35.57h-3.68v-8.103h3.58c.92 0 1.64.18 2.17.539.52.359.78.873.78 1.541 0 .441-.12.821-.37 1.14-.23.308-.57.539-1 .693zm-4.1-.308h2.44c.63 0 1.1-.118 1.43-.355.34-.236.51-.58.51-1.032 0-.452-.17-.791-.51-1.017-.33-.226-.8-.338-1.43-.338H1296v2.742zm2.58 3.635c.7 0 1.22-.113 1.57-.339.35-.226.52-.58.52-1.063 0-.482-.16-.837-.47-1.063-.32-.236-.83-.354-1.51-.354H1296v2.819h2.58zm-64.71-71.046c3.15.513 5.56 1.694 7.24 3.543 1.67 1.814 2.51 4.074 2.51 6.778 0 2.089-.55 4.023-1.64 5.803-1.1 1.746-2.77 3.149-5.03 4.211-2.23 1.061-4.97 1.592-8.22 1.592-2.53 0-5.03-.326-7.5-.976-2.43-.685-4.5-1.643-6.21-2.876l3.23-6.367c1.37 1.027 2.95 1.831 4.73 2.413 1.81.548 3.66.822 5.55.822 2.08 0 3.73-.394 4.92-1.181 1.2-.822 1.8-1.969 1.8-3.441 0-2.944-2.24-4.416-6.72-4.416h-3.8v-5.494l7.39-8.371h-15.3v-6.675h25.16v5.392l-8.11 9.243zm29 21.927c-2.98 0-5.63-.736-7.96-2.209-2.33-1.472-4.16-3.594-5.5-6.367-1.3-2.807-1.95-6.145-1.95-10.013 0-3.869.65-7.19 1.95-9.963 1.34-2.807 3.17-4.946 5.5-6.418 2.33-1.472 4.98-2.208 7.96-2.208 2.98 0 5.63.736 7.96 2.208 2.33 1.472 4.14 3.611 5.44 6.418 1.34 2.773 2 6.094 2 9.963 0 3.868-.66 7.206-2 10.013-1.3 2.773-3.11 4.895-5.44 6.367-2.33 1.473-4.98 2.209-7.96 2.209zm0-7.036c2.19 0 3.9-.941 5.13-2.824 1.27-1.883 1.9-4.793 1.9-8.729 0-3.937-.63-6.847-1.9-8.73-1.23-1.883-2.94-2.824-5.13-2.824-2.16 0-3.87.941-5.14 2.824-1.23 1.883-1.85 4.793-1.85 8.73 0 3.936.62 6.846 1.85 8.729 1.27 1.883 2.98 2.824 5.14 2.824zm34.85 7.036c-2.98 0-5.63-.736-7.96-2.209-2.33-1.472-4.16-3.594-5.49-6.367-1.3-2.807-1.95-6.145-1.95-10.013 0-3.869.65-7.19 1.95-9.963 1.33-2.807 3.16-4.946 5.49-6.418 2.33-1.472 4.98-2.208 7.96-2.208 2.98 0 5.63.736 7.96 2.208 2.33 1.472 4.14 3.611 5.44 6.418 1.34 2.773 2.01 6.094 2.01 9.963 0 3.868-.67 7.206-2.01 10.013-1.3 2.773-3.11 4.895-5.44 6.367-2.33 1.473-4.98 2.209-7.96 2.209zm0-7.036c2.19 0 3.9-.941 5.14-2.824 1.26-1.883 1.9-4.793 1.9-8.729 0-3.937-.64-6.847-1.9-8.73-1.24-1.883-2.95-2.824-5.14-2.824-2.16 0-3.87.941-5.13 2.824-1.24 1.883-1.85 4.793-1.85 8.73 0 3.936.61 6.846 1.85 8.729 1.26 1.883 2.97 2.824 5.13 2.824z" fill="#fff"/></svg>