<svg width="1908" height="1738" fill="none" xmlns="http://www.w3.org/2000/svg"><path fill="#D4EDE9" d="M89.294 1305.5L1283.661 111.133l431.588 431.588L520.882 1737.088z"/><path fill="#D4EDE9" d="M-126 1090.21L815.11 149.1l478.997 478.997-941.11 941.11z"/><mask id="a" maskUnits="userSpaceOnUse" x="493" y="13" width="1152" height="593"><path fill="#fff" d="M493.741 13.095h1151v592h-1151z"/></mask><g mask="url(#a)"><path d="M1049.69 51.814l595.24 595.238-852.065 852.068-595.238-595.243L1049.69 51.814z" fill="#00947E"/></g><path d="M1249.04 60.387c.3-10.604-8.09-19.093-18.68-19.153.77-8.159-7.63-14.157-14.96-10.605 3.11-13.97-7.44-27.33-21.42-30.031-15.78-3.058-30.67 5.972-38.84 18.924-5.05 7.997-7.64 17.222-8.68 26.539-5.39-3.99-12.8-5.048-18.96-2.09-6.52 3.118-10.71 10.452-9.72 17.56.04.222.2.313.4.313l.02.23c-.72.078-1.43.17-2.14.287-.06.008-.06.117 0 .126 5.06.828 10.41.507 15.51.533 5.57.034 11.13.06 16.68.086 11.13.044 22.24.044 33.37.061 22.24.035 44.53.382 66.74-.472.35-.018.35-.525 0-.534-.11 0-.21-.009-.32-.009l.04-.872c.46-.004.94-.299.96-.893z" fill="#CCE4F3" fill-opacity=".6"/><path d="M1084.46 671.289c6.01 2.004 7.16-7.792 8.84-13.048-1.07 1.368-2.55 2.997-2.98.652-.62-3.435 1.16-10.654 3.79-12.579-1.72-.994-4.19-1.447-5.91-1.598-2.21-.183-5.55 25.969-3.74 26.573z" fill="#30193B"/><path d="M1090.32 658.902c.43 2.345 1.96 3.195 2.86-.216.82-3.061 2.16-4.349 2.47-4.89.44-.763 4.89-4.134 5.62-4.38.69-.231-.67-5.701-1.29-5.049-2.95 3.029-5.55 2.13-5.87 1.955-2.63 1.925-4.41 9.145-3.79 12.58z" fill="#F9879A"/><path opacity=".1" d="M1673.74 681.165c0 8.492-143.68 15.412-320.94 15.412-177.28 0-321.08-6.92-321.08-15.412 0-8.521 143.8-15.428 321.08-15.428 177.26-.007 320.94 6.907 320.94 15.428z" fill="#2E2D42"/><path d="M1189.59 391.038c-20.29 22.335.58 133.106.58 133.106s-92.45 121.337-92.2 122.005l1.74 13.016c.41 1.041 98.84-80.277 129.24-109.903 19-18.527 36.89-129.503 50.64-165.204 6.37-16.531-76.62-7.738-90 6.98z" fill="#201F2A"/><path d="M1408.03 676.497c-1.54-5.605-10.48-1.494-15.75.096 1.72.112 3.91.406 2.22 2.083-2.48 2.457-9.45 5.081-12.52 4.008.16 1.988 1.18 4.269 2.03 5.78 1.1 1.916 24.52-10.138 24.02-11.967z" fill="#30193B"/><path d="M1394.5 678.668c1.7-1.678 1.54-3.419-1.81-2.219-2.97 1.058-5.77 1.289-6.37 1.352-1.61.128-3.23-1.661-3.23-1.661l-2.58 1.844s1.42 4.119 1.47 4.692c3.07 1.073 10.04-1.551 12.52-4.008z" fill="#FF97A6"/><path d="M1183.66 436.655c7.26 29.277 83.58 93.261 83.58 93.261s111.99 150.749 114.02 149.882l6.94-4.285c.62-.262-54.24-122.092-71.6-166.437-12.86-32.863-54.28-104.178-52.59-100.926 0 0-1.1-32.242-4.62-35.94-7.86-.111-29.39-17.628-53 .063-22.96 17.199-26.07 50.992-22.73 64.382z" fill="#2E2D42"/><path d="M1208.98 282.702c15.54-18.479 76.08-13.079 87.85 5.018 12.66 19.489-16.89 94.811-16.89 94.811s-7.46 2.314-20.64.342c-17.71-2.672-50.4-12.253-50.4-12.253s-4.19-82.853.08-87.918z" fill="#FFE5B0"/><path d="M1235.39 272.984c-7.29.525-25.86 1.893-39.2 17.859-12.07 14.455-31.18 41.251-29.73 63.563 1.08 16.491 24.2-11.148 24.2-11.148l26.31-39.916c-.01 0 26.47-30.922 18.42-30.358z" fill="#FFD599"/><path d="M1251.73 271.348s-10.44 23.091-3.86 68.413c1.06 7.252 15.17 43.573 15.17 43.573s-19.94-2.17-31.5-5.391c-17.57-4.89-24.5-5.422-23.6-8.372l-.68-65.534s-2.18-20.92 3.59-24.013c2.3-1.241 8.94-5.479 15.97-7.037 10.64-2.314 22.57-1.79 24.91-1.639z" fill="#FFD599"/><path d="M1273.25 252.765s-8.48 17.858-7.86 20.347c.63 2.488 4.48 6.679 8.66 2.822 4.17-3.832 6.53-20.984 6.53-20.984l-7.33-2.185z" fill="#FF97A6"/><path d="M1274.98 246.722s-7.38 17.89-8.01 20.235c-.49 1.789 8.52 5.821 9.8 3.698 2.81-4.675 5.54-21.723 5.54-21.723l-7.33-2.21z" fill="#C95D77"/><path d="M1291.65 262.497c1.22-1.336 2.93-7.3 4.19-12.349 1.05-4.175-1.57-8.388-5.77-9.335-6.51-1.463-13.81-2.688-16.08-1.972-3.55 1.121-4.84 5.423-5.88 8.604-1.03 3.164-1.74 9.223-.57 12.467 1.07 2.966 5.59 6.616 8.53 7.411 8.82 2.361 11.98.811 15.58-4.826z" fill="#FF97A6"/><path d="M1405.66 318.729c-11.08-2.918-54.41-21.635-54.41-21.635s-50.13 6.258-62.88 6.433c-5.87.079-12.23-.589-12.23-.589-6.25-.572 9.01.08 1.1-12.61 12.86-4.596 8.22-6.353 6.86-5.248 11.55-2.131 34.9 1.845 59.36-1.288 14.32-1.829 37.6-9.828 58.62-8.818 29.31 1.399 20.96 27.702 21.7 36.481.14 1.582-.56 3.108-1.83 4.07-2.86 2.123-8.65 5.24-16.29 3.204z" fill="#FFE5B0"/><path d="M1424.51 292.314s9.13-5.344 12.28-3.26c3.14 2.099 8.76 4.548 8.23 6.122-.51 1.582-3.81-.914-3.81-.914s3.49 2.218 3.49 2.997c0 .795-1.26.668-1.26.668s.57-.454-.34.588c-.92 1.058-8.02-2.409-9.6-3.061-1.6-.652-5.96.064-9.22-1.105-1.22-.421-2.11 0 .23-2.035z" fill="#FFA9BA"/><path fill="#2E338B" d="M1386.79 214.271l186.976 186.976-186.976 186.976-186.976-186.976z"/><path d="M1221.73 427.91c-.31.668 1.63 2.814 2.07 3.291 1.1 1.241 2.95 4.319 5 6.68 0 0 1.14 2.003 4.5 3.259 1.16.422 6.03.16 6.9-.85.87-.994-3.7-2.934-4.65-3.975-1.46-1.551-2.39-3.666-2.81-6.178 0 0 2.54.866 2.61-.16.06-1.025-4.87-3.03-6.57-2.545 0 0-1.96-.158-2.87-.524-.64-.27-3.6-.191-4.18 1.002z" fill="#FFA9BA"/><path d="M1166.56 348.251c-6.43 15.234 26.55 84.935 51.39 82.494 9.23-.914 11.74-7.966 11.74-7.966l-38.6-83.672c-.01 0-17.29-8.031-24.53 9.144z" fill="#FFD599"/><path d="M1279.08 239.279s17.46 12.238 31.77-.182c14.29-12.428 7.87-25.564 7.87-25.564s-4.77 9.987-10.52 11.68c0 0 1.56-6.679.27-8.746 0 0-4.27 7.188-9.94 7.919-5.68.732-21.81-12.84-28.67-3.927-6.87 8.898 9.22 18.82 9.22 18.82z" fill="#6B4300"/><path d="M1270.78 222.725c-.36-.278-9.39-.326-10.44 6.417-1.07 6.726 6.6 26.446 6.6 26.446s6.39-16.07 12.14-16.308c5.75-.239-8.3-16.555-8.3-16.555z" fill="#A76A02"/><path fill="#F8991D" d="M1581.76 188.169l102.6 102.6-102.6 102.6-102.6-102.6z"/><path fill="#007AC1" d="M1726.3 265.025l181.044 181.044L1726.3 627.113 1545.256 446.07z"/><path fill="#CF1E63" d="M1536.24 458.865l115.408 115.408-115.408 115.409-115.408-115.409z"/><path d="M1329.54 369.464h-9.7l.03 16.536h-1.9v-18.2h11.57v1.664zm-.26 2.86h1.85v10.868l9.13-10.868h1.63V386h-1.84v-10.868l-9.1 10.868h-1.67v-13.676zm24.53.338c1.27 0 2.4.286 3.38.858a5.748 5.748 0 0 1 2.34 2.366c.56 1.005.84 2.158.84 3.458 0 1.335-.3 2.522-.89 3.562a6.049 6.049 0 0 1-2.42 2.392c-1.04.572-2.23.858-3.58.858-2.27 0-4.03-.797-5.28-2.392-1.25-1.595-1.87-3.796-1.87-6.604 0-2.929.55-5.174 1.66-6.734 1.13-1.56 2.88-2.617 5.25-3.172l6.14-1.404.31 1.69-5.77 1.326c-1.96.433-3.4 1.205-4.32 2.314-.92 1.092-1.42 2.713-1.51 4.862.56-1.057 1.33-1.881 2.32-2.47.99-.607 2.12-.91 3.4-.91zm-.28 11.96c.95 0 1.8-.217 2.55-.65a4.565 4.565 0 0 0 1.76-1.872c.44-.797.65-1.699.65-2.704 0-1.005-.2-1.889-.62-2.652a4.386 4.386 0 0 0-1.77-1.768c-.74-.433-1.6-.65-2.57-.65-.97 0-1.84.217-2.6.65a4.512 4.512 0 0 0-1.77 1.768c-.42.763-.62 1.647-.62 2.652 0 1.005.2 1.907.62 2.704a4.771 4.771 0 0 0 1.79 1.872c.77.433 1.62.65 2.58.65zm15.76-4.706h-3.12V386h-1.85v-13.676h1.85v6.006h3.14l4.81-6.006h2.01l-5.39 6.63 5.78 7.046h-2.19l-5.04-6.084zm15.3 6.214c-1.32 0-2.5-.295-3.56-.884a6.656 6.656 0 0 1-2.5-2.496c-.6-1.057-.91-2.253-.91-3.588s.31-2.531.91-3.588a6.463 6.463 0 0 1 2.5-2.47c1.06-.589 2.24-.884 3.56-.884 1.32 0 2.5.295 3.56.884a6.257 6.257 0 0 1 2.47 2.47c.61 1.057.91 2.253.91 3.588s-.3 2.531-.91 3.588a6.44 6.44 0 0 1-2.47 2.496c-1.06.589-2.24.884-3.56.884zm0-1.638c.97 0 1.84-.217 2.6-.65a4.663 4.663 0 0 0 1.82-1.898c.43-.815.65-1.742.65-2.782s-.22-1.967-.65-2.782a4.49 4.49 0 0 0-1.82-1.872c-.76-.451-1.63-.676-2.6-.676-.97 0-1.85.225-2.63.676-.76.433-1.37 1.057-1.82 1.872-.43.815-.65 1.742-.65 2.782s.22 1.967.65 2.782a4.934 4.934 0 0 0 1.82 1.898c.78.433 1.66.65 2.63.65zm16.61 1.638c-1.35 0-2.57-.295-3.64-.884a6.463 6.463 0 0 1-2.5-2.47c-.61-1.075-.91-2.279-.91-3.614s.3-2.531.91-3.588a6.463 6.463 0 0 1 2.5-2.47c1.07-.589 2.29-.884 3.64-.884 1.18 0 2.22.234 3.14.702a5.084 5.084 0 0 1 2.21 2.002l-1.37.936c-.46-.676-1.03-1.179-1.72-1.508a4.978 4.978 0 0 0-2.26-.52c-.99 0-1.88.225-2.68.676a4.682 4.682 0 0 0-1.85 1.872c-.43.815-.65 1.742-.65 2.782 0 1.057.22 1.993.65 2.808a4.92 4.92 0 0 0 1.85 1.872c.8.433 1.69.65 2.68.65.81 0 1.57-.165 2.26-.494.69-.329 1.26-.832 1.72-1.508l1.37.936a5.247 5.247 0 0 1-2.21 2.028c-.93.451-1.98.676-3.14.676zm18.29-12.168h-5.17V386h-1.85v-12.038h-5.17v-1.638h12.19v1.638zm8.55 3.198c1.71.017 3.01.399 3.9 1.144.9.745 1.35 1.82 1.35 3.224 0 1.456-.48 2.574-1.46 3.354-.95.78-2.34 1.161-4.16 1.144l-5.51-.026v-13.676h1.85v4.784l4.03.052zm-.47 7.462c1.27.017 2.22-.234 2.86-.754.66-.537.99-1.317.99-2.34 0-1.005-.32-1.751-.96-2.236-.64-.485-1.61-.737-2.89-.754l-3.56-.052v6.084l3.56.052zm16.05-12.298h1.84v10.868l9.13-10.868h1.64V386h-1.85v-10.868l-9.1 10.868h-1.66v-13.676zm-170.32 32V418h-1.69v-10.816l-5.54 9.152h-.83l-5.54-9.178V418h-1.69v-13.676h1.87l5.8 9.854 5.9-9.854h1.72zm9.96-.104c1.78 0 3.15.451 4.11 1.352.95.884 1.43 2.201 1.43 3.952V418h-1.77v-2.132c-.42.711-1.03 1.265-1.85 1.664-.79.399-1.75.598-2.86.598-1.52 0-2.74-.364-3.64-1.092-.9-.728-1.35-1.69-1.35-2.886 0-1.161.42-2.097 1.25-2.808.85-.711 2.19-1.066 4.03-1.066h4.34v-.832c0-1.179-.33-2.071-.99-2.678-.66-.624-1.62-.936-2.88-.936-.87 0-1.7.147-2.5.442-.8.277-1.48.667-2.05 1.17l-.83-1.378c.69-.589 1.52-1.04 2.49-1.352a9.478 9.478 0 0 1 3.07-.494zm-.65 12.454c1.04 0 1.93-.234 2.68-.702.74-.485 1.3-1.179 1.66-2.08v-2.236h-4.29c-2.34 0-3.51.815-3.51 2.444 0 .797.3 1.43.91 1.898.61.451 1.46.676 2.55.676zm16.82 1.456c-1.35 0-2.56-.295-3.64-.884a6.372 6.372 0 0 1-2.49-2.47c-.61-1.075-.91-2.279-.91-3.614s.3-2.531.91-3.588a6.372 6.372 0 0 1 2.49-2.47c1.08-.589 2.29-.884 3.64-.884 1.18 0 2.23.234 3.15.702a5.196 5.196 0 0 1 2.21 2.002l-1.38.936c-.45-.676-1.02-1.179-1.72-1.508a4.948 4.948 0 0 0-2.26-.52c-.99 0-1.88.225-2.68.676-.78.433-1.39 1.057-1.84 1.872-.44.815-.65 1.742-.65 2.782 0 1.057.21 1.993.65 2.808a4.895 4.895 0 0 0 1.84 1.872c.8.433 1.69.65 2.68.65.82 0 1.57-.165 2.26-.494.7-.329 1.27-.832 1.72-1.508l1.38.936a5.366 5.366 0 0 1-2.21 2.028c-.94.451-1.99.676-3.15.676zm27.81-13.806V418h-18.88v-13.676h1.85v12.064h6.71v-12.064h1.84v12.064h6.63v-12.064h1.85zm14.89 1.638h-5.18V418h-1.84v-12.038h-5.18v-1.638h12.2v1.638zm7.37-1.742c1.79 0 3.16.451 4.11 1.352.95.884 1.43 2.201 1.43 3.952V418h-1.77v-2.132c-.41.711-1.03 1.265-1.84 1.664-.8.399-1.75.598-2.86.598-1.53 0-2.74-.364-3.64-1.092-.9-.728-1.35-1.69-1.35-2.886 0-1.161.41-2.097 1.24-2.808.85-.711 2.2-1.066 4.03-1.066h4.35v-.832c0-1.179-.33-2.071-.99-2.678-.66-.624-1.62-.936-2.89-.936-.87 0-1.7.147-2.49.442-.8.277-1.49.667-2.06 1.17l-.83-1.378c.69-.589 1.52-1.04 2.5-1.352a9.462 9.462 0 0 1 3.06-.494zm-.65 12.454c1.04 0 1.94-.234 2.68-.702.75-.485 1.3-1.179 1.67-2.08v-2.236h-4.29c-2.34 0-3.51.815-3.51 2.444 0 .797.3 1.43.91 1.898.6.451 1.45.676 2.54.676zm17.74-12.012c1.26 0 2.39.286 3.38.858a5.87 5.87 0 0 1 2.34 2.366c.55 1.005.83 2.158.83 3.458 0 1.335-.3 2.522-.89 3.562a6.024 6.024 0 0 1-2.41 2.392c-1.04.572-2.24.858-3.59.858-2.27 0-4.03-.797-5.28-2.392-1.25-1.595-1.87-3.796-1.87-6.604 0-2.929.55-5.174 1.66-6.734 1.13-1.56 2.88-2.617 5.25-3.172l6.14-1.404.31 1.69-5.77 1.326c-1.96.433-3.4 1.205-4.32 2.314-.92 1.092-1.42 2.713-1.5 4.862.55-1.057 1.32-1.881 2.31-2.47.99-.607 2.12-.91 3.41-.91zm-.29 11.96c.95 0 1.8-.217 2.55-.65a4.655 4.655 0 0 0 1.77-1.872c.43-.797.65-1.699.65-2.704 0-1.005-.21-1.889-.63-2.652-.41-.763-1-1.352-1.77-1.768-.74-.433-1.6-.65-2.57-.65-.97 0-1.84.217-2.6.65a4.512 4.512 0 0 0-1.77 1.768c-.41.763-.62 1.647-.62 2.652 0 1.005.21 1.907.62 2.704a4.727 4.727 0 0 0 1.8 1.872c.76.433 1.62.65 2.57.65zm10.79-12.298h1.85v10.868l9.13-10.868h1.63V418h-1.84v-10.868l-9.1 10.868h-1.67v-13.676zm24.95-.104c1.28 0 2.44.295 3.48.884a6.161 6.161 0 0 1 2.45 2.444c.59 1.057.88 2.262.88 3.614 0 1.369-.29 2.583-.88 3.64a6.337 6.337 0 0 1-2.45 2.47c-1.02.572-2.18.858-3.48.858-1.11 0-2.11-.225-3.02-.676a5.825 5.825 0 0 1-2.18-2.028v7.618h-1.85v-18.72h1.77v2.704a5.775 5.775 0 0 1 2.19-2.08c.92-.485 1.95-.728 3.09-.728zm-.13 12.272c.95 0 1.82-.217 2.6-.65a4.663 4.663 0 0 0 1.82-1.898c.45-.815.68-1.742.68-2.782s-.23-1.959-.68-2.756a4.663 4.663 0 0 0-1.82-1.898c-.78-.451-1.65-.676-2.6-.676-.97 0-1.85.225-2.63.676-.76.451-1.36 1.083-1.82 1.898-.43.797-.65 1.716-.65 2.756 0 1.04.22 1.967.65 2.782.46.815 1.06 1.447 1.82 1.898.78.433 1.66.65 2.63.65zm22.15-12.168l-6.84 15.314c-.55 1.283-1.19 2.193-1.92 2.73-.73.537-1.61.806-2.63.806-.66 0-1.27-.104-1.84-.312a4 4 0 0 1-1.49-.936l.86-1.378c.7.693 1.53 1.04 2.5 1.04.62 0 1.15-.173 1.58-.52.45-.347.87-.936 1.25-1.768l.6-1.326-6.11-13.65h1.92l5.15 11.622 5.15-11.622h1.82zm14.46 7.41h-11.44c.1 1.421.65 2.574 1.63 3.458.99.867 2.24 1.3 3.75 1.3.85 0 1.63-.147 2.34-.442a5.24 5.24 0 0 0 1.84-1.352l1.04 1.196c-.6.728-1.37 1.283-2.28 1.664-.91.381-1.9.572-2.99.572-1.41 0-2.66-.295-3.75-.884a6.638 6.638 0 0 1-2.52-2.496c-.61-1.057-.91-2.253-.91-3.588s.29-2.531.86-3.588c.59-1.057 1.38-1.881 2.39-2.47 1.02-.589 2.17-.884 3.43-.884 1.27 0 2.4.295 3.41.884 1 .589 1.79 1.413 2.36 2.47.58 1.04.86 2.236.86 3.588l-.02.572zm-6.61-5.928c-1.32 0-2.43.425-3.33 1.274-.88.832-1.38 1.924-1.5 3.276h9.69c-.12-1.352-.63-2.444-1.53-3.276-.88-.849-1.99-1.274-3.33-1.274zm26.01-1.482V418h-1.69v-10.816l-5.54 9.152h-.83l-5.54-9.178V418h-1.69v-13.676h1.87l5.8 9.854 5.9-9.854h1.72zm10.89 13.806c-1.32 0-2.5-.295-3.56-.884a6.656 6.656 0 0 1-2.5-2.496c-.6-1.057-.91-2.253-.91-3.588s.31-2.531.91-3.588a6.463 6.463 0 0 1 2.5-2.47c1.06-.589 2.24-.884 3.56-.884 1.32 0 2.51.295 3.56.884a6.257 6.257 0 0 1 2.47 2.47c.61 1.057.91 2.253.91 3.588s-.3 2.531-.91 3.588a6.44 6.44 0 0 1-2.47 2.496c-1.05.589-2.24.884-3.56.884zm0-1.638c.97 0 1.84-.217 2.6-.65a4.663 4.663 0 0 0 1.82-1.898c.43-.815.65-1.742.65-2.782s-.22-1.967-.65-2.782a4.49 4.49 0 0 0-1.82-1.872c-.76-.451-1.63-.676-2.6-.676-.97 0-1.85.225-2.63.676-.76.433-1.36 1.057-1.82 1.872-.43.815-.65 1.742-.65 2.782s.22 1.967.65 2.782c.46.815 1.06 1.447 1.82 1.898.78.433 1.66.65 2.63.65zm16.61 1.638c-1.35 0-2.57-.295-3.64-.884a6.463 6.463 0 0 1-2.5-2.47c-.6-1.075-.91-2.279-.91-3.614s.31-2.531.91-3.588a6.463 6.463 0 0 1 2.5-2.47c1.07-.589 2.29-.884 3.64-.884 1.18 0 2.23.234 3.14.702a5.084 5.084 0 0 1 2.21 2.002l-1.37.936a4.239 4.239 0 0 0-1.72-1.508 4.978 4.978 0 0 0-2.26-.52c-.99 0-1.88.225-2.68.676a4.682 4.682 0 0 0-1.85 1.872c-.43.815-.65 1.742-.65 2.782 0 1.057.22 1.993.65 2.808a4.92 4.92 0 0 0 1.85 1.872c.8.433 1.69.65 2.68.65.81 0 1.57-.165 2.26-.494a4.239 4.239 0 0 0 1.72-1.508l1.37.936a5.247 5.247 0 0 1-2.21 2.028c-.93.451-1.98.676-3.14.676zm18.29-12.168h-5.17V418h-1.85v-12.038h-5.17v-1.638h12.19v1.638zm8.55 3.198c1.72.017 3.02.399 3.9 1.144.9.745 1.35 1.82 1.35 3.224 0 1.456-.48 2.574-1.45 3.354-.96.78-2.34 1.161-4.16 1.144l-5.52-.026v-13.676h1.85v4.784l4.03.052zm-.47 7.462c1.27.017 2.22-.234 2.86-.754.66-.537.99-1.317.99-2.34 0-1.005-.32-1.751-.96-2.236-.64-.485-1.61-.737-2.89-.754l-3.56-.052v6.084l3.56.052zm160.67.178c2.33 0 4.15.555 5.46 1.664 1.32 1.109 1.98 2.635 1.98 4.576 0 1.941-.66 3.467-1.98 4.576-1.31 1.092-3.13 1.638-5.46 1.638h-4.88V435h-1.93v-18.2h6.81zm-.05 10.764c1.8 0 3.18-.39 4.14-1.17.95-.797 1.43-1.915 1.43-3.354 0-1.473-.48-2.6-1.43-3.38-.96-.797-2.34-1.196-4.14-1.196h-4.83v9.1h4.83zm15.58-6.344c1.79 0 3.16.451 4.11 1.352.96.884 1.43 2.201 1.43 3.952V435h-1.77v-2.132c-.41.711-1.03 1.265-1.84 1.664-.8.399-1.75.598-2.86.598-1.53 0-2.74-.364-3.64-1.092-.9-.728-1.35-1.69-1.35-2.886 0-1.161.41-2.097 1.24-2.808.85-.711 2.2-1.066 4.03-1.066h4.35v-.832c0-1.179-.33-2.071-.99-2.678-.66-.624-1.62-.936-2.89-.936a7.1 7.1 0 0 0-2.49.442c-.8.277-1.49.667-2.06 1.17l-.83-1.378c.69-.589 1.53-1.04 2.5-1.352a9.462 9.462 0 0 1 3.06-.494zm-.65 12.454c1.04 0 1.94-.234 2.68-.702.75-.485 1.3-1.179 1.67-2.08v-2.236h-4.29c-2.34 0-3.51.815-3.51 2.444 0 .797.3 1.43.91 1.898.6.451 1.45.676 2.54.676zm17.48-5.798c.97.225 1.72.615 2.24 1.17.54.555.8 1.231.8 2.028 0 .797-.27 1.508-.83 2.132-.53.624-1.27 1.109-2.21 1.456-.93.329-1.96.494-3.09.494-.99 0-1.96-.139-2.91-.416-.96-.295-1.79-.719-2.5-1.274l.62-1.378c.63.468 1.36.832 2.19 1.092.83.26 1.67.39 2.52.39 1.27 0 2.3-.234 3.09-.702.82-.485 1.23-1.135 1.23-1.95 0-.728-.33-1.291-.99-1.69-.66-.416-1.56-.624-2.71-.624h-2.34v-1.352h2.24c1.02 0 1.85-.191 2.47-.572.62-.399.94-.927.94-1.586 0-.728-.36-1.3-1.07-1.716-.69-.416-1.6-.624-2.73-.624-1.47 0-2.93.373-4.37 1.118l-.52-1.43c1.63-.849 3.32-1.274 5.07-1.274 1.04 0 1.98.156 2.81.468.85.295 1.51.719 1.98 1.274.48.555.72 1.196.72 1.924 0 .693-.24 1.309-.72 1.846-.47.537-1.11.936-1.93 1.196zm15.95.052c1.85.433 2.78 1.551 2.78 3.354 0 1.196-.44 2.115-1.33 2.756-.88.641-2.2.962-3.95.962h-6.21v-13.676h6.03c1.56 0 2.78.303 3.66.91.89.607 1.33 1.473 1.33 2.6 0 .745-.21 1.387-.62 1.924-.4.52-.97.91-1.69 1.17zm-6.92-.52h4.11c1.05 0 1.86-.199 2.42-.598.57-.399.85-.979.85-1.742s-.28-1.335-.85-1.716c-.56-.381-1.37-.572-2.42-.572h-4.11v4.628zm4.34 6.136c1.18 0 2.06-.191 2.65-.572.59-.381.89-.979.89-1.794 0-.815-.27-1.413-.81-1.794-.54-.399-1.39-.598-2.55-.598h-4.52v4.758h4.34zm9.68-12.22h1.85v10.868l9.13-10.868h1.63V435h-1.84v-10.868l-9.1 10.868h-1.67v-13.676zm27.52 1.638h-5.17V435h-1.85v-12.038h-5.17v-1.638h12.19v1.638zm2.67-1.638h1.85v10.868l9.13-10.868h1.63V435h-1.84v-10.868l-9.1 10.868h-1.67v-13.676zm29.86 7.41h-11.44c.11 1.421.65 2.574 1.64 3.458.99.867 2.24 1.3 3.75 1.3.85 0 1.63-.147 2.34-.442a5.24 5.24 0 0 0 1.84-1.352l1.04 1.196c-.6.728-1.37 1.283-2.29 1.664-.9.381-1.89.572-2.99.572-1.4 0-2.65-.295-3.74-.884a6.569 6.569 0 0 1-2.52-2.496c-.61-1.057-.91-2.253-.91-3.588s.28-2.531.86-3.588c.59-1.057 1.38-1.881 2.39-2.47 1.02-.589 2.16-.884 3.43-.884s2.4.295 3.41.884c1 .589 1.79 1.413 2.36 2.47.57 1.04.86 2.236.86 3.588l-.03.572zm-6.6-5.928c-1.32 0-2.43.425-3.33 1.274-.88.832-1.38 1.924-1.51 3.276h9.7c-.12-1.352-.63-2.444-1.53-3.276-.89-.849-2-1.274-3.33-1.274zm-102.1 30.856c1.26 0 2.39.286 3.38.858a5.87 5.87 0 0 1 2.34 2.366c.55 1.005.83 2.158.83 3.458 0 1.335-.3 2.522-.89 3.562a6.024 6.024 0 0 1-2.41 2.392c-1.04.572-2.24.858-3.59.858-2.27 0-4.03-.797-5.28-2.392-1.25-1.595-1.87-3.796-1.87-6.604 0-2.929.55-5.174 1.66-6.734 1.13-1.56 2.88-2.617 5.25-3.172l6.14-1.404.31 1.69-5.77 1.326c-1.96.433-3.4 1.205-4.32 2.314-.91 1.092-1.42 2.713-1.5 4.862.55-1.057 1.32-1.881 2.31-2.47.99-.607 2.12-.91 3.41-.91zm-.29 11.96c.95 0 1.8-.217 2.55-.65a4.655 4.655 0 0 0 1.77-1.872c.43-.797.65-1.699.65-2.704 0-1.005-.21-1.889-.63-2.652-.41-.763-1-1.352-1.77-1.768-.74-.433-1.6-.65-2.57-.65-.97 0-1.84.217-2.6.65-.75.416-1.33 1.005-1.77 1.768-.41.763-.62 1.647-.62 2.652 0 1.005.21 1.907.62 2.704.44.797 1.03 1.421 1.8 1.872.76.433 1.62.65 2.57.65zm10.79-12.298h1.85v10.868l9.13-10.868h1.63V467h-1.84v-10.868l-9.1 10.868h-1.67v-13.676zm24.28 6.552c.97.225 1.72.615 2.24 1.17.53.555.8 1.231.8 2.028 0 .797-.27 1.508-.83 2.132-.54.624-1.27 1.109-2.21 1.456-.93.329-1.97.494-3.09.494-.99 0-1.96-.139-2.91-.416-.96-.295-1.79-.719-2.5-1.274l.62-1.378c.63.468 1.36.832 2.19 1.092.83.26 1.67.39 2.52.39 1.26 0 2.3-.234 3.09-.702.82-.485 1.23-1.135 1.23-1.95 0-.728-.33-1.291-.99-1.69-.66-.416-1.56-.624-2.71-.624h-2.34v-1.352h2.24c1.02 0 1.85-.191 2.47-.572.62-.399.94-.927.94-1.586 0-.728-.36-1.3-1.07-1.716-.69-.416-1.6-.624-2.73-.624-1.47 0-2.93.373-4.37 1.118l-.52-1.43c1.63-.849 3.32-1.274 5.07-1.274 1.04 0 1.98.156 2.81.468.85.295 1.51.719 1.98 1.274.48.555.72 1.196.72 1.924 0 .693-.24 1.309-.72 1.846-.47.537-1.11.936-1.93 1.196zm7.23-6.552h1.85v6.058h8.61v-6.058h1.84V467h-1.84v-6.032h-8.61V467h-1.85v-13.676zm29.51 7.41h-11.44c.1 1.421.65 2.574 1.64 3.458.99.867 2.23 1.3 3.74 1.3.85 0 1.63-.147 2.34-.442a5.276 5.276 0 0 0 1.85-1.352l1.04 1.196a5.856 5.856 0 0 1-2.29 1.664c-.9.381-1.9.572-2.99.572-1.4 0-2.65-.295-3.74-.884a6.595 6.595 0 0 1-2.53-2.496c-.6-1.057-.91-2.253-.91-3.588s.29-2.531.86-3.588a6.466 6.466 0 0 1 2.39-2.47c1.03-.589 2.17-.884 3.44-.884 1.26 0 2.4.295 3.4.884a6.209 6.209 0 0 1 2.37 2.47c.57 1.04.86 2.236.86 3.588l-.03.572zm-6.6-5.928c-1.32 0-2.43.425-3.33 1.274-.89.832-1.39 1.924-1.51 3.276h9.7c-.12-1.352-.64-2.444-1.54-3.276-.88-.849-1.99-1.274-3.32-1.274zm16.43 12.324c-1.35 0-2.56-.295-3.64-.884a6.372 6.372 0 0 1-2.49-2.47c-.61-1.075-.91-2.279-.91-3.614s.3-2.531.91-3.588a6.372 6.372 0 0 1 2.49-2.47c1.08-.589 2.29-.884 3.64-.884 1.18 0 2.23.234 3.15.702a5.196 5.196 0 0 1 2.21 2.002l-1.38.936c-.45-.676-1.02-1.179-1.72-1.508a4.948 4.948 0 0 0-2.26-.52c-.99 0-1.88.225-2.68.676-.78.433-1.39 1.057-1.84 1.872-.44.815-.65 1.742-.65 2.782 0 1.057.21 1.993.65 2.808a4.895 4.895 0 0 0 1.84 1.872c.8.433 1.69.65 2.68.65.82 0 1.57-.165 2.26-.494.7-.329 1.27-.832 1.72-1.508l1.38.936a5.366 5.366 0 0 1-2.21 2.028c-.94.451-1.99.676-3.15.676zm13.64-13.91c1.78 0 3.15.451 4.11 1.352.95.884 1.43 2.201 1.43 3.952V467h-1.77v-2.132c-.42.711-1.03 1.265-1.85 1.664-.8.399-1.75.598-2.86.598-1.52 0-2.74-.364-3.64-1.092-.9-.728-1.35-1.69-1.35-2.886 0-1.161.42-2.097 1.25-2.808.85-.711 2.19-1.066 4.03-1.066h4.34v-.832c0-1.179-.33-2.071-.99-2.678-.66-.624-1.62-.936-2.88-.936-.87 0-1.7.147-2.5.442-.8.277-1.48.667-2.05 1.17l-.84-1.378c.7-.589 1.53-1.04 2.5-1.352a9.478 9.478 0 0 1 3.07-.494zm-.65 12.454c1.04 0 1.93-.234 2.68-.702.74-.485 1.3-1.179 1.66-2.08v-2.236h-4.29c-2.34 0-3.51.815-3.51 2.444 0 .797.3 1.43.91 1.898.61.451 1.46.676 2.55.676zm-252.3-183.58h1.46v11.6l8.96-11.6h1.34v14h-1.46v-11.58l-8.96 11.58h-1.34v-14zm16.14 3.48h1.42v4.66h6.62v-4.66h1.42v10.52h-1.42v-4.64h-6.62v4.64h-1.42v-10.52zm20.9 1.26h-3.98v9.26h-1.42v-9.26h-3.98v-1.26h9.38v1.26zm10.76 4.44h-8.8c.08 1.094.5 1.98 1.26 2.66.76.667 1.72 1 2.88 1 .66 0 1.26-.113 1.8-.34.55-.24 1.02-.586 1.42-1.04l.8.92c-.46.56-1.05.987-1.76 1.28-.69.294-1.46.44-2.3.44-1.08 0-2.04-.226-2.88-.68a5.124 5.124 0 0 1-1.94-1.92c-.46-.813-.7-1.733-.7-2.76 0-1.026.22-1.946.66-2.76.46-.813 1.07-1.446 1.84-1.9.79-.453 1.67-.68 2.64-.68.98 0 1.85.227 2.62.68a4.765 4.765 0 0 1 1.82 1.9c.44.8.66 1.72.66 2.76l-.02.44zm-5.08-4.56c-1.01 0-1.86.327-2.56.98-.68.64-1.06 1.48-1.16 2.52h7.46c-.09-1.04-.48-1.88-1.18-2.52-.68-.653-1.53-.98-2.56-.98zm15.69.12h-6.02v9.26h-1.42v-10.52h7.44v1.26zm7.47-1.34c.98 0 1.88.227 2.68.68.8.44 1.42 1.067 1.88 1.88.45.814.68 1.74.68 2.78 0 1.054-.23 1.987-.68 2.8a4.898 4.898 0 0 1-1.88 1.9c-.79.44-1.68.66-2.68.66-.86 0-1.63-.173-2.32-.52-.68-.36-1.24-.88-1.68-1.56v5.86h-1.42v-14.4h1.36v2.08a4.31 4.31 0 0 1 1.68-1.6c.7-.373 1.5-.56 2.38-.56zm-.1 9.44c.73 0 1.4-.166 2-.5a3.64 3.64 0 0 0 1.4-1.46c.34-.626.52-1.34.52-2.14s-.18-1.506-.52-2.12a3.653 3.653 0 0 0-1.4-1.46 3.94 3.94 0 0 0-2-.52c-.75 0-1.42.174-2.02.52a3.72 3.72 0 0 0-1.4 1.46c-.34.614-.5 1.32-.5 2.12s.16 1.514.5 2.14c.34.627.81 1.114 1.4 1.46.6.334 1.27.5 2.02.5zm11.95-9.44c1.37 0 2.43.347 3.16 1.04.73.68 1.1 1.694 1.1 3.04v6.52h-1.36v-1.64c-.32.547-.79.974-1.42 1.28-.61.307-1.35.46-2.2.46-1.17 0-2.11-.28-2.8-.84-.69-.56-1.04-1.3-1.04-2.22 0-.893.32-1.613.96-2.16.65-.546 1.69-.82 3.1-.82h3.34v-.64c0-.906-.25-1.593-.76-2.06-.51-.48-1.25-.72-2.22-.72-.67 0-1.31.114-1.92.34-.61.214-1.14.514-1.58.9l-.64-1.06c.53-.453 1.17-.8 1.92-1.04.75-.253 1.53-.38 2.36-.38zm-.5 9.58c.8 0 1.49-.18 2.06-.54.57-.373 1-.906 1.28-1.6v-1.72h-3.3c-1.8 0-2.7.627-2.7 1.88 0 .614.23 1.1.7 1.46.47.347 1.12.52 1.96.52zm19.5-.22v3.88h-1.34v-2.64h-9.62v-10.52h1.42v9.28h6.42v-9.28h1.42v9.28h1.7zm2.71-9.28h1.42v8.36l7.02-8.36h1.26v10.52h-1.42v-8.36l-7 8.36h-1.28v-10.52zm21.85 0v10.52h-1.3v-3.48h-3.7l-2.44 3.48h-1.54l2.62-3.68c-.81-.226-1.44-.613-1.88-1.16-.44-.546-.66-1.24-.66-2.08 0-1.173.4-2.066 1.2-2.68.8-.613 1.89-.92 3.28-.92h4.42zm-7.46 3.64c0 1.56.99 2.34 2.98 2.34h3.18v-4.72h-3.08c-2.05 0-3.08.794-3.08 2.38zM1482.97 566.4V579h-1.31v-11.448h-7.98V579h-1.31v-12.6h10.6zm8.82 3.06c.89 0 1.7.204 2.42.612.72.396 1.28.96 1.69 1.692.41.732.61 1.566.61 2.502 0 .948-.2 1.788-.61 2.52a4.382 4.382 0 0 1-1.69 1.71c-.71.396-1.52.594-2.42.594-.76 0-1.46-.156-2.08-.468a4.022 4.022 0 0 1-1.52-1.404v5.274h-1.27v-12.96h1.22v1.872a3.95 3.95 0 0 1 1.51-1.44c.64-.336 1.35-.504 2.14-.504zm-.09 8.496c.66 0 1.26-.15 1.8-.45.54-.312.96-.75 1.26-1.314.32-.564.47-1.206.47-1.926s-.15-1.356-.47-1.908a3.243 3.243 0 0 0-1.26-1.314 3.533 3.533 0 0 0-1.8-.468c-.67 0-1.27.156-1.81.468-.53.312-.95.75-1.26 1.314-.3.552-.45 1.188-.45 1.908s.15 1.362.45 1.926c.31.564.73 1.002 1.26 1.314.54.3 1.14.45 1.81.45zm11.46 1.134c-.91 0-1.73-.204-2.47-.612-.73-.42-1.3-.996-1.72-1.728-.42-.732-.63-1.56-.63-2.484 0-.924.21-1.752.63-2.484.42-.732.99-1.302 1.72-1.71.74-.408 1.56-.612 2.47-.612.91 0 1.73.204 2.47.612.73.408 1.3.978 1.71 1.71.42.732.63 1.56.63 2.484 0 .924-.21 1.752-.63 2.484a4.492 4.492 0 0 1-1.71 1.728c-.74.408-1.56.612-2.47.612zm0-1.134c.67 0 1.27-.15 1.8-.45.54-.312.96-.75 1.26-1.314.3-.564.45-1.206.45-1.926s-.15-1.362-.45-1.926c-.3-.564-.72-.996-1.26-1.296-.53-.312-1.13-.468-1.8-.468-.67 0-1.28.156-1.82.468-.53.3-.95.732-1.26 1.296-.3.564-.45 1.206-.45 1.926s.15 1.362.45 1.926c.31.564.73 1.002 1.26 1.314.54.3 1.15.45 1.82.45zm16.72-.072v3.402h-1.21V579h-8.47v2.286h-1.21v-3.402h.54c.64-.036 1.07-.504 1.3-1.404.22-.9.38-2.16.46-3.78l.13-3.168h6.98v8.352h1.48zm-7.42-5.112c-.06 1.344-.17 2.454-.34 3.33-.17.864-.47 1.458-.9 1.782h5.91v-7.218h-4.56l-.11 2.106zm15.94 1.332c1.28.3 1.93 1.074 1.93 2.322 0 .828-.31 1.464-.92 1.908-.61.444-1.53.666-2.74.666h-4.3v-9.468h4.18c1.08 0 1.92.21 2.53.63.62.42.92 1.02.92 1.8 0 .516-.14.96-.43 1.332-.28.36-.67.63-1.17.81zm-4.79-.36h2.85c.73 0 1.29-.138 1.67-.414.4-.276.59-.678.59-1.206 0-.528-.19-.924-.59-1.188-.38-.264-.94-.396-1.67-.396h-2.85v3.204zm3.01 4.248c.81 0 1.43-.132 1.83-.396.41-.264.62-.678.62-1.242s-.19-.978-.56-1.242c-.37-.276-.96-.414-1.77-.414h-3.13v3.294h3.01zm6.7-8.46h1.28v7.524l6.32-7.524h1.13V579h-1.28v-7.524l-6.3 7.524h-1.15v-9.468zm20.69 5.256h-2.05V579h-1.28v-4.212h-2.05l-2.9 4.212h-1.53l3.4-4.878-3.13-4.59h1.39l2.77 4.158h2.05v-4.158h1.28v4.158h2.05l2.79-4.158h1.39l-3.13 4.608 3.4 4.86h-1.53l-2.92-4.212zm14.52-.126h-7.92c.07.984.45 1.782 1.13 2.394.69.6 1.55.9 2.6.9.58 0 1.12-.102 1.62-.306.49-.216.91-.528 1.27-.936l.72.828a4 4 0 0 1-1.58 1.152c-.62.264-1.31.396-2.07.396-.97 0-1.84-.204-2.59-.612a4.527 4.527 0 0 1-1.75-1.728c-.42-.732-.63-1.56-.63-2.484 0-.924.2-1.752.6-2.484.4-.732.96-1.302 1.65-1.71.71-.408 1.5-.612 2.38-.612.87 0 1.66.204 2.36.612.69.408 1.24.978 1.63 1.71.4.72.6 1.548.6 2.484l-.02.396zm-4.57-4.104c-.91 0-1.68.294-2.31.882-.61.576-.96 1.332-1.04 2.268h6.71c-.08-.936-.43-1.692-1.06-2.268-.61-.588-1.38-.882-2.3-.882zm7.42-1.026h1.28v4.194h5.95v-4.194h1.28V579h-1.28v-4.176h-5.95V579h-1.28v-9.468zm12.14 0h1.28v7.524l6.32-7.524h1.13V579h-1.27v-7.524l-6.3 7.524h-1.16v-9.468zm20.68 5.13h-7.92c.07.984.45 1.782 1.13 2.394.68.6 1.55.9 2.59.9.59 0 1.13-.102 1.62-.306a3.66 3.66 0 0 0 1.28-.936l.72.828c-.42.504-.95.888-1.58 1.152-.63.264-1.32.396-2.07.396-.98 0-1.84-.204-2.6-.612a4.57 4.57 0 0 1-1.74-1.728c-.42-.732-.63-1.56-.63-2.484 0-.924.2-1.752.59-2.484.41-.732.96-1.302 1.66-1.71.71-.408 1.5-.612 2.37-.612.88 0 1.67.204 2.36.612.7.408 1.24.978 1.64 1.71.4.72.59 1.548.59 2.484l-.01.396zm-4.58-4.104c-.91 0-1.68.294-2.3.882-.61.576-.96 1.332-1.04 2.268h6.71c-.08-.936-.44-1.692-1.06-2.268-.61-.588-1.38-.882-2.31-.882z" fill="#fff"/></svg>