<svg width="586" height="537" fill="none" xmlns="http://www.w3.org/2000/svg"><path d="M44.008 306.878c0-52.618 39.405-96.008 90.315-102.334a145.78 145.78 0 0 1-.736-14.597c0-80.501 65.255-145.756 145.747-145.756 69.027 0 126.801 47.985 141.873 112.425 5.543-2.088 11.561-3.179 17.887-2.918 19.429.806 36.083 14.55 41.887 33.102 2.61 8.326 2.349 16.17.57 23.414 50.348 6.824 89.159 49.961 89.159 102.183a96.16 96.16 0 0 1-.118 4.784c-2.183 47.834-42.884 84.914-90.773 85.119l-336.751 1.408c-52.112.213-96.608-40.021-98.964-92.069a135.348 135.348 0 0 1-.096-4.761z" fill="#D5EAF5"/><path d="M44.01 306.876c0-52.617 39.405-96.007 90.315-102.334-.482-4.8-.736-9.67-.736-14.597 0-77.654 60.717-141.121 137.247-145.502 2.808-.166 8.493-.245 8.493-.245l-7.473 358.979-10.485.031-118.292.498c-52.112.214-96.608-40.02-98.965-92.069a118.443 118.443 0 0 1-.103-4.761z" fill="#BFE0EF"/><path d="M544.712 292.691c4.09-6.585-5.736-10.317-10.686-13.958 1.064 1.596 2.281 3.754-.357 3.376-3.866-.542-10.881-4.971-12.006-8.447-1.656 1.482-3.016 3.957-3.773 5.715-.982 2.281 25.697 15.114 26.822 13.314z" fill="#30193B"/><path d="M533.669 282.12c2.638.378 4.07-.92.757-3.098-2.956-1.933-5.031-4.255-5.492-4.776-1.196-1.34-.695-3.978-.695-3.978l-2.833-1.36s-3.251 4.336-3.732 4.755c1.104 3.477 8.13 7.915 11.995 8.457z" fill="#FF97A6"/><path d="M477.282 536.138c4.857-6.054-4.438-10.941-8.927-15.154.869 1.718 1.81 4.018-.756 3.313-3.764-1.023-10.206-6.249-10.891-9.828-1.83 1.258-3.467 3.539-4.428 5.196-1.258 2.147 23.683 18.13 25.002 16.473z" fill="#30193B"/><path d="M467.599 524.296c2.566.695 4.151-.44 1.134-2.976-2.699-2.301-4.489-4.858-4.887-5.41-1.033-1.483-.215-4.038-.215-4.038l-2.659-1.698s-3.753 3.916-4.285 4.294c.706 3.569 7.138 8.805 10.912 9.828z" fill="#FF97A6"/><path d="M410.713 168.865s52.99-5.635 54.053-5.389c6.985 11.248 96.972-37.232 114.509-23.591 25.871 20.094-35.678 123.385-45.955 131.637-3.211 2.618-10.563-1.861-10.563-1.861-2.894-7.506 7.567-38.204 12.925-50.965 13.877-33.112 12.507-39.001 12.507-39.001l-92.094 58.982c-11.79 2.392-45.382-69.812-45.382-69.812z" fill="#30193B"/><path d="M446.882 164.171l-45.802-4.438c-48.787 70.118-19.797 90.273-10.962 105.193 5.44 9.224 71.621 78.228 71.621 78.228s-8.211 166.905-3.967 167.682c4.745.859 8.712 3.375 12.077 2.495.419-.102 47.939-109.088 45.341-191.212-1.329-41.578-57.817-93.485-58.298-98.24-1.922-18.662-10.01-59.708-10.01-59.708z" fill="#2E2D42"/><path d="M382.908 190.443c-5.502-19.389-14.909-57.602-15.4-72.624-.235-7.352-1.115-22.589 9.622-27.784 5.369-2.597 58.257-16.8 77.901-10.062 8.702 2.955 18.304 16.361 18.304 16.361s-10.144 46.18-7.035 68.063c1.237 8.611-78.361 43.757-83.392 26.046z" fill="#3C8FE8"/><path d="M507.458 138.352c4.653-1.401 12.374 34.829-12.843 46.22 0 0-31.598 8.887-39.145-50.873l29.809 27.385s14.193-20.288 21.934-22.65c.082-.021.164-.042.245-.082z" fill="#2A76DD"/><path d="M448.066 154.714l46.252 9.183a2.864 2.864 0 0 0 3.364-2.26l14.746-74.352a2.843 2.843 0 0 0-2.25-3.354l-46.251-9.183a2.87 2.87 0 0 0-3.365 2.26l-14.745 74.352a2.847 2.847 0 0 0 2.249 3.354z" fill="#3B2B5B"/><path d="M451.237 155.348l43.082 8.549a2.864 2.864 0 0 0 3.364-2.259l14.398-72.584c.307-1.533-.696-3.037-2.25-3.354l-43.101-8.55a2.865 2.865 0 0 0-3.355 2.262l-14.398 72.583a2.876 2.876 0 0 0 2.26 3.353z" fill="#4C4DC3"/><path d="M431.809 139.171c.378.88 1.155 1.36 1.922 1.176 1.953-.44 2.618.164 6.299-.654 0 0 5.747.234 7.005-3.314 0 0 1.636-5.072 1.175-6.708-.163-.522-1.379-1.401-1.379-1.401s5.572-3.579 4.478-4.315c-1.114-.716-9.51 2.322-12.026 4.51 0 0 2.68-2.536 1.77-3.354-.91-.839-6.361 3.834-7.158 6.289 0 0-1.575 2.321-2.598 3.18-.706.593-.194 3.017.512 4.591zm68.738-12.639c-.46-.879-.981-2.095-.45-2.494.174-.122.399-.02.635.164.02-.021.02-.062.03-.102.143-.358-.051-1.924.348-1.995.511-.123 1.237.164 1.953.563 0-.143.051-.235.235-.215 1.38.205 2.414 1.339 3.078 2.301.297.296.542.716.705 1.217.041.082.062.143.062.143l-.02-.021c1.186 3.651-.399 11.586-1.729 13.263-.981 1.196.082 3.558-.593 4.274-1.207 1.319-2.945.144-2.945.144l.46-7.875c.01-.02-1.564-5.675-1.769-9.367zm-80.519-55.944s.071 12.24-1.391 13.283c-1.462 1.063-6.177 1.84-8.109-1.656-1.933-3.477 2.7-13.14 2.7-13.14l6.8 1.513z" fill="#FF97A6"/><path d="M419.701 79.415c-2.812.44-6.289-1.923-8.764-4.592.358-2.157.522-1.462 1.197-3.2l7.873 1.738c-.041 1.76-.122 4.06-.306 6.054z" fill="#C95D77"/><path d="M406.47 63.293c-.44-1.82 1.012-8.047 2.382-13.201 1.125-4.295 5.594-6.79 9.838-5.533 6.606 1.923 13.784 4.459 15.471 6.228 2.639 2.771 1.657 7.292 1.002 10.666-.644 3.375-3.026 9.183-5.695 11.525-2.434 2.137-8.334 3.18-11.371 2.412-9.122-2.27-11.177-5.225-11.627-12.097z" fill="#FF97A6"/><path d="M382.908 190.438c-5.501-19.388-14.909-57.601-15.4-72.623-.235-7.352-1.114-22.59 9.623-27.784 1.912-.92 9.786-3.293 20.042-5.696a549.436 549.436 0 0 1 4.479-1.002s.563 30.8 11.228 52.663c11.924 24.43 36.507 41.364 36.507 41.364s-1.074.542-1.626.818c-23.509 11.903-61.437 24.317-64.853 12.26z" fill="#2A76DD"/><path d="M392.172 85.564s-13.487.921-22.854 10.626c-4.459 4.612-6.647 11.565-8.498 20.707-2.914 14.378-5.982 30.381-4.98 41.558 1.176 13.222 14.184 20.656 26.864 16.76 0 0-8.202-50.188 1.155-73.278 4.264-10.584 8.313-16.373 8.313-16.373z" fill="#2A76DD"/><path d="M431.124 130.498c-1.176-1.616-58.093 23.652-64.096 26.679-5.573 2.833-13.58 9.204-2.178 16.239 4.274 2.638 12.823 6.156 27.426 3.998 24.848-3.671 64.453-12.056 38.848-46.916z" fill="#2A76DD"/><path d="M417.42 135.151c-7.035 2.055-13.979 4.336-20.912 6.647-6.933 2.341-13.825 4.796-20.707 7.23l1.401.715c-1.708-6.626-2.659-13.56-3.119-20.452-.378-6.892-.082-13.875 1.953-20.594-1.442 3.201-2.3 6.646-2.914 10.103-.501 3.497-.675 7.035-.675 10.542.102 7.066 1.094 14.041 2.679 20.954.143.562.685.919 1.258.776l.123-.041h.03c6.862-2.536 13.734-5.031 20.554-7.669 6.821-2.639 13.611-5.287 20.329-8.211z" fill="#0156C9"/><path d="M423.035 38.313c.859-.521.603-.44 1.595-.654.624-.143.92.777.296.961-.981.297-.715.277-1.717.256-.287-.03-.43-.41-.174-.563z" fill="#FF5E4D"/><path d="M407.676 30.438c-.338-1.718-.808-3.497-1.565-5.174-.286-.583.266-1.003.818-1.003 1.943.144 3.62.696 5.287 1.576-.307-.696-.614-1.34-.921-2.035-.224-.583.502-1.176 1.064-.941 3.047 1.483 6.238 4.018 8.099 7.106 8.201-5.511 16.842-6.789 26.434-4.355 1.002.215.941 1.595-.082 1.759-8.937 1.36.634 1.512 2.935 2.28 2.055.654 3.384 1.319 5.113 2.372 4.151 2.393 7.199 5.972 10.246 9.572.675.838-.501 1.738-1.278 1.196-4.111-2.761-8.385-3.753-12.782-2.996-1.514-.041-1.933.06-1.197.235.215.337 5.133 3.099 5.389 3.314.716.603.256 1.594-.511 1.737-8.14 1.483-10.615 6.831-19.46 5.952-3.651-.317-7.486-1.84-10.973-2.976-7.106-3.374-10.46-2.055-14.254 4.694-1.166 2.474-2.342 4.878-3.436 7.393-.562 1.258-1.749 1.902-2.822-1.442-1.279-7.945-.041-20.472 3.896-28.264z" fill="#FF5E4D"/><path d="M412.216 25.848l-.736-1.717c-.44-.522.01-1.28.634-1.259 1.084.42 2.168 1.176 3.16 1.881 1.984 1.463 3.742 3.252 4.969 5.37a.265.265 0 0 0 .348.101l.01-.02c5.287-3.538 11.555-5.573 17.906-5.368 1.574.04 3.149.214 4.714.44.777.163 1.554.275 2.331.48l1.156.276c.347.06.419.184.47.399a.452.452 0 0 1-.296.48c-.195.062-.737.144-1.095.205-.798.123-1.574.256-2.413.522l-.358.164c-.041-.082-.552.541-.337.756a1.4 1.4 0 0 0 .317.378l.184.061c.123.041.256.102.348.123.429.122.828.185 1.227.236l2.372.337c3.139.235 5.941 1.82 8.589 3.497 2.628 1.698 4.879 3.978 6.985 6.33l1.564 1.8c.665.735.808.92.297 1.176-.317.256-1.033-.501-1.759-.839a20.915 20.915 0 0 0-2.198-1.073c-2.997-1.299-6.402-1.719-9.603-1.095l.062-.02h-1.002c-.184.02-.317.02-.563.061-.041.02-.071.02-.174.081 0 0-.112.042-.173.256-.021.205.041.215.102.318.164.143.204.123.245.143l.266.081-.214-.163c1.176.96 2.127 1.38 3.221 2.055l1.574.92c.563.318 1.023.543.92.983-.092.5-.46.643-1.124.735-.614.123-1.207.277-1.8.46a20.452 20.452 0 0 0-3.426 1.401c-2.208 1.074-4.233 2.456-6.503 3.314-2.25.9-4.735 1.156-7.158.962 2.413.276 4.928.122 7.25-.717 2.341-.797 4.428-2.116 6.626-3.098 1.094-.522 2.219-.981 3.375-1.298a17.302 17.302 0 0 1 1.738-.44c.491-.042 1.554-.337 1.626-1.217.174-.94-.777-1.401-1.207-1.636l-1.564-.941c-.992-.583-2.219-1.298-2.965-1.84l-.205-.164h-.021l-.194-.062s-.072-.04.031.04c.061.083.081.083.081.257-.061.215-.132.215-.132.215-.072.04-.052.04-.052.04a1.91 1.91 0 0 1 .399-.04l.961.02c.031 0 .082-.02.082-.02 3.099-.542 6.299-.103 9.162 1.175.716.297 1.422.655 2.087 1.064l1.002.624c.214.215 1.022.582 1.513.296.511-.164 1.023-.736.88-1.442-.215-.675-.563-.818-.778-1.176l-1.564-1.82c-4.101-4.837-9.49-9.407-16.147-10.184l-2.372-.297c-.378-.062-.777-.123-1.115-.205-.112-.02-.163-.06-.214-.081l-.103-.042c.041.02.103.082.103.164.143.102-.164.48-.061.337l.204-.081c.674-.215 1.482-.379 2.26-.522.419-.082.685-.081 1.257-.235.573-.204.941-.838.839-1.421-.02-.624-.675-1.115-1.135-1.135l-1.176-.256c-.777-.204-1.575-.297-2.372-.46-1.596-.215-3.212-.378-4.837-.399-6.494-.143-12.916 2.035-18.192 5.716l.368.082c-1.36-2.157-3.201-3.916-5.266-5.327-1.064-.675-2.076-1.381-3.303-1.78-.726-.041-1.166.9-.685 1.422l.777 1.656z" fill="#FF8C83"/><path d="M153.841.639l-16.469 20.109-97.255-18.88L153.84.638z" fill="#D5EAF5"/><path d="M138.552 19.706c-1.18 1.04-1.707 31.055-1.707 31.055l-5.016-24.876L40.74 2.003l97.812 17.704z" fill="#AACBE8"/><path d="M99.763 38.209l37.081 12.553-5.023-24.875-49.383.575L99.763 38.21z" fill="#92BDDD"/><path d="M131.825 25.887c-.569.165-11.03 26.656-11.03 26.656L40.113 1.868l91.712 24.019z" fill="#D5EAF5"/><path d="M25.627 478.424c-1.054-3.332 11.511-13.388 16.23-15.181-1.446 1.198-3.523 3.694-1.4 4.755 3.112 1.547 9.464-.532 11.677-3.815.665 2.599.694 6.15.57 8.563-.158 3.126-24.6 13.499-27.077 5.678z" fill="#3B2B5B"/><path d="M36.744 470.74c-2.138-1.06 2.97-5.856 4.41-7.045 3.748-2.455 4.76-2.631 5.3-2.957 1.447-.826 1.913-2.717 1.913-2.717l2.403-.265s-.744 2.051.628 4.461c.31.541.554 1.218.745 1.966-2.213 3.283-12.294 8.104-15.4 6.557z" fill="#FF97A6"/><path d="M256.586 241.299s-47.635-.26-48.556.051c-5.206 10.619-55.698 35.507-85.011 62.474-13.315 12.256-84.877 148.844-76.575 156.902 5.428 5.297 7.609 1.677 7.609 1.677 2.205.221 82.387-102.641 102.409-117.959 14.135-10.783 55.7-35.103 55.7-35.103 10.716 1.076 44.424-68.042 44.424-68.042z" fill="#30193B"/><path d="M32.617 487.728c-1.062-3.332 11.503-13.388 16.222-15.182-1.446 1.215-3.522 3.712-1.4 4.773 3.121 1.546 9.465-.532 11.678-3.815.664 2.582.692 6.133.57 8.563-.158 3.125-24.608 13.499-27.07 5.661z" fill="#3B2B5B"/><path d="M43.716 480.062c-2.138-1.06 2.97-5.856 4.409-7.061 3.741-2.438 4.761-2.632 5.301-2.949 1.438-.843 1.912-2.726 1.912-2.726l2.405-.247s-.738 2.033.626 4.444c.31.541.554 1.219.746 1.982-2.212 3.283-12.294 8.105-15.399 6.557z" fill="#FF97A6"/><path d="M231.582 238.848l32.769-6.539c67.677 67.345 16.313 102.316-19.516 117.129-27.737 11.482-35.224 4.831-83.589 38.11-13.407 9.213-90.891 87.747-102.541 85.701-6.022-1.058-5.525-3.835-6.211-8.06-.114-.703 69.073-115.224 91.272-133.012 29.108-23.326 75.624-36.415 78.199-45.747 4.045-14.662 9.617-47.582 9.617-47.582z" fill="#3B2B5B"/><path d="M224.983 113.891s11.556-15.965 27.613-6.124c11.988 7.316 25.386 21.651 22.775 40.378-2.611 18.726-17.968 20.246-17.968 20.246l-46.075-5.72 13.655-48.78z" fill="#FFCB48"/><path d="M215.634 162.484l.003.066a42.29 42.29 0 0 1-.02 4.802c-.228 14.679-7.79 41.07-21.721 57.7-18.18 21.681-16.498-11.443-16.498-11.443s10.401-27.427 15.415-41.388c3.137-8.76 22.029-24.519 22.821-9.737z" fill="#83AEDD"/><path d="M191.164 219.611c1 21.118-38.506 52.369-63.612 66.762-2.519 1.459-5.733.637-7.298-1.811a143.745 143.745 0 0 1-4.003-6.597c-9.702-16.831 4.365-25.728 14.379-34.004 10.022-8.276 43.881-28.233 43.881-28.233s15.85-13.282 16.653 3.883z" fill="#83AEDD"/><path d="M198.983 185.483c-2.218 21.002-2.939 29.557 4.988 56.059 2.312 7.765 77.134 11.421 77.906 6.942.28-1.614 2.493-14.265 3.714-20.977 5.854-32.241 8.103-41.629 3.341-53.426-3.312-8.212-5.288-17.903-48.574-21.215-13.579-1.043-31.361 4.105-36.346 5.611-8.028 2.44-4.099 18.232-5.029 27.006z" fill="#AACBE8"/><path d="M239.997 291.715l-.454 7.882-38.953 16.323-32.196-2.81 32.889-7.296 38.714-14.099z" fill="#696886"/><path d="M95.99 299.041l103.712 7.334 40.294-14.664-143.115-8.165-.891 15.495z" fill="#AFBBC6"/><path d="M195.679 231.118l-102.118-2.647-8.52.63 105.986 2.822 4.652-.805z" fill="#7F65C1"/><path d="M228.903 116.474c.055.132.119.239.182.354.339.709-.722 1.306-1.077.614a2.31 2.31 0 0 0-.182-.354c-.339-.701.722-1.306 1.077-.614zm-13.828 24.592c8.081-2.383 6.564-10.85 9.122-17.061 1.455-3.548 3.308-4.653 6.118-1.483.132.146-.001.378-.197.319-1.376-.425-3.162-.371-4.4.567-.921.691-1.285 3.593-1.564 4.829-.578 2.582-.826 5.244-1.879 7.694-1.313 3.081-3.631 5.598-7.117 5.736-.36.022-.398-.505-.083-.601z" fill="#FFCB48"/><path d="M235.779 152.746s-8.119 19.74-9.085 42.077c-1.017 23.582 5.141 49.928 6.65 53.93 0 0-18.192.525-27.305-4.756-1.357-.786-2.353-2.005-2.765-3.517-2.425-8.725-11.574-44.504-4.44-65.59 8.154-24.157 36.945-22.144 36.945-22.144z" fill="#83AEDD"/><path d="M228.642 248.458c5.168-2.814 22.808-14.344 32.788-24.338 5.733-5.732 7.316-25.601 7.316-25.601s8.51-47.696 21.675-27.543c9.03 13.819-2.039 57.696-16.451 81.512-5.256 8.683-50.399-1.287-45.328-4.03z" fill="#D5EAF5"/><path d="M253.152 238.101s-68.443 27.221-68.474 36.463c-.029 9.267 23.867 21.023 30.831 18.633 6.972-2.389 55.709-23.672 60.691-47.192 4.642-21.912-23.048-7.904-23.048-7.904z" fill="#D5EAF5"/><path d="M95.557 306.763l105.034 9.154-9.563-83.995L85.043 229.1l10.514 77.663z" fill="#2E2D42"/><path d="M204.552 313.367l-3.961 2.548-9.563-83.994 4.651-.804 8.873 82.25z" fill="#696886"/><path d="M234.878 116.256s-6.182-12.052-15.544-9.828c-9.363 2.223-8.1 12.758-8.889 18.714-.782 5.948-2.303 10.993-12.16 22.611-9.857 11.601-6.886 22.041-4.631 30.051 0 0 3.387 8.436.962 10.797-2.174 2.1-3.473-1.667-4.733-1.701-1.159-.005-3.39 12.151 7.685 13.351 17.575 1.935 17.76-17.862 20.122-26.936 2.361-9.09 13.282-3.704 16.605-15.224 3.33-11.537.583-41.835.583-41.835z" fill="#FFCB48"/><path d="M231.407 137.869s2.074 15.805 3.301 17.326c1.236 1.538 4.746 3.078 5.518-1.182.771-4.277-4.215-17.29-4.215-17.29l-4.604 1.146z" fill="#FF97A6"/><path d="M232.948 148.041c2.082.883 5.439-1.264 5.483-4.396-.64-2.829-.407-1.184-1.186-3.495l-5.337 1.327c.324 2.261.559 3.939 1.04 6.564z" fill="#C95D77"/><path d="M240.063 138.609c1.257-2.391.558-12.266.558-12.266-2.087-6.951-17.392-4.333-19.767-2.83-2.612 1.664-2.726 5.37-2.869 8.112-.143 2.758.581 7.731 2.217 10.059 1.486 2.14 5.902 4.097 8.411 4.091 7.578.003 9.778-1.905 11.45-7.166z" fill="#FF97A6"/><path d="M222.024 123.004s5.467-2.053 7.801.725c2.334 2.778 4.275 15.635 14.931 14.065 10.656-1.553-8.657-20.54-8.657-20.54s-14.114-3.556-14.075 5.75z" fill="#FFCB48"/><path d="M270.877 159.964c4.896-5.472 6.259-13.457 5.228-20.668-.87-7.376-4.428-14.169-8.845-19.995-4.476-5.808-10.163-10.846-17.02-13.84-6.945-2.874-15.627-1.692-20.897 3.87l.757.037c-1.665-1.999-4.009-3.333-6.538-3.627-1.23-.12-2.512-.078-3.698.296-1.213.308-2.307.88-3.374 1.476 1.112-.522 2.235-1.003 3.426-1.234 1.189-.274 2.416-.23 3.582-.041 2.349.403 4.431 1.907 5.827 3.69a.5.5 0 0 0 .7.089l.04-.035.017-.017c5.05-4.95 13.229-5.683 19.553-3.02 6.441 2.877 11.859 7.875 16.298 13.39 4.384 5.61 7.787 12.106 8.971 19.135.642 3.516.666 7.123.1 10.654-.591 3.523-1.846 7.014-4.127 9.84z" fill="#FFDA88"/></svg>