<svg width="300" height="59" fill="none" xmlns="http://www.w3.org/2000/svg"><path d="M99.68 41.294l-.019-.01.018-.048V17.14H75.498v24.182H99.68v-.027z" fill="#2E338B"/><path d="M41.281 41.321V17.14H17.097v24.143l.018.04H41.28z" fill="#00947E"/><path d="M58.38 34.198l17.098-17.099L58.38 0 41.281 17.098l17.1 17.1z" fill="#007AC1"/><path d="M82.578 58.42h34.197L99.67 41.322l-17.092 17.1z" fill="#CF1E63"/><path d="M17.11 41.334l-.043.018L0 58.421h34.197L17.11 41.334z" fill="#F3981F"/><path d="M75.49 41.323H65.476v10.016H75.49V41.323z" fill="#2E338B"/><path d="M51.303 41.323H41.285v10.016h10.018V41.323z" fill="#00947E"/><path d="M65.476 41.313l-7.084-7.081-7.08 7.083 7.085 7.08 7.08-7.082z" fill="#007AC1"/><path d="M68.405 58.42h14.166l-7.085-7.081-7.08 7.082z" fill="#CF1E63"/><path d="M34.204 58.42H48.37l-7.084-7.081-7.08 7.082z" fill="#F3981F"/><path d="M34.905 1.751L30.4 12.628l10.881 4.51 4.506-10.882L34.905 1.75z" fill="#2E338B"/><path d="M81.844 1.731L70.967 6.238l4.501 10.883 10.885-4.509-4.509-10.88z" fill="#00947E"/><path d="M110.544 45.788l4.501-10.878-10.875-4.505-4.491 10.832v.057l10.865 4.494z" fill="#F3981F"/><path d="M99.68 41.295v-.059l-.019.049.019.01z" fill="#F3981F"/><path d="M17.097 41.282l-4.49-10.836-10.88 4.51L6.236 45.83l10.832-4.479.03-.03v-.04z" fill="#CF1E63"/><path d="M17.115 41.321h-.018l.013.013.008-.004-.003-.009z" fill="#CF1E63"/><path d="M17.116 41.325l-.02-.043v.043h.02z" fill="#CF1E63"/><path d="M17.066 41.355l.048-.02-.015-.014-.033.034z" fill="#CF1E63"/><path d="M291.921 10.1c2.476 0 4.667-1.422 4.667-3.928v-.368h-2.729v.34c0 1.254-1 1.824-1.938 1.824-.937 0-1.906-.57-1.906-1.795v-.368h-2.756v.368c0 2.505 2.188 3.926 4.662 3.926zm-141.848.91h-3.67v17.04h-8.733V11.01h-3.672v20.198h15.191v3.982h3.272v-7.14h-2.388V11.01zm22.35 0h-3.642l-7.624 11.633c-.741 1.197-1.708 3.159-1.708 3.159h-.057s.2-1.933.2-3.13V11.01h-3.673v20.198h3.642l7.683-11.635c.739-1.195 1.677-3.13 1.677-3.13h.057s-.198 1.934-.198 3.13v11.635h3.642V11.01h.001zm12.645-1.137v2.218c-5.489 0-9.245 3.441-9.245 8.362 0 5.007 3.755 8.534 9.245 8.534v2.563h3.671v-2.563c5.519 0 9.245-3.527 9.245-8.534 0-4.92-3.756-8.362-9.245-8.362V9.873h-3.671zm0 16.042c-3.243 0-5.489-2.217-5.489-5.461 0-3.157 2.246-5.29 5.489-5.29v10.751zm3.671 0v-10.75c3.272 0 5.519 2.133 5.519 5.289-.002 3.244-2.247 5.461-5.519 5.461zm20.413-14.905h-7.797v20.198h3.672v-6.97h4.124c3.783 0 6.427-2.73 6.427-6.657.001-3.927-2.643-6.57-6.426-6.57zm-.685 10.042h-3.44V14.17h3.499c2.075 0 3.326 1.335 3.326 3.412.001 2.106-1.251 3.471-3.385 3.471zm19.538 10.499c5.944 0 10.44-4.639 10.44-10.582 0-5.776-4.496-10.3-10.44-10.3-5.946 0-10.441 4.524-10.441 10.3 0 5.943 4.495 10.582 10.441 10.582zm0-3.358c-3.699 0-6.657-3.13-6.657-7.224 0-3.928 2.958-6.943 6.657-6.943 3.7 0 6.658 3.015 6.658 6.943 0 4.094-2.959 7.223-6.658 7.223zm14.125 3.015h7.313c3.726 0 6.969-1.822 6.969-5.86 0-2.047-1.053-4.096-3.273-4.75v-.06c1.539-.823 2.447-2.446 2.447-4.321 0-3.33-2.586-5.207-6.259-5.207h-7.197v20.198zm9.728-14.537c0 1.449-.907 2.588-2.501 2.588H245.8v-5.091h3.499c1.68 0 2.559 1.053 2.559 2.503zm-2.131 11.38h-3.925v-5.832h3.925c1.849 0 2.93 1.223 2.93 2.901 0 1.706-1.053 2.93-2.93 2.93zm19.647-17.381c-5.947 0-10.439 4.523-10.439 10.299 0 5.942 4.492 10.582 10.439 10.582 5.943 0 10.44-4.639 10.44-10.582 0-5.776-4.497-10.3-10.44-10.3zm0 17.523c-3.7 0-6.657-3.13-6.657-7.224 0-3.928 2.958-6.943 6.657-6.943s6.657 3.015 6.657 6.943c0 4.094-2.958 7.224-6.657 7.224zm26.987-17.183l-7.625 11.633c-.74 1.197-1.708 3.159-1.708 3.159h-.059s.201-1.933.201-3.13V11.01h-3.669v20.198h3.64l7.68-11.635c.74-1.195 1.679-3.13 1.679-3.13h.057s-.197 1.934-.197 3.13v11.635H300V11.01h-3.639zm-157.26 38.522h-3.467V44.84h6.957v-1.484h-8.593V58.4h5.229c2.566 0 4.359-1.811 4.359-4.403 0-2.755-1.719-4.465-4.485-4.465zm-.086 7.382h-3.381v-5.897h3.362c1.771 0 2.917 1.17 2.917 2.98 0 1.828-1.083 2.917-2.898 2.917zm19.64-13.505l-.02-.055h-1.689l-5.522 15.044h1.73l1.692-4.738h5.867l1.692 4.683.022.056h1.728l-5.5-14.99zm-3.302 8.808l1.925-5.276c.186-.512.406-1.317.511-1.718.108.4.328 1.206.512 1.718l1.906 5.276h-4.854zm23.555-1.77c.855-.44 2.124-1.42 2.124-3.37 0-2.418-1.736-3.98-4.423-3.98-1.688 0-3.098.485-4.306 1.48l-.058.045.765 1.295.079-.065c.998-.828 2.134-1.25 3.372-1.25 1.814 0 2.898.98 2.898 2.623 0 1.518-1.274 2.662-2.963 2.662h-1.586v1.444h1.967c1.835 0 3.067 1.11 3.067 2.77 0 1.809-1.385 3.023-3.448 3.023-1.298 0-2.692-.627-3.553-1.6l-.066-.075-.933 1.137-.047.057.047.054c1.026 1.188 2.837 1.954 4.614 1.954 2.991 0 5.079-1.851 5.079-4.505.002-1.803-.978-3.175-2.629-3.699zm17.827-7.038l-.021-.055h-1.688l-5.521 15.043h1.728l1.692-4.737h5.867l1.694 4.683.019.055h1.73l-5.5-14.99zm-1.376 3.533c.184-.512.405-1.317.512-1.717.107.4.326 1.205.512 1.717l1.905 5.276h-4.854l1.925-5.276zm21.233-3.587h-5.228V58.4h1.635v-5.84h3.592c2.755 0 4.679-1.905 4.679-4.634 0-2.737-1.88-4.57-4.678-4.57zm-.191 7.72h-3.402V44.84h3.422c1.959 0 3.174 1.182 3.174 3.087 0 1.943-1.223 3.15-3.194 3.15z" fill="#000"/></svg>