<?xml version="1.0" encoding="UTF-8"?>
<svg width="2400px" height="800px" viewBox="0 0 2400 800" version="1.1" xmlns="http://www.w3.org/2000/svg" xmlns:xlink="http://www.w3.org/1999/xlink">
    <!-- Generator: Sketch 47.1 (45422) - http://www.bohemiancoding.com/sketch -->
    <title>logo@1x</title>
    <desc>Created with Sketch.</desc>
    <defs></defs>
    <g id="Page-1" stroke="none" stroke-width="1" fill="none" fill-rule="evenodd">
        <g id="logo_landing" transform="translate(185.000000, 245.000000)">
            <g id="icon" fill-rule="nonzero">
                <g id="Group">
                    <path d="M165,63 C165,63 159,47 143,31 C112,2.84217094e-13 62,-1 30,29 C-3,61 -4,111 17,148 C56,217 165,289 165,289 C165,289 274,216 313,148 C334,111 334,61 300,29 C268,-1 218,-8.8817842e-16 187,31 C171,47 165,63 165,63 Z" id="Shape-Copy-4" fill="#FF3333"></path>
                    <path d="M246,55 L246,55 L246,55 C252,55 256,60 256,65 L256,115 L256,115 C256,121 251,125 246,125 L246,125 L246,125 C240,125 236,120 236,115 L236,65 L236,65 C236,59 240,55 246,55 Z" id="Rectangle-path-Copy" fill="#FFFFFF"></path>
                    <path d="M280,90 L280,90 C280,96 275,100 270,100 L222,100 C216,100 212,95 212,90 L212,90 C212,84 217,80 222,80 L270,80 C276,79 280,84 280,90 Z" id="Rectangle-path-Copy-2" fill="#FFFFFF"></path>
                </g>
            </g>
            <path d="M771.08,239.52 L771.08,291.68 L748.68,291.68 L748.68,260 L679.56,260 L679.56,291.68 L657.16,291.68 L657.16,239.52 L667.08,239.52 C681.8,205.28 683.4,155.36 683.4,112.48 L683.4,98.72 L758.28,98.72 L758.28,239.52 L771.08,239.52 Z M879.56,249.12 C869.32,257.12 855.88,262.24 839.88,262.24 C806.6,262.24 786.12,235.68 786.12,186.08 C786.12,134.24 800.52,96.48 834.76,96.48 C861.64,96.48 879.24,116.64 879.24,171.36 L879.24,185.12 L812.04,185.12 C812.04,221.6 822.28,240.8 842.12,240.8 C856.2,240.8 867.4,234.4 873.8,229.92 L879.56,249.12 Z M618.12,98.72 L618.12,167.2 L581,167.2 L581,98.72 L556.04,98.72 L556.04,260 L581,260 L581,187.68 L618.12,187.68 L618.12,260 L642.76,260 L642.76,98.72 L618.12,98.72 Z M972.36,260 L999.56,260 L953.8,174.56 L993.8,98.72 L968.52,98.72 L929.8,173.28 L929.8,98.72 L904.84,98.72 L904.84,260 L929.8,260 L929.8,179.68 L972.36,260 Z M1058.12,262.24 C1072.84,262.24 1083.08,257.44 1091.72,250.08 L1085.96,231.52 C1080.2,236.64 1070.92,241.44 1058.76,241.44 C1038.6,241.44 1029,218.4 1029,178.08 C1029,137.44 1041.8,117.28 1059.72,117.28 C1069.96,117.28 1079.56,122.72 1086.28,128.48 L1089.8,104.8 C1082.76,100.32 1074.44,96.48 1060.04,96.48 C1022.28,96.48 1002.76,128.8 1002.76,179.36 C1002.76,234.4 1023.56,262.24 1058.12,262.24 Z M733.64,239.52 L733.64,118.88 L705.8,118.88 L705.8,121.76 C705.8,155.68 704.2,205.28 690.76,239.52 L733.64,239.52 Z M834.76,116.96 C819.4,116.96 813.96,135.84 812.36,164.64 L853.64,164.64 C853.64,137.12 849.16,116.96 834.76,116.96 Z M1191.24,263.2 C1226.76,263.2 1246.92,236.64 1246.92,194.08 C1246.92,168.16 1237,147.04 1210.76,137.76 C1232.2,130.08 1242.12,108.64 1242.12,80.8 C1242.12,50.72 1223.88,28 1193.48,28 C1176.2,28 1163.4,36 1156.36,44.96 L1160.84,59.04 C1167.88,49.12 1179.08,41.12 1193.48,41.12 C1216.2,41.12 1226.76,60.64 1226.76,83.04 C1226.76,108.96 1215.56,132.32 1190.28,132.32 L1174.6,132.32 L1174.6,145.12 L1189.96,145.12 C1218.12,145.12 1230.92,166.24 1230.92,195.36 C1230.92,228 1218.12,250.08 1190.28,250.08 C1171.4,250.08 1162.12,242.72 1156.04,236.64 L1150.92,248.8 C1155.4,253.92 1167.24,263.2 1191.24,263.2 Z M1294.6,193.44 C1291.72,220.32 1287.56,238.24 1279.24,247.84 L1340.68,247.84 L1340.68,110.88 L1299.72,110.88 C1299.72,110.88 1298.76,156 1294.6,193.44 Z M1358.92,291.68 L1357,260 L1269.32,260 L1267.4,291.68 L1255.56,291.68 L1255.56,247.84 L1262.28,247.84 C1272.2,242.4 1278.28,220.32 1281.48,189.92 C1285.64,150.24 1286.28,98.72 1286.28,98.72 L1356.04,98.72 L1356.04,247.84 L1370.76,247.84 L1370.76,291.68 L1358.92,291.68 Z M1436.04,263.2 C1408.2,263.2 1386.76,235.36 1386.76,180.32 C1386.76,126.56 1408.2,95.52 1436.04,95.52 C1463.88,95.52 1485.32,123.04 1485.32,178.4 C1485.32,231.84 1463.88,263.2 1436.04,263.2 Z M1436.04,251.04 C1454.92,251.04 1470.28,228 1470.28,179.36 C1470.28,128.8 1454.92,108 1436.04,108 C1417.16,108 1401.8,130.4 1401.8,179.36 C1401.8,229.6 1417.16,251.04 1436.04,251.04 Z M1557.64,251.04 C1578.12,251.04 1591.56,226.72 1591.56,175.84 C1591.56,133.6 1580.04,108.64 1561.48,108.64 C1547.08,108.64 1534.92,124 1527.88,141.28 L1527.88,231.52 C1534.28,244.64 1543.24,251.04 1557.64,251.04 Z M1556.68,262.88 C1544.52,262.88 1533.96,256.8 1527.88,248.8 L1527.88,309.92 L1512.84,309.92 L1512.84,98.72 L1525.96,98.72 L1527.24,125.28 C1534.28,109.92 1546.12,95.52 1564.04,95.52 C1590.92,95.52 1606.6,127.84 1606.6,174.56 C1606.6,233.76 1586.76,262.88 1556.68,262.88 Z M1676.36,263.2 C1648.52,263.2 1627.08,235.36 1627.08,180.32 C1627.08,126.56 1648.52,95.52 1676.36,95.52 C1704.2,95.52 1725.64,123.04 1725.64,178.4 C1725.64,231.84 1704.2,263.2 1676.36,263.2 Z M1676.36,251.04 C1695.24,251.04 1710.6,228 1710.6,179.36 C1710.6,128.8 1695.24,108 1676.36,108 C1657.48,108 1642.12,130.4 1642.12,179.36 C1642.12,229.6 1657.48,251.04 1676.36,251.04 Z M1787.72,260 L1753.16,260 L1753.16,98.72 L1787.08,98.72 C1815.56,98.72 1830.92,112.16 1830.92,137.76 C1830.92,154.08 1823.88,167.52 1808.2,174.56 C1829,180.64 1838.28,194.08 1838.28,213.6 C1838.28,245.28 1818.12,260 1787.72,260 Z M1786.44,110.56 L1767.88,110.56 L1767.88,170.4 L1786.44,170.4 C1804.04,170.4 1816.52,160.8 1816.52,138.4 C1816.52,117.92 1805,110.56 1786.44,110.56 Z M1787.4,181.6 L1767.88,181.6 L1767.88,248.48 L1787.72,248.48 C1808.52,248.48 1823.24,239.52 1823.24,214.56 C1823.24,191.2 1810.76,181.6 1787.4,181.6 Z M1864.84,260 L1864.84,98.72 L1879.88,98.72 L1879.88,158.56 L1891.72,158.56 C1922.44,158.56 1942.28,175.2 1942.28,208.8 C1942.28,243.04 1921.16,260 1890.76,260 L1864.84,260 Z M1891.08,170.4 L1879.88,170.4 L1879.88,248.16 L1889.48,248.16 C1912.2,248.16 1927.56,236.96 1927.56,209.12 C1927.56,181.92 1914.12,170.4 1891.08,170.4 Z M1974.6,181.92 C1975.24,226.08 1986.76,250.08 2010.12,250.08 C2031.56,250.08 2042.76,232.8 2042.76,232.8 L2047.56,244.96 C2047.56,244.96 2035.4,263.2 2009.8,263.2 C1975.56,263.2 1959.88,232.16 1959.88,179.36 C1959.88,126.56 1979.72,95.52 2006.92,95.52 C2034.76,95.52 2052.68,124.64 2047.56,181.92 L1974.6,181.92 Z M2006.92,108 C1989.96,108 1976.2,129.76 1974.92,170.08 L2033.48,170.08 C2036.04,127.2 2023.24,108 2006.92,108 Z" id="logo" fill-opacity="0.9" fill="#000000"></path>
            <path d="M499.4,172.32 L478.92,172.32 L439.88,260 L411.4,260 L454.28,166.24 C434.12,156 420.68,137.44 420.68,103.2 C420.68,55.2 451.08,31.2 487.24,31.2 L524.04,31.2 L524.04,260 L499.4,260 L499.4,172.32 Z M499.4,151.84 L499.4,52 L486.28,52 C466.44,52 447.24,65.12 447.24,103.2 C447.24,140 464.84,151.84 486.28,151.84 L499.4,151.84 Z" id="Я" fill="#FF3333"></path>
        </g>
    </g>
</svg>