<svg width="71" height="52" fill="none" xmlns="http://www.w3.org/2000/svg"><path d="M52.511 17.722l-.008-.004.008-.02v-10.2H42.274v10.236H52.51v-.012zm-24.721.012V7.497H17.552v10.22l.007.017h10.23zm7.24-2.999l7.239-7.238L35.029.26l-7.238 7.238 7.239 7.238z" fill="#fff"/><path d="M45.27 24.973h14.478l-7.24-7.24-7.238 7.24zM17.558 17.74l-.02.007-7.223 7.226H24.79l-7.233-7.234zm24.713-.006h-4.24v4.24h4.24v-4.24zm-10.239 0H27.79v4.24h4.24v-4.24z" fill="#fff"/><path d="M38.035 17.733l-2.999-2.998-2.997 2.998 2.999 2.998 2.997-2.998zm1.237 7.24h5.997l-3-2.998-2.997 2.998zm-14.478 0h5.996l-2.999-2.998-2.997 2.998zM25.1.985L23.193 5.59 27.8 7.497l1.906-4.605L25.1.985zM44.96.974l-4.604 1.908 1.906 4.607L46.87 5.58 44.96.974zm12.15 18.651l1.906-4.605-4.604-1.908-1.9 4.586v.024l4.598 1.903zm-4.599-1.905v-.023l-.008.02.008.004zm-34.959-.003l-1.9-4.587-4.606 1.91 1.908 4.603 4.585-1.896.013-.013v-.017zm.008.016h-.008l.007.007.003-.002-.002-.005zm0 0l-.008-.016v.016h.007z" fill="#fff"/><path d="M17.539 17.746l.019-.007-.006-.006-.013.013zm49.314 13.187c1.048 0 1.975-.602 1.975-1.663v-.156h-1.155v.145c0 .53-.423.77-.82.77-.397 0-.807-.24-.807-.759v-.156H64.88v.156c0 1.06.927 1.663 1.974 1.663zm-60.048.387H5.25v7.212H1.554V31.32H0v8.55h6.43v1.686h1.386v-3.023H6.805V31.32zm9.461 0h-1.541l-3.228 4.923a20.2 20.2 0 0 0-.723 1.338h-.024s.085-.819.085-1.325v-4.937H9.28v8.55h1.542l3.252-4.925c.313-.507.71-1.325.71-1.325h.024s-.083.818-.083 1.325v4.924h1.541V31.32zm5.353-.483v.939c-2.324 0-3.914 1.457-3.914 3.54 0 2.12 1.59 3.613 3.914 3.613v1.084h1.554v-1.084c2.335 0 3.913-1.494 3.913-3.613 0-2.083-1.59-3.54-3.913-3.54v-.94h-1.554zm0 6.792c-1.373 0-2.324-.94-2.324-2.312 0-1.337.951-2.24 2.324-2.24v4.552zm1.554 0v-4.552c1.385 0 2.335.903 2.335 2.24 0 1.372-.95 2.312-2.335 2.312zm8.641-6.309h-3.3v8.548h1.555v-2.95h1.745c1.603 0 2.722-1.155 2.722-2.818 0-1.662-1.12-2.78-2.722-2.78zm-.29 4.25h-1.456v-2.914h1.481c.879 0 1.409.565 1.409 1.444 0 .892-.53 1.47-1.433 1.47zm8.271 4.444c2.516 0 4.42-1.964 4.42-4.48 0-2.445-1.904-4.36-4.42-4.36-2.517 0-4.42 1.915-4.42 4.36 0 2.516 1.903 4.48 4.42 4.48zm0-1.422c-1.566 0-2.818-1.325-2.818-3.057 0-1.663 1.253-2.94 2.818-2.94 1.566 0 2.819 1.277 2.819 2.94 0 1.733-1.253 3.057-2.819 3.057zm5.98 1.276h3.095c1.578 0 2.95-.77 2.95-2.48 0-.867-.446-1.734-1.385-2.011v-.025c.651-.348 1.035-1.036 1.035-1.829 0-1.41-1.094-2.204-2.648-2.204h-3.048v8.55zm4.118-6.152c0 .613-.384 1.095-1.059 1.095H47.33v-2.156h1.48c.712 0 1.084.446 1.084 1.06zm-.902 4.816h-1.662v-2.468h1.662c.782 0 1.24.517 1.24 1.228 0 .722-.446 1.24-1.24 1.24zm8.317-7.357c-2.518 0-4.42 1.914-4.42 4.36 0 2.515 1.902 4.479 4.42 4.479 2.516 0 4.42-1.964 4.42-4.48 0-2.445-1.904-4.36-4.42-4.36zm0 7.417c-1.566 0-2.818-1.325-2.818-3.057 0-1.663 1.252-2.94 2.818-2.94s2.818 1.277 2.818 2.94c0 1.733-1.252 3.057-2.818 3.057zm11.424-7.272l-3.227 4.923a20.01 20.01 0 0 0-.723 1.338h-.025s.085-.819.085-1.325v-4.937H63.29v8.55h1.54l3.252-4.925c.313-.507.711-1.325.711-1.325h.024s-.084.818-.084 1.325v4.924h1.541V31.32h-1.54zM19.015 47.396h-1.468v-1.985h2.946v-.629h-3.637v6.37h2.213c1.087 0 1.846-.767 1.846-1.865-.001-1.166-.73-1.89-1.9-1.89zm-.036 3.126h-1.432v-2.496h1.424c.75 0 1.234.495 1.234 1.261 0 .773-.457 1.235-1.226 1.235zm8.314-5.716l-.009-.024h-.714l-2.338 6.37h.732l.716-2.007h2.484l.716 1.982.009.025h.732l-2.328-6.346zm-1.398 3.729l.816-2.234c.078-.216.17-.559.216-.727.045.169.138.51.216.727l.807 2.234h-2.055zm9.971-.75c.362-.186.9-.6.9-1.426 0-1.024-.735-1.684-1.873-1.684-.714 0-1.311.204-1.823.626l-.025.018.325.548.033-.027c.423-.35.903-.529 1.428-.529.768 0 1.226.416 1.226 1.11 0 .643-.539 1.128-1.254 1.128h-.671v.612h.833c.776 0 1.298.47 1.298 1.172 0 .765-.587 1.28-1.46 1.28-.548 0-1.14-.267-1.503-.678l-.028-.032-.395.482-.02.023.02.023c.434.504 1.201.828 1.954.828 1.266 0 2.15-.784 2.15-1.908 0-.764-.415-1.344-1.115-1.566zm7.547-2.979l-.009-.024h-.714l-2.337 6.37h.732l.716-2.007h2.484L45 51.127l.01.025h.731l-2.329-6.346zm-.582 1.495c.078-.216.171-.559.216-.727.045.169.139.51.217.727l.806 2.234h-2.054l.815-2.234zm8.989-1.519h-2.214v6.37h.692v-2.473h1.521c1.166 0 1.98-.807 1.98-1.962 0-1.158-.796-1.935-1.98-1.935zm-.082 3.268h-1.44v-2.639h1.45c.828 0 1.343.5 1.343 1.306 0 .824-.518 1.333-1.353 1.333z" fill="#fff"/></svg>