<svg id="logo" xmlns="http://www.w3.org/2000/svg" viewBox="0 0 518 122"><defs><style>.cls-1{fill:#231f20;}.cls-1,.cls-2{fill-rule:evenodd;}.cls-2{fill:#0dc2ee;}</style></defs><title>logo</title><g id="logo-2" data-name="logo"><path id="bukv" class="cls-1" d="M.67,5.67V90.48H22.16V38.77c1.65-10.24,7.07-16.38,18-16.55C48.1,23,53.43,28.81,54.4,39.65V91.06H76.77V39.65C79.94,26.32,87.24,21.72,97.39,23.1c5.25,1.09,9.66,4,11,13.65V91.06h21.49V26.29c-3.49-16.51-15.3-21.83-27-22.07C88,4.65,79,10.95,72.7,19.9,67.62,8.4,57.84,1.39,42.2,3.93,33.39,4.41,26.71,9.15,21,15.84L20.44,5.7.67,5.67Zm495.24.05h21.18V90.45H495.91V5.72Zm-89.85.34,35.87,84.38h13L491.81,5.72H470.29l-21.18,49.2L427.24,5.72l-21.18.34ZM352.43,5c10.78,0,20.52,5,27.53,13l-.2-12.34h21.18V90.45H379.76L380,79.12c-7,8-16.75,13-27.54,13-21.32,0-38.6-19.51-38.6-43.56S331.11,5,352.43,5Zm5.52,17.5c12.91,0,23.38,11.28,23.38,25.18s-10.47,25.18-23.38,25.18-23.38-11.28-23.38-25.18S345,22.54,357.95,22.54ZM227.39,6.06l35.87,84.38h13L313.14,5.72H291.61l-21.18,49.2L248.57,5.72l-21.18.34Z"/><path id="cat" class="cls-2" d="M186,.44A47.63,47.63,0,0,1,199.66,93.7c20.76,11.64,47.47,18.82,77.51,23.5,39.31,1.06,63.22-12.68,95.26-19.46,39-5.71,47.53,2.23,70.87,3.78,14.71.34,33.11,1.6,54,3.49l-2.61,16.55q-25.56-14.09-51.12-18.88c-35,.45-70.09,4.29-105.14,14.81-19.25,5.41-40.29,4.08-61.57,0-20.16-1.66-40.63-2.57-61.57-8.13-17.84-4.4-31.22-9.54-41.41-15.21A47.63,47.63,0,0,1,186,.44ZM185.68,10a12.2,12.2,0,1,1-12.2,12.2A12.21,12.21,0,0,1,185.68,10Zm0,52.57a12.2,12.2,0,1,1-12.2,12.2,12.21,12.21,0,0,1,12.2-12.2Zm26.43-26.72a12.2,12.2,0,1,1-12.2,12.2,12.21,12.21,0,0,1,12.2-12.2Zm-52.57,0a12.2,12.2,0,1,1-12.2,12.2,12.21,12.21,0,0,1,12.2-12.2Z"/></g></svg>