<svg width="1366" height="2042" fill="none" xmlns="http://www.w3.org/2000/svg"><path fill="#2E338B" d="M1431.97-1515l903.343 903.343L903.344 820.313.001-83.032z"/><path d="M676.992 171.179c.29-10.393-7.846-18.711-18.112-18.77.741-7.996-7.404-13.874-14.509-10.393 3.011-13.691-7.212-26.782-20.775-29.43-15.293-2.997-29.733 5.853-37.656 18.545-4.899 7.838-7.413 16.878-8.422 26.008-5.218-3.91-12.404-4.947-18.377-2.048-6.33 3.056-10.389 10.243-9.427 17.209.035.217.192.307.384.307l.025.225c-.698.076-1.388.166-2.078.28-.06.009-.06.115 0 .124 4.907.812 10.091.497 15.041.522 5.401.034 10.79.06 16.174.086 10.79.042 21.567.042 32.357.059 21.568.034 43.173.374 64.711-.463.341-.017.341-.515 0-.523-.107 0-.2-.008-.307-.008l.043-.855c.443-.004.903-.293.928-.875z" fill="#fff" fill-opacity=".23"/><path d="M1372.77 951.809L879.266 452.806l.021 517.442 493.483 498.962V951.809z" fill="#C8E4F5"/><path fill-rule="evenodd" clip-rule="evenodd" d="M1137.86 710.622L879.268 452.027 620.67 710.625 879.265 969.22l258.595-258.598z" fill="#00947E"/><path opacity=".3" d="M1212.97 193.655L1300 107.09v177.629l-87.03 86.563V193.655z" fill="#007AC1"/><path d="M1252.16 252.438l190.93-190.935v391.792l-190.93 190.931V252.438z" fill="#00947E"/><path opacity=".3" d="M1159.1 172.775L982.972-2.732l.003 360.133L1159.1 532.904V172.775z" fill="#007AC1"/><path d="M1252.16 473.111l281.91 281.915v-171.12l-281.91-281.909v171.114z" fill="#75B443"/><path d="M1362.22 386.134l171.85 171.852v-10.334l-171.85-171.846v10.328z" fill="#2E328A"/><path d="M793.713 476.925L468.709 151.919l.002 61.942 325.002 325.002v-61.938z" fill="#E6E7E8"/><path d="M601.329 346.487l-10.363-10.367.002 171.12 10.361 10.361V346.487zm24.452 24.452l-10.364-10.367.002 171.12 10.362 10.361V370.939zm24.451 24.452l-10.363-10.368.002 171.121 10.361 10.361V395.391zm24.452 24.452l-10.363-10.368.002 171.121 10.361 10.361V419.843zm24.452 24.451l-10.363-10.367.002 90.024 10.361 10.363v-90.02zm24.452 24.453l-10.364-10.368.003 90.024 10.361 10.363v-90.019zM748.04 493.2l-10.364-10.37.002 90.024 10.362 10.364V493.2z" fill="#00947E"/><path d="M350.5 267.5l118.212-115.588-.002 61.942L382 298.437 350.5 267.5z" fill="#F1F1F2" fill-opacity=".27"/><path d="M619.5 540.5l259.77-258.324-.002 171.119L619.5 711.614V540.5z" fill="#FFC10E"/><path d="M879.268 453.295l281.912-281.914v171.121L966.001 535l-86.733-81.705z" fill="#0092D7"/><path d="M1137.84 540.691l281.91-281.915v171.119l-281.91 281.911V540.691z" fill="#CF1E63"/><path d="M1137.88 540.824L879.264 282.175l.002 171.118 258.614 258.645V540.824z" fill="#007AC1"/><path fill="#5056BF" d="M2655.27-805.721L4070.926 609.935l-1431.969 1431.97L1223.301 626.247z"/><path d="M1050.5 453.459l11.56-11.565-85.572-85.544-11.561 11.564 85.573 85.545z" fill="#0092D7"/><path d="M503.519 248.681l-10.361-10.367.002 171.12 10.359 10.362V248.681zm24.452 24.452l-10.361-10.367.002 171.12 10.359 10.362V273.133z" fill="#FFC10E"/><path d="M552.425 297.585l-10.364-10.367.002 171.12 10.362 10.361V297.585zm24.452 24.452l-10.364-10.368.002 171.121 10.362 10.361V322.037z" fill="#D0D2D3"/><path d="M1052.28 626.249l85.56 85.557V540.692l-85.56 85.557z" fill="#004DC1"/><path d="M1137.86 711.896l-258.594-258.59v517.18l258.594-258.59z" fill="#00816E"/><path d="M1049.99 166.797l29.91-.388.1-26.168c.01-1.032-.88-1.858-1.98-1.843l-27.92.362-.11 28.037zm-3.99.053l.11-28.037-27.92.363c-1.1.014-2 .863-2 1.895l-.1 26.167 29.91-.388zm-.01 3.737l-29.92.388-.1 26.168c0 1.032.89 1.858 1.99 1.843l27.91-.362.12-28.037zm3.98-.052l-.11 28.037 27.92-.363c1.1-.014 2-.863 2-1.895l.11-26.167-29.92.388z" fill="#007AC1"/><path d="M990.631 244.752l-30.114.007c-.67 0-1.213.543-1.213 1.213l.006 25.254c0 .67.543 1.213 1.213 1.212l5.369-.001.002 8.511a3.575 3.575 0 1 0 7.151-.002l-.002-8.511 5.001-.001.002 8.511a3.575 3.575 0 1 0 7.151-.002l-.002-8.511 5.443-.001c.67 0 1.213-.543 1.213-1.213l-.006-25.254a1.213 1.213 0 0 0-1.214-1.212zm-36.427.003a3.574 3.574 0 0 0-3.574 3.576l.003 14.522a3.576 3.576 0 0 0 7.151-.001l-.003-14.523a3.576 3.576 0 0 0-3.577-3.574zm42.739-.011a3.576 3.576 0 0 0-3.575 3.576l.004 14.523a3.574 3.574 0 1 0 7.148-.002v-14.522a3.577 3.577 0 0 0-3.577-3.575zm-36.184-1.756l29.557-.007a1.215 1.215 0 0 0 1.187-1.466 16.34 16.34 0 0 0-7.972-10.853l2.525-4.559a.639.639 0 1 0-1.118-.619l-2.544 4.594a16.253 16.253 0 0 0-6.86-1.507c-2.45.001-4.774.542-6.859 1.51l-2.547-4.593a.638.638 0 1 0-1.117.62l2.528 4.558c-4.025 2.27-6.991 6.197-7.968 10.857a1.215 1.215 0 0 0 1.188 1.465zm23.596-6.8a1.375 1.375 0 1 1-2.75 0 1.375 1.375 0 0 1 2.75 0zm-16.264-1.371a1.374 1.374 0 1 1 0 2.748 1.374 1.374 0 0 1 0-2.748z" fill="#fff" fill-opacity=".17"/><path d="M1137.93 313.797l-113.69 113.688 113.69 113.689 113.64-113.642.05-.047-113.69-113.688z" fill="#F8991D"/><path fill-rule="evenodd" clip-rule="evenodd" d="M1154.35 408.549h.26c11.22 0 20.5 24.663 20.5 37.25 0 2.97-.46 5.342-1.35 7.051-1.08 2.057-2.79 3.145-4.96 3.145-3.93 0-7.5-2.821-11.27-5.813-4.53-3.584-9.22-7.295-15.31-7.295-7.4 0-11.18 3.604-14.83 7.089l-.01.01c-3.18 3.037-6.46 6.176-11.83 6.176-2.35 0-4.23-1.281-5.41-3.705-.99-2.028-1.5-4.802-1.5-8.243 0-14.39 8.75-35.739 20.83-35.739h.25l.22.101c4.27 1.909 7.57 2.901 10.65 3.185-.12-1.832-.03-5.029 1.6-7.325 1-1.411 2.42-2.272 4.22-2.561l.09-.015c.5-.081 1.02-.163 1.54-.241v-.001c5.64-.871 11.47-1.771 12.82-6.191l2.19.672c-1.77 5.797-8.62 6.855-14.66 7.787-.54.083-1.09.168-1.62.253-1.18.192-2.06.721-2.71 1.623-1.3 1.818-1.28 4.622-1.16 6.079 3.44-.078 6.93-1.057 11.2-3.175l.25-.117zm-30.98 15.313c0 3.423 2.79 6.208 6.22 6.208 3.41 0 6.2-2.785 6.2-6.208 0-3.421-2.79-6.204-6.2-6.204-3.43 0-6.22 2.783-6.22 6.204zm34.86-8.088c-.84-1.315-2.71-1.739-4.04-.896a2.922 2.922 0 0 0-.89 4.037 2.908 2.908 0 0 0 2.47 1.352c.55 0 1.09-.158 1.56-.457a2.914 2.914 0 0 0 1.29-1.835c.17-.761.03-1.545-.39-2.201zm-9.04 4.338a2.94 2.94 0 0 0-.89 4.037 2.927 2.927 0 0 0 4.04.895 2.896 2.896 0 0 0 1.28-1.831c.17-.764.03-1.548-.39-2.207-.83-1.317-2.71-1.74-4.04-.894zm5.43 11.476c.55 0 1.1-.161 1.56-.458a2.936 2.936 0 0 0 .9-4.039c-.84-1.318-2.72-1.739-4.04-.894a2.9 2.9 0 0 0-1.28 1.834c-.17.763-.03 1.544.39 2.202a2.915 2.915 0 0 0 2.47 1.355zm6.56-5.693a2.907 2.907 0 0 0 1.28-1.834c.17-.762.04-1.545-.39-2.204-.84-1.317-2.71-1.737-4.03-.896a2.924 2.924 0 0 0-1.29 1.835c-.17.764-.03 1.545.39 2.204a2.913 2.913 0 0 0 2.47 1.355c.56 0 1.1-.161 1.57-.46zm-35.51-2.032c0-2.155 1.75-3.91 3.92-3.91 2.15 0 3.91 1.755 3.9 3.91a3.91 3.91 0 1 1-7.82 0z" fill="#fff" fill-opacity=".51"/><g opacity=".9" fill="#fff"><path opacity=".3" d="M1071.15 359.384l.5 60.019c.06 7.731-6.39 13.88-14.42 13.736l-62.15-1.115-29.236 30.699-.258-31.228-20.856-.375c-8.028-.144-14.589-6.526-14.653-14.254l-.497-60.019c-.064-7.73 6.393-13.879 14.422-13.735l112.498 2.018c8.03.144 14.59 6.527 14.65 14.254z"/><path d="M962.355 397.373c4.886.088 8.816-3.654 8.777-8.358-.039-4.704-4.032-8.588-8.919-8.676-4.886-.087-8.816 3.655-8.777 8.359.039 4.703 4.032 8.588 8.919 8.675zm38.345.688c4.88.088 8.81-3.654 8.77-8.358-.03-4.704-4.03-8.588-8.91-8.676-4.891-.087-8.821 3.655-8.782 8.359.039 4.703 4.032 8.588 8.922 8.675zm38.34.689c4.89.087 8.82-3.655 8.78-8.359-.04-4.703-4.04-8.588-8.92-8.675-4.89-.088-8.82 3.654-8.78 8.358.04 4.704 4.03 8.588 8.92 8.676z"/></g><path opacity=".7" d="M1549.35 952.118v401.012l-411.42-411.435V540.692l411.42 411.426z" fill="#F8991D"/><path d="M1269.07 431.867c.61-1.954-6.75-7.85-9.52-8.902.85.703 2.07 2.166.82 2.789-1.82.907-5.55-.312-6.85-2.237-.39 1.523-.4 3.606-.33 5.02.09 1.833 14.42 7.915 15.88 3.33z" fill="#3B2B5B"/><path d="M1262.55 427.361c1.25-.622-1.74-3.433-2.59-4.13-2.2-1.439-2.79-1.543-3.11-1.734-.84-.484-1.12-1.593-1.12-1.593l-1.41-.155s.44 1.202-.36 2.615c-.19.317-.33.715-.44 1.153 1.3 1.924 7.21 4.751 9.03 3.844z" fill="#FF97A6"/><path d="M1133.66 292.843s27.92-.152 28.46.03c3.06 6.225 32.66 20.817 49.85 36.628 7.8 7.185 49.76 87.266 44.89 91.99-3.18 3.106-4.46.984-4.46.984-1.29.129-48.3-60.178-60.04-69.159-8.29-6.322-32.66-20.581-32.66-20.581-6.28.631-26.04-39.892-26.04-39.892z" fill="#30193B"/><path d="M1264.97 437.321c.62-1.953-6.75-7.849-9.51-8.901.84.712 2.06 2.176.82 2.799-1.83.906-5.55-.312-6.85-2.237-.39 1.514-.41 3.596-.33 5.02.09 1.833 14.42 7.915 15.87 3.319z" fill="#3B2B5B"/><path d="M1258.46 432.827c1.25-.621-1.74-3.433-2.59-4.14-2.19-1.429-2.79-1.543-3.1-1.729-.85-.494-1.12-1.598-1.12-1.598l-1.41-.145s.43 1.192-.37 2.605c-.18.317-.33.715-.44 1.163 1.3 1.925 7.21 4.751 9.03 3.844z" fill="#FF97A6"/><path d="M1148.31 291.405l-19.21-3.834c-39.68 39.484-9.56 59.987 11.45 68.672 16.26 6.732 20.65 2.833 49 22.344 7.86 5.401 53.29 51.445 60.12 50.246 3.53-.621 3.24-2.249 3.64-4.726.07-.412-40.49-67.555-53.51-77.984-17.06-13.676-44.34-21.35-45.85-26.821-2.37-8.596-5.64-27.897-5.64-27.897z" fill="#3B2B5B"/><path d="M1152.18 218.145s-6.77-9.361-16.19-3.591c-7.02 4.29-14.88 12.694-13.35 23.674 1.53 10.979 10.54 11.87 10.54 11.87l27.01-3.353-8.01-28.6z" fill="#FFCB48"/><path d="M1157.66 246.634v.039c-.05 1.046-.04 1.967.02 2.815.13 8.607 4.56 24.079 12.73 33.829 10.66 12.712 9.67-6.709 9.67-6.709s-6.1-16.08-9.03-24.265c-1.84-5.136-12.92-14.376-13.39-5.709z" fill="#83AEDD"/><path d="M1172.01 280.128c-.58 12.382 22.58 30.704 37.3 39.142 1.47.855 3.36.373 4.28-1.062.61-.945 1.39-2.213 2.34-3.868 5.69-9.868-2.56-15.084-8.43-19.936-5.87-4.852-25.72-16.553-25.72-16.553s-9.3-7.787-9.77 2.277z" fill="#83AEDD"/><path d="M1167.43 260.118c1.3 12.313 1.72 17.329-2.93 32.867-1.35 4.553-45.22 6.696-45.67 4.07-.17-.946-1.46-8.363-2.18-12.299-3.43-18.902-4.75-24.406-1.96-31.322 1.94-4.815 3.1-10.497 28.48-12.439 7.96-.611 18.39 2.407 21.31 3.29 4.71 1.43 2.4 10.689 2.95 15.833z" fill="#AACBE8"/><path d="M1143.38 322.4l.27 4.621 22.84 9.57 18.87-1.647-19.28-4.278-22.7-8.266z" fill="#696886"/><path d="M1227.81 326.697l-60.8 4.3-23.63-8.597 83.91-4.787.52 9.084z" fill="#AFBBC6"/><path d="M1169.36 286.873l59.88-1.552 4.99.369-62.14 1.655-2.73-.472z" fill="#7F65C1"/><path d="M1149.89 219.658c-.04.078-.07.14-.11.208-.2.416.42.766.63.36.03-.078.07-.14.11-.208.2-.411-.43-.765-.63-.36zm8.1 14.417c-4.73-1.397-3.85-6.361-5.35-10.002-.85-2.08-1.93-2.728-3.58-.869-.08.085 0 .221.11.186.81-.248 1.86-.217 2.58.333.54.405.76 2.106.92 2.831.34 1.514.48 3.074 1.1 4.511.77 1.806 2.13 3.282 4.17 3.363.22.013.24-.296.05-.353z" fill="#FFCB48"/><path d="M1145.85 240.924s4.76 11.574 5.33 24.67c.6 13.826-3.01 29.272-3.9 31.619 0 0 10.67.307 16.01-2.789.8-.46 1.38-1.176 1.62-2.062 1.42-5.115 6.79-26.092 2.6-38.455-4.78-14.163-21.66-12.983-21.66-12.983z" fill="#83AEDD"/><path d="M1150.04 297.04c-3.03-1.65-13.37-8.41-19.22-14.27-3.37-3.36-4.29-15.009-4.29-15.009s-4.99-27.964-12.71-16.149c-5.3 8.102 1.19 33.827 9.64 47.79 3.08 5.091 29.55-.754 26.58-2.362z" fill="#D5EAF5"/><path d="M1135.67 290.968s40.13 15.96 40.14 21.378c.02 5.433-13.99 12.325-18.07 10.924-4.09-1.401-32.66-13.879-35.58-27.668-2.73-12.847 13.51-4.634 13.51-4.634z" fill="#D5EAF5"/><path d="M1228.07 331.224l-61.59 5.366 5.61-49.245 62.14-1.655-6.16 45.534z" fill="#2E2D42"/><path d="M1164.16 335.098l2.33 1.494 5.6-49.247-2.73-.471-5.2 48.224z" fill="#696886"/><path d="M1146.38 219.531s3.63-7.066 9.12-5.762c5.49 1.303 4.75 7.48 5.21 10.972.46 3.487 1.35 6.445 7.13 13.256 5.78 6.802 4.03 12.923 2.71 17.619 0 0-1.98 4.946-.56 6.33 1.27 1.232 2.03-.977 2.77-.997.68-.003 1.99 7.124-4.5 7.828-10.31 1.134-10.42-10.473-11.8-15.793-1.38-5.329-7.79-2.171-9.74-8.925-1.95-6.764-.34-24.528-.34-24.528z" fill="#FFCB48"/><path d="M1148.42 232.203s-1.22 9.266-1.94 10.157c-.72.902-2.78 1.805-3.23-.693-.45-2.507 2.47-10.136 2.47-10.136l2.7.672z" fill="#FF97A6"/><path d="M1147.51 238.166c-1.22.518-3.18-.741-3.21-2.577.37-1.658.24-.694.69-2.049l3.13.778c-.19 1.326-.32 2.309-.61 3.848z" fill="#C95D77"/><path d="M1143.34 232.636c-.73-1.402-.32-7.192-.32-7.192 1.22-4.075 10.19-2.54 11.58-1.659 1.54.976 1.6 3.148 1.69 4.756.08 1.617-.34 4.533-1.3 5.897-.87 1.255-3.46 2.403-4.93 2.399-4.45.002-5.74-1.117-6.72-4.201z" fill="#FF97A6"/><path d="M1153.92 223.488s-3.21-1.204-4.58.425c-1.36 1.629-2.5 9.166-8.75 8.246-6.25-.911 5.08-12.042 5.08-12.042s8.27-2.085 8.25 3.371z" fill="#FFCB48"/><path d="M1125.28 245.157c-2.87-3.208-3.67-7.89-3.07-12.117.51-4.325 2.6-8.308 5.19-11.724 2.62-3.405 5.96-6.359 9.98-8.114 4.07-1.685 9.16-.992 12.25 2.269l-.45.022c.98-1.172 2.35-1.954 3.84-2.127.72-.07 1.47-.046 2.17.174.71.18 1.35.516 1.97.865-.65-.306-1.31-.588-2-.724-.7-.16-1.42-.134-2.1-.023-1.38.236-2.6 1.118-3.42 2.163a.292.292 0 0 1-.41.052l-.03-.02v-.01c-2.97-2.902-7.76-3.332-11.47-1.771-3.78 1.687-6.95 4.617-9.55 7.851-2.57 3.289-4.57 7.098-5.26 11.219a18.45 18.45 0 0 0-.06 6.246c.34 2.066 1.08 4.112 2.42 5.769z" fill="#FFDA88"/><path fill-rule="evenodd" clip-rule="evenodd" d="M762.358 261.988a1.903 1.903 0 0 1 1.589.414c.445.367.7.909.7 1.485v54.132a1.93 1.93 0 0 1-2.289 1.899l-30.933-5.8a1.931 1.931 0 0 1-1.577-1.899v-42.532c0-.928.665-1.729 1.577-1.899l30.933-5.8zm-9.071 40.549a1.935 1.935 0 0 0 1.682-1.701l1.933-17.404a1.942 1.942 0 0 0-1.709-2.138 1.957 1.957 0 0 0-2.135 1.709l-1.04 9.365-2.961-7.896c-.569-1.508-3.059-1.508-3.623 0l-3.144 8.387-.862-6.048a1.934 1.934 0 0 0-3.828.546l1.933 13.533a1.931 1.931 0 0 0 1.705 1.651 1.92 1.92 0 0 0 2.019-1.241l3.99-10.641 3.99 10.641a1.94 1.94 0 0 0 2.05 1.237zm13.546 9.945h24.947a1.931 1.931 0 0 0 1.933-1.933v-38.666a1.934 1.934 0 0 0-1.933-1.933h-24.947v7.733h17.214a1.934 1.934 0 0 1 0 3.867h-17.214v3.866h17.214a1.935 1.935 0 0 1 0 3.867h-17.214v3.867h17.214c1.067 0 1.934.866 1.934 1.933a1.935 1.935 0 0 1-1.934 1.933h-17.214v3.866h17.214a1.935 1.935 0 0 1 0 3.867h-17.214v7.733z" fill="#61A1F0" fill-opacity=".11"/><path opacity=".1" d="M939.647 967.666c0 5.688-54.331 10.323-121.361 10.323-67.04 0-121.418-4.635-121.418-10.323 0-5.708 54.378-10.334 121.418-10.334 67.03-.005 121.361 4.626 121.361 10.334z" fill="#2E2D42"/><path d="M900.623 457.447s3.799-.244 4.314-2.042c.514-1.788-.59 5.746-3.863 7.77-2.571 1.587-.451-5.728-.451-5.728z" fill="#FF97A6"/><path d="M930.976 534.197c6.443-22.379-19.397-48.186-28.918-61.369a105.916 105.916 0 0 1-4.738-7.235c7.99-3.069 6.621-11.025 5.211-15.036-1.41-4.011-5.114.719-7.063 1.203-4.394 1.099-3.475 7.201-6.037 10.106-1.347 1.529 21.221 65.22 21.221 65.22s-13.592 27.142-35.491 37.348c-4.182 1.946 48.554-5.01 55.815-30.237z" fill="#FF97A6"/><path d="M725.302 967.126c-.594-6.401 7.753-5.403 12.587-6.262-1.33.771-2.95 1.898-.921 2.556 2.963.951 9.57.235 11.587-1.859.678 1.647.778 3.892.704 5.425-.092 1.984-23.801 1.84-23.957.14z" fill="#30193B"/><path d="M736.969 963.42c-2.029-.657-2.615-2.11.53-2.507 2.807-.35 5.123-1.288 5.638-1.491 1.339-.543 1.892-2.626 1.892-2.626l2.526.026s.81 4.263 1.005 4.739c-2.021 2.099-8.628 2.81-11.591 1.859z" fill="#FF97A6"/><path d="M897.413 970.69c.878-6.374-7.498-5.764-12.297-6.842 1.287.83 2.862 2.029.813 2.591-3.01.821-9.581-.198-11.507-2.381-.744 1.607-.955 3.847-.947 5.384.006 1.988 23.696 2.928 23.938 1.248z" fill="#30193B"/><path d="M885.934 966.439c2.05-.567 2.697-1.989-.427-2.529-2.787-.476-5.054-1.519-5.553-1.752-1.308-.603-1.78-2.707-1.78-2.707l-2.514-.083s-1.011 4.214-1.233 4.69c1.926 2.183 8.497 3.202 11.507 2.381z" fill="#FF97A6"/><path d="M858.722 663.869c-8.783-21.173-15.436-33.95-19.278-35.93-11.458.013-64.244 5.396-68.827 5.368-3.852 1.957-8.753 14.907-15.342 37.795-16.097 55.871-16.988 285.805-16.988 285.805l11.901 1.073s17.603-99.627 35.287-170.364c11.226-44.927 25.623-87.994 26.009-88.539 5.298 20.149 52.577 220.715 57.095 256.168.764 5.992 12.432 9.878 12.669 4.999 1.755-36.184-.237-242.662-22.526-296.375z" fill="#3B2B5B"/><path d="M858.72 663.869c-8.783-21.173-15.436-33.95-19.277-35.93-3.826.004-21.973 1.408-21.973 1.408s26.669 63.045 41.896 139.667c17.61 88.554 16.058 193.115 17.965 193.373 2.121.283 3.822-.32 3.91-2.144 1.76-36.183-.232-242.661-22.521-296.374z" fill="#30193B"/><path d="M726.653 612.56s10.483 8.966 27.073-4.841c0 0 20.242-17.865 24.609-45.254l.733-15.117a38.72 38.72 0 0 0-17.415 11.585c-9.298 10.807-24.917 28.634-28.06 30.207-4.529 2.269-6.94 23.42-6.94 23.42z" fill="#AACBE8"/><path d="M910.34 525.905s13.78 6.336 21.71 1.101c0 0 8.314 35.846-48.528 43.278-4.741.626-19.408.644-23.323 1.071-38.034 4.13-32.661 4.293-32.661 4.293s-.414-25.74 11.274-26.286c32.381-1.517 43.849-4.539 54.952-10.354 10.639-5.56 14.346-8.637 15.749-10.504 1.43-1.904.827-2.599.827-2.599z" fill="#90B8D6"/><path d="M700.234 547.06c-.419-1.187-3.874-6.007-3.878-10.649-.001-8.994 6.716-13.583 8.058-14.004 2.344-.722 1.932 5.981 1.932 5.981s2.691-.657 1.957 1.349c-3.449 9.477-3.952 14.134-3.618 15.064 4.631 10.453 28.97 35.433 34.541 47.959 2.603 5.852 5.073 31.197-18.063 18.111-20.525-11.612-20.512-47.346-20.929-63.811zm192.099-88.783c.084-.726.949-9.954 1.78-9.646.84.318 1.493 4.297 1.493 4.297s-.99-7.15.391-8.06c1.371-.901 3.118 4.672 3.118 4.672s-1.365-5.545.224-4.622 3.878 8.136 3.925 8.386c.046.25-10.931 4.973-10.931 4.973z" fill="#FF97A6"/><path d="M774.696 549.076s12.003-4.925 21.302-2.7c12.537 3 31.606 5.519 44.936 4.907 8.048-.359 32.228-.25 32.228-.25l-33.724 76.911s-28.665 8.395-38.542 9.068c-21.367 1.443-30.29-3.7-30.29-3.7s-1.657-24.168-1.407-32.235c.41-13.067 5.497-52.001 5.497-52.001z" fill="#AACBE8"/><path d="M837.234 551.311l17.353-.661 18.58.382-33.724 76.91-20.5 5.534s12.776-20.264 17.932-41.67c4.816-20.013.359-40.495.359-40.495z" fill="#90B8D6"/><path fill="#CF1E63" d="M674.91 378.902l189.88-39.638 39.466 189.88-189.88 39.638z"/><path d="M827.502 533.416s-3.527 15.758-1.947 17.527c1.58 1.756 7.456 4.083 10.912.139 3.47-3.95.224-17.69.224-17.69l-9.189.024z" fill="#FF97A6"/><path d="M825.489 544.383c3.51 1.347 8.303 2.287 12.572.802.126-2.862-.201-6.21-.6-8.628l-10.623.039c-.454 2.265-1.03 5.146-1.349 7.787z" fill="#C95D77"/><path d="M824.385 525.314s3.728-14.315 8.181-20.954c4.454-6.638 7.273-13.382 11.287-9.883 4.015 3.5 15.309 13.626 28.021 5.967 1.756-1.052 3.65-4.391 4.885-7.213.319-.732 1.386-.653 1.607.104 1.302 4.505 3.421 14.636-1.053 22.8-5.945 10.83-14.53 14.478-19.478 17.001-2.765 1.4-10.705 4.035-10.705 4.035l-22.745-11.857z" fill="#80540A"/><path d="M848.682 539.103c1.589-1.139 4.691-7.056 7.13-12.1 2.02-4.172.189-9.198-4.042-11.102-6.558-2.975-13.979-5.88-16.523-5.62-3.999.414-6.307 4.665-8.098 7.79-1.777 3.113-3.851 9.337-3.328 13.018.471 3.367 4.44 8.221 7.369 9.691 8.794 4.439 12.456 3.492 17.492-1.677z" fill="#FF97A6"/><path d="M832.568 504.361a225.567 225.567 0 0 1 3.341-6.6c.595-1.095 1.255-2.173 2.091-3.203.821-.965 1.992-2.217 3.927-2.196a4.399 4.399 0 0 1 2.345.847c.685.457 1.006.797 1.529 1.186a45.7 45.7 0 0 0 2.85 2.166c1.937 1.357 3.939 2.591 6.078 3.468 4.194 1.843 8.904 2.448 13.281.929 1.136-.269 2.143-.862 3.229-1.305.872-.394 1.675-1.3 2.407-2.209.752-.922 1.435-1.921 2.08-2.947.35-.538.551-1.017.984-1.631.598-.605 1.596-.18 1.657.47-.255-.62-1.095-.595-1.295-.168l-.61 1.689c-.459 1.154-.951 2.3-1.574 3.42-.661 1.091-1.351 2.235-2.615 3.086-1.115.64-2.183 1.381-3.42 1.823-4.808 2.232-10.618 1.693-15.318-.353-2.374-1.06-4.569-2.416-6.583-3.961a47.443 47.443 0 0 1-2.875-2.453c-.988-.887-1.68-1.615-2.291-1.697-.6-.161-1.508.429-2.318 1.176-.81.774-1.583 1.708-2.31 2.677-1.545 1.875-2.941 3.943-4.59 5.786z" fill="#AD7121"/><path fill-rule="evenodd" clip-rule="evenodd" d="M743.849 459.153c-4.983-27.299 13.102-53.459 40.401-58.441 27.293-4.981 53.459 13.102 58.439 40.402 4.98 27.286-13.109 53.443-40.402 58.425-27.299 4.982-53.458-13.096-58.438-40.386zm8.255-1.506c4.15 22.737 25.944 37.795 48.678 33.646 22.731-4.149 37.801-25.935 33.648-48.672-4.149-22.73-25.943-37.809-48.674-33.66-22.734 4.149-37.8 25.958-33.652 48.686zm33.866-23.603l23.246 11.173a2.498 2.498 0 0 1 1.391 1.809 2.52 2.52 0 0 1-.662 2.184l-17.803 18.652a2.508 2.508 0 0 1-4.294-1.276l-5.444-29.828a2.515 2.515 0 0 1 3.566-2.714z" fill="#FF97A6" fill-opacity=".77"/></svg>