<svg width="206" height="135" viewBox="0 0 206 135" fill="none" xmlns="http://www.w3.org/2000/svg">
<path d="M205.889 93.3631C205.376 81.5865 203.323 68.5297 200.244 56.241C197.165 44.4643 193.317 33.4557 188.698 25.0072C170.738 -6.4826 151.237 -1.61832 127.888 4.52604C120.448 6.31814 112.494 8.36626 104.283 9.1343H101.717C93.5065 8.36626 85.5524 6.31814 78.1116 4.52604C54.7626 -1.3623 35.2624 -6.48259 17.3017 25.2632C12.6832 33.7117 8.57792 44.7203 5.75552 56.497C2.67654 68.7857 0.623887 81.8425 0.110723 93.6192C-0.40244 106.676 0.880468 116.148 3.70287 122.805C6.52527 128.949 10.6306 132.789 16.0188 134.325C20.8938 135.606 26.5386 135.094 32.44 132.533C42.4467 128.437 53.9929 119.733 65.2825 109.236C73.2365 101.556 88.1183 97.7154 103 97.7154C117.882 97.7154 132.763 101.556 140.718 109.236C152.007 119.733 163.553 128.437 173.56 132.533C179.461 134.838 185.106 135.606 189.981 134.325C195.113 132.789 199.475 129.205 202.297 122.549C205.12 116.148 206.402 106.676 205.889 93.3631ZM193.573 118.965C192.034 122.549 189.981 124.597 187.415 125.365C184.593 126.133 181.001 125.621 176.896 124.085C167.915 120.501 157.395 112.564 147.132 102.836C137.382 93.1071 120.191 88.2428 103 88.2428C85.809 88.2428 68.618 93.1071 58.6114 102.324C48.0915 112.052 37.5717 120.245 28.8479 123.573C24.7426 125.109 21.1504 125.877 18.328 124.853C15.7622 124.085 13.7096 122.037 12.1701 118.453C10.1174 113.588 9.09108 105.652 9.60425 93.8752C10.1174 82.8665 11.9135 70.3218 14.9925 58.5451C17.8149 47.5365 21.407 37.2959 25.7689 29.6155C39.8809 4.27002 56.3021 8.36626 75.8023 13.4866C83.7564 15.5347 91.967 17.5828 100.947 18.3508C101.204 18.3508 101.204 18.3508 101.461 18.3508H104.283C104.539 18.3508 104.539 18.3508 104.796 18.3508C114.033 17.5828 122.244 15.5347 130.198 13.4866C149.698 8.62227 166.119 4.27002 180.231 29.6155C184.593 37.2959 188.185 47.2805 191.008 58.5451C193.83 70.3218 195.883 82.6105 196.396 93.8752C196.909 105.652 195.883 113.588 193.573 118.965Z" fill="#FF5858"/>
<path d="M79.3942 43.4405C76.8284 41.1364 73.7494 39.3443 70.1573 39.0883C69.9007 35.7601 68.3612 32.4319 66.052 30.1277L65.7954 29.8717C62.973 27.0556 59.3809 25.5195 55.2756 25.5195C51.1703 25.5195 47.3215 27.3116 44.7557 29.8717C42.4465 32.1759 40.6504 35.5041 40.3938 39.0883C36.8017 39.3443 33.7227 40.8804 31.1569 43.1845L30.9003 43.4405C28.0779 46.2567 26.5384 49.8409 26.5384 53.9371C26.5384 58.0333 28.3345 61.8736 30.9003 64.4337C33.4661 66.9939 36.5451 68.5299 40.3938 68.786C40.6504 72.3702 42.1899 75.6984 44.7557 78.0025C47.5781 80.8187 51.1703 82.3547 55.2756 82.3547C59.3809 82.3547 63.2296 80.5626 65.7954 78.0025C68.1046 75.4423 69.9007 72.3702 70.1573 68.786C73.7494 68.5299 77.085 66.9939 79.3942 64.4337C82.2166 61.6176 83.7561 58.0333 83.7561 53.9371C83.7561 49.8409 81.9601 46.0007 79.3942 43.4405ZM72.9797 57.7773C71.9534 58.8014 70.6705 59.3134 69.131 59.3134H65.5388C62.973 59.3134 60.6638 61.3615 60.6638 64.1777V67.5059C60.6638 69.042 60.1506 70.322 59.1243 71.3461C58.098 72.3702 56.815 72.8822 55.2756 72.8822C53.7361 72.8822 52.4532 72.3702 51.4268 71.3461C50.4005 70.322 49.8873 69.042 49.8873 67.5059V63.9217C49.8873 61.3615 47.8347 59.0574 45.0123 59.0574H41.4201C39.8807 59.0574 38.5977 58.5454 37.5714 57.5213C36.8017 56.7533 36.0319 55.4732 36.0319 53.9371C36.0319 52.401 36.5451 51.1209 37.5714 50.0969C37.5714 50.0969 37.5714 50.0969 37.828 49.8409C38.8543 49.0728 40.1372 48.5608 41.4201 48.5608H45.0123C47.5781 48.5608 49.8873 46.5127 49.8873 43.6965V40.1123C49.8873 38.5762 50.4005 37.2962 51.4268 36.2721C52.4532 35.248 53.7361 34.736 55.2756 34.736C56.815 34.736 58.098 35.248 59.1243 36.2721C59.1243 36.2721 59.1243 36.2721 59.3809 36.5281C60.1506 37.5522 60.6638 38.8322 60.6638 40.1123V43.6965C60.6638 46.2567 62.7164 48.5608 65.5388 48.5608H69.131C70.6705 48.5608 71.9534 49.0728 72.9797 50.0969C74.006 51.1209 74.5192 52.401 74.5192 53.9371C74.5192 55.4732 74.006 56.7533 72.9797 57.7773Z" fill="#FF5858"/>
<path d="M147.646 44.7203C152.605 44.7203 156.626 40.7086 156.626 35.7598C156.626 30.8111 152.605 26.7993 147.646 26.7993C142.686 26.7993 138.665 30.8111 138.665 35.7598C138.665 40.7086 142.686 44.7203 147.646 44.7203Z" fill="#FF5858"/>
<path d="M147.646 81.0749C152.605 81.0749 156.626 77.0631 156.626 72.1144C156.626 67.1656 152.605 63.1539 147.646 63.1539C142.686 63.1539 138.665 67.1656 138.665 72.1144C138.665 77.0631 142.686 81.0749 147.646 81.0749Z" fill="#FF5858"/>
<path d="M129.427 62.8976C134.387 62.8976 138.408 58.8859 138.408 53.9371C138.408 48.9883 134.387 44.9766 129.427 44.9766C124.467 44.9766 120.447 48.9883 120.447 53.9371C120.447 58.8859 124.467 62.8976 129.427 62.8976Z" fill="#FF5858"/>
<path d="M165.862 62.8976C170.822 62.8976 174.843 58.8859 174.843 53.9371C174.843 48.9883 170.822 44.9766 165.862 44.9766C160.903 44.9766 156.882 48.9883 156.882 53.9371C156.882 58.8859 160.903 62.8976 165.862 62.8976Z" fill="#FF5858"/>
</svg>
