<svg width="78" height="79" viewBox="0 0 78 79" fill="none" xmlns="http://www.w3.org/2000/svg">
<path fill-rule="evenodd" clip-rule="evenodd" d="M72.7603 20.3527C67.5539 11.3352 59.1476 4.88445 49.0895 2.18949C39.0316 -0.505785 28.5263 0.877346 19.5083 6.08401C10.4904 11.2905 4.04001 19.6969 1.34504 29.7549C-1.34992 39.8128 0.0332096 50.3185 5.23957 59.336C10.4458 68.3536 18.8524 74.8043 28.9103 77.4992C32.2689 78.3993 35.677 78.8444 39.0634 78.8444C45.8182 78.8444 52.4851 77.0728 58.4917 73.6049C67.5093 68.3985 73.96 59.9922 76.6549 49.9341C79.35 39.8759 77.9666 29.3706 72.7603 20.3527ZM72.7333 48.8834C70.3189 57.8939 64.5402 65.425 56.4614 70.0892C48.3829 74.7535 38.9714 75.9924 29.9609 73.5784C20.9502 71.164 13.4192 65.3853 8.7549 57.3065C4.09074 49.228 2.85173 39.8163 5.26623 30.8056C7.68073 21.7951 13.4594 14.2643 21.5381 9.5998C26.9196 6.49275 32.8914 4.90578 38.9432 4.90578C41.9764 4.90578 45.0308 5.30462 48.0385 6.11067C57.049 8.52502 64.5801 14.3037 69.2443 22.3825C73.9086 30.4612 75.1478 39.8727 72.7333 48.8834ZM57.7043 36.1654L32.6397 21.6943C31.3096 20.9263 29.7216 20.9266 28.3915 21.6941C27.0613 22.4619 26.2672 23.8375 26.2672 25.3732V54.3156C26.2672 55.8513 27.0612 57.2267 28.3915 57.9947C29.0564 58.3787 29.7857 58.5705 30.5153 58.5705C31.245 58.5705 31.9746 58.3783 32.6396 57.9945L57.7044 43.5235C59.0344 42.7554 59.8283 41.38 59.8283 39.8442C59.8283 38.3086 59.0342 36.9333 57.7043 36.1654ZM55.6741 40.0079L30.6094 54.4789C30.5788 54.4967 30.515 54.5334 30.4211 54.4789C30.327 54.4245 30.327 54.3511 30.327 54.3157V25.3734C30.327 25.3381 30.327 25.2646 30.4211 25.2102C30.458 25.1889 30.4902 25.1816 30.5176 25.1816C30.5601 25.1816 30.5908 25.1993 30.6096 25.2101L30.6097 25.2102L55.6743 39.6814C55.7049 39.6991 55.7685 39.7358 55.7685 39.8446C55.7685 39.9532 55.7048 39.9901 55.6743 40.0078L55.6741 40.0079ZM43.053 9.82902C50.8792 10.8983 58.1364 15.0884 62.9641 21.325C63.6502 22.2115 63.4878 23.4865 62.6013 24.1727C62.2318 24.4591 61.7944 24.5975 61.3603 24.5975C60.7539 24.5975 60.1538 24.327 59.7537 23.8102C55.572 18.4081 49.2846 14.7781 42.5035 13.8517C41.3928 13.6998 40.6154 12.6763 40.7669 11.5656C40.9188 10.4545 41.9435 9.67713 43.053 9.82902Z" fill="#52B814"/>
</svg>
