<svg width="77" height="54" viewBox="0 0 77 54" fill="none" xmlns="http://www.w3.org/2000/svg">
<path fill-rule="evenodd" clip-rule="evenodd" d="M62.4626 17.1339C68.5734 23.2446 72.0834 31.262 72.441 39.8444H76.5872V44.9501C76.5872 49.9402 72.5274 54 67.5374 54H9.04986C4.05982 54 0 49.9402 0 44.9501V39.8444H4.14629C4.5039 31.262 8.01387 23.2446 14.1246 17.1339C20.0484 11.2101 27.7643 7.73048 36.0499 7.197V4.48753H32.2355V0H44.3518V4.48753H40.5374V7.197C48.823 7.73048 56.5388 11.2101 62.4626 17.1339ZM67.9499 39.8444C67.1868 24.1468 54.177 11.6103 38.2936 11.6103C22.4102 11.6103 9.40045 24.1468 8.63733 39.8444H67.9499ZM67.5374 49.5125C70.0529 49.5125 72.0997 47.4656 72.0997 44.9501V44.3319H4.48753V44.9501C4.48753 47.4656 6.53439 49.5125 9.04986 49.5125H67.5374ZM17.253 36.3759L12.8122 35.7291C12.8555 35.4311 13.9218 28.3918 18.812 24.093L21.775 27.464C18.1453 30.6543 17.2618 36.3192 17.253 36.3759Z" fill="#3E9F4E"/>
</svg>
