<svg width="91" height="59" viewBox="0 0 91 59" fill="none" xmlns="http://www.w3.org/2000/svg">
<path d="M90.9511 40.8032C90.7244 35.6563 89.8176 29.95 88.4575 24.5794C87.0974 19.4326 85.3972 14.6214 83.357 10.9291C75.4229 -2.83313 66.8087 -0.707264 56.4944 1.97805C53.2074 2.76126 49.6937 3.65636 46.0667 3.99203H44.9333C41.3063 3.65636 37.7926 2.76126 34.5056 1.97805C24.1913 -0.595376 15.5771 -2.83313 7.64298 11.041C5.60279 14.7333 3.78928 19.5444 2.54249 24.6913C1.18236 30.0619 0.2756 35.7682 0.0489118 40.915C-0.177777 46.6213 0.388945 50.7612 1.63573 53.6703C2.88252 56.3556 4.69603 58.0339 7.07626 58.7052C9.2298 59.2647 11.7234 59.0409 14.3303 57.922C18.7507 56.1318 23.8512 52.3276 28.8384 47.7402C32.3521 44.3836 38.926 42.7052 45.5 42.7052C52.074 42.7052 58.6479 44.3836 62.1616 47.7402C67.1488 52.3276 72.2493 56.1318 76.6697 57.922C79.2766 58.929 81.7702 59.2647 83.9237 58.7052C86.1906 58.0339 88.1175 56.4675 89.3643 53.5584C90.611 50.7612 91.1778 46.6213 90.9511 40.8032ZM85.5106 51.9919C84.8305 53.5584 83.9237 54.4535 82.7903 54.7891C81.5435 55.1248 79.9567 54.901 78.1432 54.2297C74.1761 52.6633 69.529 49.1947 64.9952 44.943C60.6881 40.6913 53.0941 38.5654 45.5 38.5654C37.9059 38.5654 30.3119 40.6913 25.8914 44.7192C21.2443 48.971 16.5972 52.5514 12.7435 54.0059C10.93 54.6773 9.34315 55.0129 8.09636 54.5654C6.96292 54.2297 6.05616 53.3346 5.3761 51.7682C4.46934 49.6423 4.01596 46.1738 4.24265 41.0269C4.46934 36.2157 5.26275 30.7332 6.62288 25.5864C7.86967 20.7752 9.45649 16.2997 11.3833 12.9431C17.6173 1.86616 24.8713 3.65636 33.4855 5.89412C36.9992 6.78923 40.6262 7.68433 44.5933 8.01999C44.7066 8.01999 44.7066 8.01999 44.8199 8.01999H46.0667C46.1801 8.01999 46.1801 8.01999 46.2934 8.01999C50.3738 7.68433 54.0008 6.78923 57.5145 5.89412C66.1287 3.76825 73.3827 1.86616 79.6167 12.9431C81.5435 16.2997 83.1303 20.6633 84.3771 25.5864C85.6239 30.7332 86.5307 36.1039 86.7573 41.0269C86.984 46.1738 86.5307 49.6423 85.5106 51.9919Z" fill="#FF5858"/>
<path d="M35.0722 18.9851C33.9388 17.9781 32.5786 17.1949 30.9918 17.083C30.8785 15.6285 30.1984 14.1739 29.1783 13.1669L29.065 13.0551C27.8182 11.8243 26.2314 11.153 24.4178 11.153C22.6043 11.153 20.9042 11.9362 19.7707 13.0551C18.7506 14.062 17.9572 15.5166 17.8439 17.083C16.257 17.1949 14.8969 17.8662 13.7635 18.8732L13.6501 18.9851C12.4033 20.2159 11.7233 21.7823 11.7233 23.5725C11.7233 25.3627 12.5167 27.041 13.6501 28.1599C14.7836 29.2788 16.1437 29.9501 17.8439 30.062C17.9572 31.6284 18.6373 33.083 19.7707 34.09C21.0175 35.3207 22.6043 35.9921 24.4178 35.9921C26.2314 35.9921 27.9315 35.2089 29.065 34.09C30.0851 32.9711 30.8785 31.6284 30.9918 30.062C32.5786 29.9501 34.0521 29.2788 35.0722 28.1599C36.319 26.9292 36.9991 25.3627 36.9991 23.5725C36.9991 21.7823 36.2057 20.104 35.0722 18.9851ZM32.2386 25.2508C31.7852 25.6984 31.2185 25.9222 30.5384 25.9222H28.9516C27.8182 25.9222 26.7981 26.8173 26.7981 28.048V29.5026C26.7981 30.1739 26.5714 30.7333 26.118 31.1809C25.6646 31.6284 25.0979 31.8522 24.4178 31.8522C23.7378 31.8522 23.1711 31.6284 22.7177 31.1809C22.2643 30.7333 22.0376 30.1739 22.0376 29.5026V27.9361C22.0376 26.8173 21.1309 25.8103 19.8841 25.8103H18.2972C17.6172 25.8103 17.0505 25.5865 16.5971 25.1389C16.257 24.8033 15.917 24.2438 15.917 23.5725C15.917 22.9012 16.1437 22.3417 16.5971 21.8942C16.5971 21.8942 16.5971 21.8942 16.7104 21.7823C17.1638 21.4466 17.7305 21.2229 18.2972 21.2229H19.8841C21.0175 21.2229 22.0376 20.3278 22.0376 19.097V17.5306C22.0376 16.8592 22.2643 16.2998 22.7177 15.8522C23.1711 15.4047 23.7378 15.1809 24.4178 15.1809C25.0979 15.1809 25.6646 15.4047 26.118 15.8522C26.118 15.8522 26.118 15.8523 26.2314 15.9641C26.5714 16.4117 26.7981 16.9711 26.7981 17.5306V19.097C26.7981 20.2159 27.7048 21.2229 28.9516 21.2229H30.5384C31.2185 21.2229 31.7852 21.4466 32.2386 21.8942C32.692 22.3417 32.9187 22.9012 32.9187 23.5725C32.9187 24.2438 32.692 24.8033 32.2386 25.2508Z" fill="#FF5858"/>
<path d="M65.2221 19.5444C67.413 19.5444 69.1891 17.7912 69.1891 15.6284C69.1891 13.4656 67.413 11.7123 65.2221 11.7123C63.0311 11.7123 61.255 13.4656 61.255 15.6284C61.255 17.7912 63.0311 19.5444 65.2221 19.5444Z" fill="#FF5858"/>
<path d="M65.2221 35.4327C67.413 35.4327 69.1891 33.6794 69.1891 31.5167C69.1891 29.3539 67.413 27.6006 65.2221 27.6006C63.0311 27.6006 61.255 29.3539 61.255 31.5167C61.255 33.6794 63.0311 35.4327 65.2221 35.4327Z" fill="#FF5858"/>
<path d="M57.1741 27.4886C59.3651 27.4886 61.1412 25.7353 61.1412 23.5725C61.1412 21.4097 59.3651 19.6564 57.1741 19.6564C54.9832 19.6564 53.2071 21.4097 53.2071 23.5725C53.2071 25.7353 54.9832 27.4886 57.1741 27.4886Z" fill="#FF5858"/>
<path d="M73.2693 27.4886C75.4602 27.4886 77.2363 25.7353 77.2363 23.5725C77.2363 21.4097 75.4602 19.6564 73.2693 19.6564C71.0783 19.6564 69.3022 21.4097 69.3022 23.5725C69.3022 25.7353 71.0783 27.4886 73.2693 27.4886Z" fill="#FF5858"/>
</svg>
