<svg width="203" height="152" viewBox="0 0 203 152" fill="none" xmlns="http://www.w3.org/2000/svg">
<path d="M158.109 56.6485L145.888 83.1132L106.732 0L72.6492 72.3415L55.0742 35.0369L0 151.934H203L158.109 56.6485ZM158.184 76.1885L167.309 95.556C166.372 96.2023 165.56 96.9341 164.82 97.6036C162.941 99.3043 161.583 100.533 158.699 100.533C155.815 100.533 154.457 99.3043 152.578 97.6036C151.671 96.783 150.656 95.869 149.435 95.1343L158.184 76.1885ZM120.477 48.5563C118.651 49.5198 117.168 50.8587 115.863 52.0403C113.334 54.3291 111.15 56.3061 106.772 56.3061C102.393 56.3061 100.209 54.3291 97.68 52.0403C96.3597 50.8447 94.858 49.4872 93.0024 48.5212L106.732 19.3806L120.477 48.5563ZM69.1094 84.2085C67.4392 85.1671 66.0392 86.4312 64.7292 87.6169C62.0501 90.0416 59.7365 92.1355 55.0742 92.1355C50.4119 92.1355 48.0983 90.0416 45.4192 87.6169C44.1091 86.4312 42.7087 85.1666 41.0385 84.2085L55.0742 54.4179L69.1094 84.2085ZM13.0222 143.674L37.4905 91.7395C38.1682 92.2128 38.9215 92.8764 39.8763 93.7408C42.9792 96.5492 47.2289 100.395 55.0742 100.395C62.9194 100.395 67.1691 96.5492 70.272 93.7408C71.2264 92.8769 71.9797 92.2136 72.6574 91.7399L97.1245 143.674H13.0222ZM106.255 143.674L77.214 82.032L89.4775 56.0026C90.1767 56.4234 90.987 57.123 92.1368 58.1634C95.1215 60.8652 99.2093 64.5656 106.772 64.5656C114.334 64.5656 118.421 60.8652 121.407 58.1634C122.522 57.1532 123.318 56.4655 124.003 56.041L141.369 92.9004L117.923 143.674H106.255V143.674ZM145.918 102.75C146.23 103.007 146.592 103.326 147.035 103.727C149.264 105.745 152.633 108.793 158.699 108.793C164.766 108.793 168.134 105.745 170.363 103.727C170.567 103.543 170.749 103.38 170.923 103.227L189.978 143.674H127.02L145.918 102.75Z" fill="#F8991D"/>
<path d="M154.726 41.0132L158.029 45.4418L161.35 41.0223C161.366 41.0008 162.99 38.8558 165.551 36.778C167.684 35.0475 170.951 32.9838 174.404 32.9838V24.7239C167.371 24.7239 161.495 29.0921 158.041 32.4159C154.588 29.0921 148.712 24.7239 141.679 24.7239V32.9838C145.131 32.9838 148.399 35.0471 150.532 36.778C153.093 38.8553 154.717 41.0008 154.726 41.0132Z" fill="#F8991D"/>
</svg>
