<svg width="71" height="66" viewBox="0 0 71 66" fill="none" xmlns="http://www.w3.org/2000/svg">
<path fill-rule="evenodd" clip-rule="evenodd" d="M6.1875 0H64.2125C67.6242 0 70.4 2.77578 70.4 6.1875V47.4375C70.4 50.8492 67.6242 53.625 64.2125 53.625H46.3117L49.0617 61.875H55.825C56.9642 61.875 57.8875 62.7983 57.8875 63.9375C57.8875 65.0767 56.9642 66 55.825 66H14.575C13.4358 66 12.5125 65.0767 12.5125 63.9375C12.5125 62.7983 13.4358 61.875 14.575 61.875H21.3383L24.0883 53.625H6.1875C2.77578 53.625 0 50.8492 0 47.4375V6.1875C0 2.77578 2.77578 0 6.1875 0ZM28.4367 53.625L25.6867 61.875H44.7133L41.9633 53.625H28.4367ZM64.2125 49.5C65.3495 49.5 66.275 48.5745 66.275 47.4375V45.375H4.125V47.4375C4.125 48.5745 5.05044 49.5 6.1875 49.5H64.2125ZM20.6159 27.5204L22.492 29.396C23.1569 30.0615 23.2874 31.0922 22.81 31.9021C22.1267 33.0618 21.6117 34.2993 21.2803 35.5797C21.0445 36.4896 20.2232 37.125 19.2833 37.125H16.6375V41.25H25.0959C24.9584 40.5743 24.8875 39.883 24.8875 39.1875C24.8875 33.5011 29.5136 28.875 35.2 28.875C40.8864 28.875 45.5125 33.5011 45.5125 39.1875C45.5125 39.883 45.4416 40.5743 45.3041 41.25H53.7625V37.125H51.1167C50.1767 37.125 49.3555 36.4896 49.1202 35.5797C48.7883 34.2993 48.2738 33.0618 47.59 31.9021C47.112 31.0922 47.243 30.0615 47.908 29.3965L49.7841 27.5204L46.8671 24.6034L44.991 26.4795C44.326 27.1444 43.2953 27.2755 42.4848 26.798C41.3257 26.1143 40.0882 25.5992 38.8078 25.2672C37.8979 25.032 37.2625 24.2107 37.2625 23.2708V20.625H33.1375V23.2708C33.1375 24.2107 32.5021 25.032 31.5922 25.2672C30.3112 25.5992 29.0737 26.1143 27.9146 26.7975C27.1041 27.2755 26.0734 27.1444 25.4085 26.4795L23.5324 24.6034L20.6159 27.5204ZM41.033 41.25C41.265 40.5915 41.3875 39.8938 41.3875 39.1875C41.3875 35.7758 38.6117 33 35.2 33C31.7883 33 29.0125 35.7758 29.0125 39.1875C29.0125 39.8938 29.1349 40.5915 29.367 41.25H41.033ZM57.8875 41.25H66.275V6.1875C66.275 5.05044 65.3495 4.125 64.2125 4.125H6.1875C5.05044 4.125 4.125 5.05044 4.125 6.1875V41.25H12.5125V35.0625C12.5125 33.9238 13.4358 33 14.575 33H17.7617C17.9754 32.4006 18.2204 31.8114 18.4964 31.2345L16.2411 28.9787C15.4354 28.173 15.4354 26.8673 16.2411 26.0616L22.0741 20.2281C22.4614 19.8414 22.9856 19.6244 23.5329 19.6244C24.0797 19.6244 24.6044 19.8414 24.9912 20.2281L27.2465 22.4839C27.8239 22.2079 28.4131 21.9624 29.0125 21.7492V18.5625C29.0125 17.4233 29.9358 16.5 31.075 16.5H39.325C40.4642 16.5 41.3875 17.4233 41.3875 18.5625V21.7492C41.9869 21.9624 42.5761 22.2079 43.1535 22.4839L45.4088 20.2281C45.7955 19.8414 46.3203 19.6244 46.8671 19.6244C47.4138 19.6244 47.9386 19.8414 48.3253 20.2281L54.1589 26.0616C54.9645 26.8673 54.9645 28.173 54.1594 28.9787L51.9035 31.234C52.1796 31.8114 52.4251 32.4006 52.6388 33H55.825C56.9642 33 57.8875 33.9233 57.8875 35.0625V41.25ZM49.6374 14.4375C49.6374 11.0258 52.4132 8.25 55.8249 8.25C59.2366 8.25 62.0124 11.0258 62.0124 14.4375C62.0124 17.8492 59.2366 20.625 55.8249 20.625C52.4132 20.625 49.6374 17.8492 49.6374 14.4375ZM53.7624 14.4375C53.7624 15.5746 54.6879 16.5 55.8249 16.5C56.962 16.5 57.8874 15.5746 57.8874 14.4375C57.8874 13.3004 56.962 12.375 55.8249 12.375C54.6879 12.375 53.7624 13.3004 53.7624 14.4375Z" fill="#11A88D"/>
</svg>
