<svg width="94" height="67" viewBox="0 0 94 67" fill="none" xmlns="http://www.w3.org/2000/svg">
<path d="M91.5741 5.57533C91.568 5.57533 91.5619 5.57533 91.556 5.57533H85.4197V3.47559C85.4528 2.64452 84.9152 1.89762 84.1164 1.66547C79.8563 0.549075 75.4695 -0.0107057 71.0654 0.000155042C63.825 0.000155042 53.9598 1.62927 46.665 9.05077C39.4245 1.55686 29.4869 0.000155042 22.2645 0.000155042C17.8605 -0.0107057 13.4737 0.549075 9.21353 1.66547C8.41481 1.89762 7.8772 2.64452 7.91024 3.47559V5.55723H1.81012C0.810483 5.55723 0 6.36772 0 7.36736V65.1827C0 66.1823 0.810483 66.9928 1.81012 66.9928C2.12101 66.9919 2.42647 66.9109 2.69708 66.7575C2.8781 66.667 20.9793 56.7656 46.2487 63.1373H46.5202H46.6831C46.8274 63.1547 46.9732 63.1547 47.1175 63.1373C72.4592 56.7113 90.5605 66.5946 90.6691 66.7575C91.2291 67.0808 91.9192 67.0808 92.4792 66.7575C93.0358 66.4362 93.3804 65.8436 93.3843 65.2008V7.38546C93.3843 6.38582 92.574 5.57533 91.5741 5.57533ZM3.62025 62.3046V9.19558H7.94644V54.5935C7.93513 55.5931 8.73633 56.4127 9.73598 56.424C9.83372 56.4251 9.93147 56.4183 10.0281 56.4036C13.7728 55.8318 17.5534 55.5293 21.3414 55.4985C26.5885 55.4076 31.8136 56.1968 36.7998 57.8336C25.5397 56.4719 14.1183 58.011 3.62025 62.3046ZM21.3414 51.8964C18.049 51.9039 14.7604 52.1154 11.4943 52.5299V4.90559C15.0186 4.12045 18.6176 3.71973 22.2283 3.71091C28.9982 3.71091 38.3384 5.26761 44.8187 12.5805L44.873 57.6707C41.1079 55.2089 33.7588 51.8964 21.3414 51.8964ZM48.4932 12.5805C54.9734 5.34002 64.3137 3.71091 71.0835 3.71091C74.6941 3.72154 78.293 4.12203 81.8176 4.90559V52.5299C78.5698 52.1116 75.2993 51.8939 72.0248 51.8783C59.6798 51.8783 52.3126 55.1908 48.4932 57.6526V12.5805ZM89.7459 62.3046C79.2255 57.9992 67.7778 56.4599 56.4939 57.8336C61.5037 56.1909 66.7537 55.4015 72.0248 55.4985C75.8365 55.5198 79.6416 55.8162 83.4105 56.3855C84.3988 56.5355 85.3218 55.8558 85.4718 54.8675C85.4865 54.7709 85.4933 54.6731 85.4921 54.5754V9.19558H89.8183L89.7459 62.3046Z" fill="#2E338B"/>
</svg>
