<svg width="178" height="160" viewBox="0 0 178 160" fill="none" xmlns="http://www.w3.org/2000/svg">
<path fill-rule="evenodd" clip-rule="evenodd" d="M97.9995 0C119.368 0 139.459 8.32153 154.568 23.4314C169.678 38.54 177.999 58.6316 177.999 80C177.999 101.368 169.678 121.46 154.568 136.569C147.012 144.125 138.212 149.982 128.631 153.95C119.049 157.919 108.684 160 97.9995 160C76.6311 160 56.5395 151.678 41.4309 136.569C26.321 121.46 17.9995 101.368 17.9995 80C17.9995 58.6316 26.321 38.54 41.4309 23.4314C56.5395 8.32153 76.6311 0 97.9995 0ZM168.505 83.4277C152.497 84.1833 137.49 90.2478 125.451 100.823L151.146 126.519C161.973 114.16 167.764 98.894 168.505 83.4277ZM168.34 74.0515V74.0466C167.118 59.4495 161.383 45.166 151.146 33.4814L104.628 80L118.81 94.1809C125.821 87.9297 133.772 83.02 142.508 79.5667C150.796 76.2891 159.463 74.4446 168.34 74.0515ZM92.0522 150.341C92.4453 141.465 94.2898 132.795 97.5661 124.508C101.019 115.773 105.929 107.821 112.18 100.811L97.9995 86.6284L51.4809 133.147C63.1655 143.384 77.4489 149.119 92.0461 150.341H92.0522ZM27.4941 76.5698C43.4975 75.8081 58.5085 69.7498 70.5471 59.1772L44.8525 33.4814C34.0249 45.8398 28.2351 61.1035 27.4941 76.5698ZM94.5717 9.49097C79.1067 10.2319 63.8393 16.0229 51.4809 26.853L77.1767 52.5476C87.7517 40.509 93.8149 25.5017 94.5717 9.49097ZM103.947 9.65576C103.554 18.5327 101.709 27.2034 98.4328 35.4907C94.9782 44.2273 90.0686 52.1777 83.8186 59.1895L97.9995 73.3704L144.518 26.853C132.833 16.6125 118.549 10.8813 103.955 9.65576H103.947ZM27.6589 85.9521V85.9534C28.8808 100.549 34.6145 114.834 44.8525 126.519L91.3698 80L77.1889 65.8191C70.1772 72.0703 62.2268 76.98 53.4902 80.4333C45.2028 83.7097 36.5346 85.5579 27.6589 85.9521ZM118.822 107.451C108.247 119.491 102.184 134.496 101.427 150.507C116.895 149.764 132.16 143.975 144.518 133.147L118.822 107.451ZM10.2989 75.8004C10.3636 78.3364 8.33417 80.4457 5.76643 80.5112C3.1987 80.5766 1.06437 78.5736 0.999693 76.0376C0.840325 56.5168 7.9483 37.6138 20.9727 22.9218C22.7408 21.0795 25.6854 21.0022 27.5496 22.7474C29.4138 24.4925 29.4903 27.4007 27.7221 29.243C16.4735 42.2137 10.2929 58.7281 10.2989 75.8004Z" fill="#CF1E63"/>
</svg>
