<svg width="84" height="66" viewBox="0 0 84 66" fill="none" xmlns="http://www.w3.org/2000/svg">
<path d="M83.9736 22.4151C83.9736 24.7863 83.5851 27.1256 82.831 29.3744C79.2888 45.4016 48.6591 64.79 47.356 65.615C46.9488 65.8678 46.4919 66 46.0262 66C45.5614 66 45.0983 65.8829 44.6911 65.615C44.3407 65.387 35.711 59.9411 26.9616 52.4558C25.9139 51.5527 25.8039 49.995 26.683 48.9517C27.5834 47.9174 29.1394 47.7914 30.1888 48.6705C36.7108 54.2424 43.3019 58.7471 46.0386 60.5621C55.2378 54.5644 75.5462 39.3054 78.0354 28.0517C78.6856 26.0637 78.9792 24.2558 78.9792 22.4204C78.9792 16.0315 75.5009 10.1421 69.8998 7.05675C62.7471 3.08788 53.1727 4.91796 47.9397 11.2261C46.9994 12.3652 45.0655 12.3652 44.1074 11.2261C38.8585 4.91353 29.2911 3.09764 22.1482 7.04966C16.5293 10.1421 13.051 16.028 13.051 22.4107C13.051 24.2336 13.3597 26.0495 13.9345 27.8033C14.3036 29.4445 15.0097 31.0492 15.9083 32.7143H30.4177L35.4005 21.2627C35.8272 20.2825 36.8465 19.666 37.8951 19.776C38.9631 19.8691 39.8538 20.6373 40.0915 21.6806L43.7597 37.1888L48.5048 29.4081C48.9519 28.6691 49.7565 28.2176 50.6258 28.2176H59.6307C61.0013 28.2176 62.1155 29.3274 62.1155 30.7041C62.1155 32.0738 61.0013 33.1898 59.6307 33.1898H52.0212L44.873 44.9314C44.417 45.6801 43.6133 46.1272 42.759 46.1272C42.6233 46.1272 42.492 46.1166 42.3705 46.0979C41.3689 45.9374 40.5803 45.1993 40.3399 44.2191L36.9876 30.0929L34.3387 36.1899C33.943 37.1063 33.0462 37.6847 32.0571 37.6847H3.0667C1.7059 37.6838 0.581055 36.5714 0.581055 35.1991C0.581055 33.8294 1.7059 32.7134 3.0667 32.7134H10.356C9.83881 31.4795 9.42099 30.2819 9.16196 29.1233C8.46825 27.1114 8.093 24.7686 8.093 22.4098C8.093 14.2112 12.5516 6.66288 19.7557 2.69401C28.0997 -1.92157 39.1414 -0.470273 46.0369 6.00909C52.9136 -0.47116 63.9474 -1.92157 72.3056 2.69401C79.5009 6.65756 83.9736 14.2112 83.9736 22.4151Z" fill="#F13B3B"/>
</svg>
