<svg width="64" height="64" viewBox="0 0 64 64" fill="none" xmlns="http://www.w3.org/2000/svg">
<path d="M58.375 15H50.7449C51.9246 13.432 52.625 11.4839 52.625 9.375C52.625 4.20563 48.4194 0 43.25 0C40.1361 0 37.84 1.11562 36.0239 3.51087C34.5045 5.51487 33.3935 8.31288 32 11.8481C30.6065 8.31275 29.4955 5.51487 27.9761 3.51087C26.16 1.11562 23.8639 0 20.75 0C15.5806 0 11.375 4.20563 11.375 9.375C11.375 11.4839 12.0754 13.432 13.2551 15H5.625C2.52338 15 0 17.5234 0 20.625V24.375C0 26.8194 1.56763 28.9035 3.75 29.6775V58.375C3.75 61.4766 6.27338 64 9.375 64H54.625C57.7266 64 60.25 61.4766 60.25 58.375V29.6775C62.4324 28.9035 64 26.8194 64 24.375V20.625C64 17.5234 61.4766 15 58.375 15ZM35.4417 13.3425C38.3141 6.05525 39.4061 3.75 43.25 3.75C46.3516 3.75 48.875 6.27338 48.875 9.375C48.875 12.4766 46.3516 15 43.25 15H34.7859C35.0156 14.4231 35.2347 13.8678 35.4417 13.3425ZM20.75 3.75C24.5939 3.75 25.6859 6.05525 28.5583 13.3425C28.7653 13.8678 28.9844 14.4231 29.2141 15H20.75C17.6484 15 15.125 12.4766 15.125 9.375C15.125 6.27338 17.6484 3.75 20.75 3.75ZM24.5 60.25H9.375C8.34113 60.25 7.5 59.4089 7.5 58.375V30H24.5V60.25ZM24.5 26.25H5.625C4.59113 26.25 3.75 25.4089 3.75 24.375V20.625C3.75 19.5911 4.59113 18.75 5.625 18.75H24.5V26.25ZM35.75 60.25H28.25V18.75C28.6429 18.75 33.595 18.75 35.75 18.75V60.25ZM56.5 58.375C56.5 59.4089 55.6589 60.25 54.625 60.25H39.5V30H56.5V58.375ZM60.25 24.375C60.25 25.4089 59.4089 26.25 58.375 26.25H39.5V18.75H58.375C59.4089 18.75 60.25 19.5911 60.25 20.625V24.375Z" fill="#BE3E9B"/>
</svg>
