<svg width="74" height="74" viewBox="0 0 74 74" fill="none" xmlns="http://www.w3.org/2000/svg">
<path d="M73.4529 34.9805C70.5534 18.3277 56.524 5.55665 39.3125 4.54637V2.16797C39.3125 0.970672 38.3418 0 37.1445 0C35.9472 0 34.9766 0.970672 34.9766 2.16797V4.54609C17.8242 5.54783 3.47554 18.2527 0.547629 34.9796C0.109844 35.7559 0 36.4761 0 37C0 38.1973 0.970672 39.168 2.16797 39.168C2.98789 39.168 4.41745 38.593 4.60187 37.1558C4.61951 37.0181 4.64018 36.8815 4.65954 36.7443C5.62212 35.99 8.473 34.832 13.0078 34.832C18.301 34.832 21.3023 36.4102 21.6813 37.0818C21.721 38.1288 22.5146 39.1064 23.8468 39.1703C25.0393 39.2253 26.0502 38.308 26.1125 37.1178C26.9041 36.416 29.9379 35.1799 34.9766 34.8933V65.3281C34.9766 70.1098 38.8668 74 43.6484 74C48.4301 74 52.3203 70.1098 52.3203 65.3281V63.1602C52.3203 61.9629 51.3496 60.9922 50.1523 60.9922C48.955 60.9922 47.9844 61.9629 47.9844 63.1602V65.3281C47.9844 67.719 46.0393 69.6641 43.6484 69.6641C41.2576 69.6641 39.3125 67.719 39.3125 65.3281V34.895C44.2105 35.1824 47.1318 36.3948 47.8852 37.084C47.8855 37.0913 47.8859 37.0986 47.8864 37.1059C47.9406 38.2677 48.8994 39.1729 50.0503 39.1729C51.4166 39.1729 52.2775 38.1669 52.3187 37.0819C52.6977 36.4102 55.699 34.832 60.9922 34.832C65.5271 34.832 68.378 35.99 69.3405 36.7443C69.3585 36.8715 69.3777 36.9981 69.3944 37.1259C69.5711 38.4956 70.9492 39.168 71.832 39.168C73.0293 39.168 74 38.1973 74 37C74 36.4762 73.8902 35.7565 73.4529 34.9805ZM22.1318 32.2036C19.4595 30.9634 15.9995 30.4961 13.0078 30.4961C10.423 30.4961 7.94315 30.834 5.86927 31.4585C9.28079 20.8119 18.068 12.6458 28.909 9.85616C24.8319 15.821 22.8703 24.9991 22.1318 32.2036ZM37.1445 30.4961C33.7213 30.4961 29.6915 30.9264 26.5034 32.0896C28.1008 17.4948 33.2105 8.81641 37.1445 8.81641C41.2232 8.81641 45.9864 17.9543 47.4983 32.039C44.6561 30.9914 40.8922 30.4961 37.1445 30.4961ZM60.9922 30.4961C58.0133 30.4961 54.5548 30.9593 51.8744 32.2007C51.162 25.0627 49.2866 15.8327 45.3111 9.86007C56.04 12.6536 64.7464 20.8186 68.1362 31.4601C66.0612 30.8347 63.5793 30.4961 60.9922 30.4961Z" fill="#60B1CB"/>
</svg>
