<svg width="196" height="159" viewBox="0 0 196 159" fill="none" xmlns="http://www.w3.org/2000/svg">
<path fill-rule="evenodd" clip-rule="evenodd" d="M195.272 154.749V135.628C195.272 117.188 182.788 101.205 164.913 96.7602C162.869 96.2506 160.8 97.4971 160.291 99.5408C159.783 101.585 161.028 103.654 163.072 104.162C177.54 107.76 187.644 120.699 187.644 135.627V151.255H173.209V132.454C173.209 130.348 171.501 128.641 169.395 128.641C167.289 128.641 165.581 130.349 165.581 132.454V151.255H136.742V142.198C136.742 129.39 128.071 118.289 115.656 115.202C115.614 115.192 115.572 115.182 115.53 115.173L115.202 115.103C119.493 110.693 122.144 104.682 122.144 98.0609V93.7794C122.144 93.6527 122.14 93.5271 122.135 93.4015C122.133 93.3316 122.131 93.2617 122.129 93.1916C126.69 96.2205 132.158 97.9907 138.035 97.9907C153.916 97.9907 166.837 85.0879 166.837 69.2284V52.571C166.837 50.4648 165.129 48.7571 163.023 48.7571H152.843L155.531 35.5908C155.863 33.9622 155.103 32.3068 153.652 31.4974C152.199 30.6873 150.392 30.9116 149.181 32.0501L131.417 48.7575H113.047C110.94 48.7575 109.233 50.4655 109.233 52.5714V69.2288C109.233 70.2613 109.29 71.2805 109.397 72.2851C107.009 70.9731 104.38 70.0504 101.594 69.5961V44.2133C101.594 24.0395 118.007 7.62767 138.18 7.62767C158.353 7.62767 174.765 24.0399 174.765 44.2133V89.739C174.765 91.8452 176.473 93.5528 178.579 93.5528C180.686 93.5528 182.393 91.8448 182.393 89.739V44.2133C182.393 19.8339 162.559 0 138.18 0C123.106 0 109.772 7.58419 101.788 19.1359V6.2679C101.788 4.87457 101.028 3.59223 99.8059 2.92283C98.5838 2.25344 97.094 2.30379 95.9199 3.05443L84.8618 10.121C82.2353 11.7997 79.1988 12.6872 76.0818 12.6872H46.2588C31.264 12.6872 19.065 24.8859 19.065 39.8811V62.6592C19.065 64.7654 20.7726 66.473 22.8788 66.473H25.2501C25.3395 66.473 25.4284 66.4704 25.5173 66.4677C25.5589 66.4665 25.6005 66.4652 25.6422 66.4643V66.5825C25.6422 83.9093 39.7583 98.0059 57.1091 98.0059C62.9579 98.0059 68.4358 96.399 73.133 93.612C73.1329 93.6382 73.1319 93.6644 73.131 93.6905V93.6907V93.6908C73.1299 93.7201 73.1289 93.7495 73.1289 93.779V98.0605C73.1289 104.683 75.7801 110.695 80.073 115.105L79.7732 115.166C79.721 115.177 79.6687 115.189 79.6165 115.202C67.2012 118.289 58.5299 129.39 58.5299 142.198V151.255H33.2699V132.455C33.2699 130.349 31.5623 128.641 29.4561 128.641C27.3495 128.641 25.6422 130.349 25.6422 132.455V151.255H7.62767V135.632C7.62767 120.698 17.7353 107.755 32.2076 104.156C34.2521 103.648 35.4966 101.579 34.9886 99.5347C34.4805 97.4906 32.4109 96.2438 30.3669 96.7541C12.4874 101.2 0 117.187 0 135.632V155.069C0 157.176 1.70763 158.883 3.81384 158.883H65V159H121V158.883H191.473C193.58 158.883 195.287 157.175 195.287 155.069C195.288 154.961 195.281 154.854 195.272 154.749ZM121 151.255H129.114V142.198C129.114 132.922 122.85 124.881 113.874 122.619L106.206 120.987C103.537 121.986 100.649 122.535 97.6352 122.535C94.6628 122.535 91.8124 122.003 89.1741 121.03L81.3817 122.623C72.4133 124.889 66.1568 132.927 66.1568 142.198V151H121V151.255ZM116.86 56.3848H132.929C133.9 56.3848 134.835 56.0141 135.541 55.3489L145.653 45.8381L144.435 51.8078C144.205 52.9299 144.493 54.0951 145.217 54.9823C145.942 55.8695 147.026 56.3844 148.171 56.3844H159.208V69.2281C159.208 80.8816 149.71 90.3622 138.034 90.3622C126.359 90.3622 116.86 80.8816 116.86 69.2281V56.3848ZM97.636 76.8996C105.009 76.8996 111.289 81.6532 113.583 88.2556C110.831 87.8479 108.376 86.4027 106.827 84.2152C106.022 83.0786 104.662 82.4714 103.278 82.6304C101.895 82.7899 100.708 83.6908 100.182 84.9804C98.448 89.2367 93.9579 92.0962 89.0093 92.0962C86.4218 92.0962 83.9586 91.3455 81.8867 89.9259C81.6929 89.7932 81.49 89.6837 81.2829 89.591C83.1503 82.3028 89.7737 76.8996 97.636 76.8996ZM88.2404 71.1477C88.4586 69.6568 88.5764 68.1337 88.5764 66.5833V48.1888C90.5533 46.9702 92.3628 45.5086 93.9705 43.849C93.97 43.8989 93.9691 43.9487 93.9682 43.9985L93.9665 44.0994C93.9659 44.1373 93.9655 44.1752 93.9655 44.2133V69.5477C91.968 69.849 90.0502 70.3933 88.2404 71.1477ZM26.6923 58.7454V39.8815C26.6923 29.0926 35.4696 20.3153 46.2584 20.3153H76.0811C80.657 20.3153 85.1135 19.0127 88.9689 16.5484L94.1589 13.2319V24.5899C94.1589 35.6603 85.1524 44.6672 74.0816 44.6672H39.4283C37.3217 44.6672 35.6145 46.3752 35.6145 48.481C35.6145 53.7065 31.727 58.0413 26.6923 58.7454ZM57.1095 90.3786C43.9646 90.3786 33.2699 79.7038 33.2699 66.5829V64.5816C38.0789 62.1767 41.6684 57.6832 42.836 52.2944H74.082C76.4514 52.2944 78.7518 51.9943 80.9488 51.4321V66.5829C80.9488 79.7038 70.2545 90.3786 57.1095 90.3786ZM114.516 98.0609C114.516 107.35 106.944 114.908 97.6363 114.908C88.3289 114.908 80.7565 107.35 80.7565 98.0605V97.9922C83.3231 99.1307 86.1224 99.7246 89.0093 99.7246C95.1033 99.7246 100.799 96.9688 104.452 92.5302C107.314 94.6296 110.821 95.8593 114.516 95.9916V98.0609H114.516ZM49.5597 63.3131L49.7485 63.4298C51.5427 64.534 52.1019 66.8828 50.9981 68.6767C50.2776 69.8476 49.0269 70.4922 47.7465 70.4922C47.0645 70.4922 46.3745 70.3099 45.7509 69.9262L45.5621 69.8095C43.7678 68.7053 43.2083 66.3565 44.3125 64.5623C45.4167 62.7681 47.7651 62.2089 49.5597 63.3131ZM69.8387 63.4325L69.6457 63.3131C67.8511 62.2089 65.5027 62.7681 64.3985 64.5623C63.2942 66.3565 63.8538 68.7053 65.648 69.8095L65.8322 69.9235C66.4566 70.3092 67.1485 70.4922 67.832 70.4922C69.1109 70.4922 70.3601 69.8488 71.081 68.6809C72.1871 66.8889 71.6314 64.539 69.8387 63.4325ZM129.895 63.3131L130.084 63.4298C131.878 64.534 132.437 66.8828 131.333 68.677C130.613 69.848 129.362 70.4926 128.081 70.4926C127.399 70.4926 126.709 70.3103 126.086 69.9266L125.897 69.8099C124.103 68.7057 123.543 66.3565 124.647 64.5623C125.752 62.7681 128.1 62.2089 129.895 63.3131ZM150.17 63.4295L149.977 63.3101C148.182 62.2089 145.833 62.7708 144.732 64.5665C143.63 66.3622 144.193 68.7103 145.988 69.8122L146.172 69.9262C146.796 70.31 147.486 70.4923 148.168 70.4923C149.449 70.4923 150.699 69.8477 151.42 68.6767C152.524 66.8825 151.964 64.5337 150.17 63.4295ZM138.178 74.8014C139.959 74.0797 142.034 74.7995 142.966 76.5296C143.964 78.3841 143.27 80.697 141.416 81.6959C140.425 82.2296 139.306 82.5114 138.178 82.5114C137.052 82.5114 135.932 82.2292 134.942 81.6963C133.087 80.6978 132.393 78.3848 133.391 76.53C134.322 74.7998 136.398 74.0789 138.178 74.8014ZM61.8962 76.5296C60.9644 74.7995 58.8898 74.0797 57.109 74.8014C55.3289 74.0789 53.2532 74.7998 52.3217 76.53C51.3232 78.3848 52.0174 80.6978 53.8722 81.6963C54.8628 82.2292 55.9822 82.5114 57.109 82.5114C58.2364 82.5114 59.3559 82.2296 60.3465 81.6959C62.2009 80.697 62.8944 78.3841 61.8962 76.5296Z" fill="#007AC1"/>
</svg>
